<?xml version="1.0" standalone="no"?>
<!DOCTYPE svg PUBLIC "-//W3C//DTD SVG 1.1//EN" "http://www.w3.org/Graphics/SVG/1.1/DTD/svg11.dtd" >
<svg xmlns="http://www.w3.org/2000/svg" xmlns:xlink="http://www.w3.org/1999/xlink" version="1.1">
<metadata>
Created by FontForge 20170731 at Fri Jun  8 02:15:01 2018
 By Aleksey,,,
Copyright (c) 2018 by Jorge Cisterna. All rights reserved.
</metadata>
<defs>
<font id="RecoletaAlt-Black" horiz-adv-x="600" >
  <font-face 
    font-family="Recoleta Alt Black"
    font-weight="900"
    font-stretch="normal"
    units-per-em="1000"
    panose-1="0 0 10 0 0 0 0 0 0 0"
    ascent="800"
    descent="-200"
    x-height="480"
    cap-height="710"
    bbox="-721 -344.082 1351 978.579"
    underline-thickness="50"
    underline-position="-250"
    unicode-range="U+0020-FB02"
  />
<missing-glyph horiz-adv-x="530" 
d="M50 730h430v-730h-430v730zM115 695l150 -287l150 287h-300zM243 365l-153 292v-584zM288 365l152 -292v584zM265 322l-150 -287h300z" />
    <glyph glyph-name="fi" unicode="fi" horiz-adv-x="754" 
d="M383 480q11 0 18 -7t7 -18v-25q0 -10 -7 -17.5t-18 -7.5h-101v-285q0 -21 14 -38t28 -31t14 -26v-4q0 -21 -25 -21h-241q-25 0 -25 21v4q0 13 20.5 40.5t20.5 54.5v285h-61q-11 0 -18 7.5t-7 17.5v25q0 11 7 18t18 7h61v40q0 90 76.5 150t207.5 60q118 0 183.5 -42.5
t65.5 -112.5q0 -28 -22.5 -49t-54.5 -21q-37 0 -62.5 17.5t-39.5 42.5t-25.5 50t-27.5 42.5t-38 17.5q-34 0 -53 -30t-21 -73t4 -92h102zM695 120q0 -27 23 -54.5t23 -40.5v-4q0 -21 -25 -21h-241q-25 0 -25 21v4q0 13 20.5 40.5t20.5 54.5v161q0 27 -20.5 53.5t-20.5 37.5
v4q0 13 25 25l171 84q22 10 35.5 2t13.5 -25v-342z" />
    <glyph glyph-name="fl" unicode="fl" horiz-adv-x="755" 
d="M695 120q0 -27 23 -54.5t23 -40.5v-4q0 -21 -25 -21h-241q-25 0 -25 21v4q0 13 20.5 40.5t20.5 54.5v397q-25 13 -44 40.5t-29 53t-27 45t-40 19.5q-34 0 -53 -30t-21 -73t4 -92h102q11 0 18 -7t7 -18v-25q0 -10 -7 -17.5t-18 -7.5h-101v-285q0 -21 14 -38t28 -31t14 -26
v-4q0 -21 -25 -21h-241q-25 0 -25 21v4q0 13 20.5 40.5t20.5 54.5v285h-61q-11 0 -18 7.5t-7 17.5v25q0 11 7 18t18 7h61v40q0 90 76.5 150t207.5 60q101 0 163 -31l111 54q22 10 35.5 2t13.5 -25v-610z" />
    <glyph glyph-name=".notdef" horiz-adv-x="530" 
d="M50 730h430v-730h-430v730zM115 695l150 -287l150 287h-300zM243 365l-153 292v-584zM288 365l152 -292v584zM265 322l-150 -287h300z" />
    <glyph glyph-name=".null" horiz-adv-x="0" 
 />
    <glyph glyph-name="nonmarkingreturn" horiz-adv-x="333" 
 />
    <glyph glyph-name="space" unicode=" " horiz-adv-x="188" 
 />
    <glyph glyph-name="exclam" unicode="!" horiz-adv-x="290" 
d="M106 259q-30 108 -46 216.5t-16 173.5q0 43 50.5 61t101 0.5t50.5 -60.5q0 -191 -62 -391q-6 -19 -39.5 -19t-38.5 19zM145 -14q-51 0 -84 26.5t-33 77.5t33 77.5t84 26.5t84 -26.5t33 -77.5t-33 -77.5t-84 -26.5z" />
    <glyph glyph-name="quotedbl" unicode="&#x22;" horiz-adv-x="491" 
d="M70 406q-47 145 -47 215q0 48 28.5 73.5t69.5 25.5t70 -25.5t29 -73.5q0 -78 -48 -215q-13 -35 -52 -33.5t-50 33.5zM318 406q-47 145 -47 215q0 48 28.5 73.5t69.5 25.5t70 -25.5t29 -73.5q0 -78 -48 -215q-13 -35 -52 -33.5t-50 33.5z" />
    <glyph glyph-name="numbersign" unicode="#" horiz-adv-x="688" 
d="M634 480q26 0 26 -19v-59q0 -18 -26 -18h-90l-23 -87h86q26 0 26 -19v-59q0 -18 -26 -18h-112l-48 -184q-4 -17 -28 -17h-78q-24 0 -17 29l46 172h-124l-48 -184q-4 -17 -28 -17h-78q-24 0 -17 29l46 172h-67q-26 0 -26 18v59q0 19 26 19h92l24 87h-89q-26 0 -26 18v59
q0 19 26 19h114l49 183q4 17 22 17h82q24 0 17 -29l-45 -171h124l49 183q4 17 22 17h82q24 0 17 -29l-45 -171h65zM395 297l24 87h-124l-23 -87h123z" />
    <glyph glyph-name="dollar" unicode="$" horiz-adv-x="588" 
d="M559 212q0 -95 -64 -154.5t-179 -66.5v-96q0 -27 -21 -27h-31q-21 0 -21 27v97q-96 8 -153.5 48.5t-57.5 96.5q0 47 25.5 72t61.5 25q46 0 77.5 -27.5t44.5 -60.5t28 -60.5t32 -27.5q44 0 44 80q0 40 -23 70t-57.5 46t-75 36.5t-75 42.5t-57.5 63.5t-23 98.5
q0 86 60.5 144.5t159.5 66.5v52q0 26 21 26h31q21 0 21 -26v-53q97 -7 155 -46.5t58 -94.5q0 -43 -24 -69t-66 -26q-41 0 -67 28t-35 61t-22.5 61t-31.5 28q-38 0 -38 -72q0 -43 16.5 -73t43.5 -46.5t59 -30t64.5 -29t59.5 -36.5t43.5 -58.5t16.5 -89.5z" />
    <glyph glyph-name="percent" unicode="%" horiz-adv-x="904" 
d="M216 341q-81 0 -137 51.5t-56 135.5q0 86 53.5 139t139.5 53q81 0 137.5 -53.5t56.5 -138.5q0 -83 -57.5 -135t-136.5 -52zM239 0q-14 0 -18.5 8.5t1.5 20.5l340 664q8 17 22 17h72q13 0 18 -8.5t-1 -20.5l-338 -664q-9 -17 -28 -17h-68zM235 388q33 0 33 71
q0 69 -23.5 141t-57.5 72q-33 0 -33 -78q0 -72 23.5 -139t57.5 -67zM687 -10q-81 0 -137 51.5t-56 135.5q0 86 53.5 139t139.5 53q81 0 137.5 -53.5t56.5 -138.5q0 -83 -57.5 -135t-136.5 -52zM706 37q33 0 33 71q0 69 -23.5 141t-57.5 72q-33 0 -33 -78q0 -72 23.5 -139
t57.5 -67z" />
    <glyph glyph-name="ampersand" unicode="&#x26;" horiz-adv-x="773" 
d="M745 108q31 0 31 -23v-8q0 -29 -45.5 -58t-100.5 -29q-51 0 -82.5 13.5t-59.5 40.5q-79 -54 -177 -54q-148 0 -216 50.5t-68 138.5q0 115 154 204q-77 84 -77 153q0 79 61.5 131t188.5 53q91 1 162 -38.5t71 -109.5q0 -28 -21.5 -47.5t-60.5 -19.5q-35 0 -57.5 15.5
t-33.5 37.5t-20 43.5t-23 37t-36 15.5t-34 -18t-12 -45q0 -16 2 -29.5t9 -27.5t10.5 -22t16 -23t16.5 -19.5t21.5 -22.5t20.5 -21l148 -157q18 48 18 83q0 27 -22.5 54.5t-22.5 40.5v4q0 21 25 21h141q25 0 25 -21v-4q0 -13 -23 -40.5t-23 -54.5q0 -82 -41 -164
q76 -80 108 -80h27zM243 170q0 -43 27 -73t71 -30q45 0 90 40l-163 184q-25 -53 -25 -121z" />
    <glyph glyph-name="quotesingle" unicode="'" horiz-adv-x="243" 
d="M70 406q-47 145 -47 215q0 48 28.5 73.5t69.5 25.5t70 -25.5t29 -73.5q0 -78 -48 -215q-13 -35 -52 -33.5t-50 33.5z" />
    <glyph glyph-name="parenleft" unicode="(" horiz-adv-x="287" 
d="M200 -113q-72 55 -123 172t-51 278t51 278t123 172q23 18 45.5 5.5t8.5 -40.5q-27 -56 -45 -172t-18 -243t18 -243t45 -172q14 -28 -8.5 -40.5t-45.5 5.5z" />
    <glyph glyph-name="parenright" unicode=")" horiz-adv-x="286" 
d="M87 -113q-23 -19 -45.5 -6t-8.5 41q27 56 45 172t18 243t-18 243t-45 172q-14 28 8.5 40.5t45.5 -5.5q74 -55 123.5 -171.5t49.5 -278.5q0 -160 -51 -276.5t-122 -173.5z" />
    <glyph glyph-name="asterisk" unicode="*" horiz-adv-x="417" 
d="M176 431q-17 -43 -58 -34q-32 6 -44 34q-13 30 17 54l82 65l-91 1q-47 0 -54 38q-6 33 20 55q24 21 54 3l83 -49l-27 88q-10 33 6 52t50 20q33 2 48 -17.5t3 -54.5l-30 -88l82 49q40 24 62 -10q19 -30 4 -60q-12 -26 -45 -26l-87 -1l81 -68q32 -27 6 -59q-22 -28 -55 -25
q-29 3 -40 36l-31 90z" />
    <glyph glyph-name="plus" unicode="+" 
d="M258 60q-18 0 -18 28l-1 150h-150q-26 0 -28 20l1 82q0 20 27 20h150v150q0 28 19 28h83q20 0 20 -28v-150l151 1q12 0 20 -6t7 -14v-83q0 -19 -27 -19h-150v-151q0 -12 -6 -20t-14 -8h-84z" />
    <glyph glyph-name="comma" unicode="," horiz-adv-x="286" 
d="M97 -156q-19 -11 -34.5 5.5t-0.5 31.5q24 25 32.5 34t16.5 23t9 28q2 24 -14 24q-32 0 -55 29t-23 73q0 53 30.5 85.5t81.5 32.5q48 0 83 -36t35 -98q0 -137 -161 -232z" />
    <glyph glyph-name="hyphen" unicode="-" horiz-adv-x="462" 
d="M69 290q-25 0 -25 28v42q0 28 25 28h324q25 0 25 -28v-42q0 -28 -25 -28h-324z" />
    <glyph glyph-name="period" unicode="." horiz-adv-x="284" 
d="M142 -10q-51 0 -84 26.5t-33 77.5t33 77.5t84 26.5t84 -26.5t33 -77.5t-33 -77.5t-84 -26.5z" />
    <glyph glyph-name="slash" unicode="/" horiz-adv-x="393" 
d="M37 -90q-26 0 -17 29l244 836q4 17 28 17h63q26 0 17 -29l-243 -836q-6 -17 -28 -17h-64z" />
    <glyph glyph-name="zero" unicode="0" horiz-adv-x="725" 
d="M362 -10q-140 0 -236.5 99t-96.5 261q0 166 91 268t242 102q142 0 238.5 -103t96.5 -267q0 -161 -98.5 -260.5t-236.5 -99.5zM392 64q77 0 77 193q0 87 -14.5 172.5t-46.5 149t-74 63.5q-78 0 -78 -216q0 -138 37.5 -250t98.5 -112z" />
    <glyph glyph-name="one" unicode="1" horiz-adv-x="388" 
d="M61 0q-25 0 -25 21v4q0 13 30 45.5t30 59.5v370q0 22 -11.5 35.5t-25 18.5t-25 13.5t-11.5 21.5v5q0 22 33 35l173 74q43 16 68 4.5t25 -37.5q0 -15 -10.5 -40t-10.5 -59v-441q0 -21 16 -40.5t32 -36t16 -28.5v-4q0 -21 -25 -21h-279z" />
    <glyph glyph-name="two" unicode="2" horiz-adv-x="636" 
d="M591 218q11 0 17 -7t4 -18l-33 -168q-5 -25 -25 -25h-498q-11 0 -19.5 7.5t-8.5 17.5v15q0 60 34.5 118t83.5 104.5t97.5 91t83 93t34.5 93.5q0 47 -17.5 75t-43.5 28q-20 0 -34 -31t-23.5 -67.5t-38 -67.5t-74.5 -31q-42 0 -70 25t-28 69q0 78 80.5 129t193.5 51
q130 0 204.5 -48t74.5 -152q0 -56 -31.5 -102.5t-80 -80t-98.5 -62.5t-93.5 -63t-59.5 -69h237q28 0 48.5 11.5t29 26t19 26t20.5 11.5h15z" />
    <glyph glyph-name="three" unicode="3" horiz-adv-x="609" 
d="M373 432q98 -5 153.5 -63.5t55.5 -150.5q0 -93 -79 -160.5t-200 -67.5q-137 0 -209 44.5t-72 109.5q0 46 23.5 73t64.5 27q32 0 55.5 -18t37 -44t25.5 -52.5t28.5 -44.5t37.5 -18q30 0 49 38.5t19 93.5q0 54 -19 86.5t-57 32.5h-22q-26 0 -36 23t7 47l108 146h-261
q-17 0 -27.5 10.5t-10.5 26.5v104q0 35 37 35h443q13 0 20.5 -7t7.5 -18v-17q0 -19 -29 -54z" />
    <glyph glyph-name="four" unicode="4" horiz-adv-x="601" 
d="M557 251q22 0 22 -22v-38q0 -22 -22 -22h-53v-49q0 -27 23 -54.5t23 -40.5v-4q0 -21 -25 -21h-242q-25 0 -25 21v4q0 13 20.5 40.5t20.5 54.5v49h-248q-52 0 -52 41v6q0 34 19 65l244 381q31 48 86 48h128q28 0 28 -28v-431h53zM105 251h194v303z" />
    <glyph glyph-name="five" unicode="5" horiz-adv-x="599" 
d="M327 452q97 0 172.5 -57t75.5 -160q0 -107 -81 -176t-209 -69q-122 0 -191.5 41t-69.5 116q0 48 29 71t69 23q28 0 48.5 -18t32 -43.5t22 -51t25.5 -43.5t36 -18q34 0 55.5 34t21.5 111q0 163 -102 163q-48 0 -95 -41q-30 -25 -68.5 -10.5t-34.5 47.5l35 314q3 25 30 25
h392q28 0 28 -28v-106q0 -28 -28 -28h-344l-17 -158q73 62 168 62z" />
    <glyph glyph-name="six" unicode="6" horiz-adv-x="622" 
d="M352 470q43 0 83 -13.5t75 -41t56 -76t21 -110.5q0 -110 -77 -174.5t-190 -64.5q-126 0 -208.5 96t-82.5 250q0 165 82.5 274.5t228.5 109.5q110 0 177 -44.5t67 -115.5q0 -47 -27.5 -70.5t-70.5 -23.5q-39 0 -65 18t-37.5 44t-19 52.5t-16 44.5t-22.5 18
q-17 0 -32.5 -18t-29 -65.5t-18.5 -120.5q42 31 106 31zM344 67q45 0 45 72q0 82 -24 168t-69 86q-51 0 -51 -80q3 -64 13 -117t32.5 -91t53.5 -38z" />
    <glyph glyph-name="seven" unicode="7" horiz-adv-x="550" 
d="M520 710q13 0 20.5 -7t7.5 -18v-15q0 -15 -16 -61l-209 -577q-12 -32 -49 -32h-127q-22 0 -31 17t-1 32l266 503h-216q-20 0 -35.5 -13.5t-23.5 -30t-21.5 -30t-29.5 -13.5h-17q-14 0 -22 8.5t-6 22.5l20 181q4 33 37 33h453z" />
    <glyph glyph-name="eight" unicode="8" horiz-adv-x="623" 
d="M442 380q50 -28 78 -48t52.5 -56t24.5 -79q0 -57 -24 -99t-65.5 -64.5t-90 -33t-105.5 -10.5q-76 0 -134 16t-89.5 42.5t-46.5 55t-15 57.5q0 36 14.5 66t40.5 52t50 36t55 28q-66 42 -102 81t-36 91q0 98 72.5 151t198.5 53q121 0 180 -53.5t59 -131.5q0 -96 -117 -154z
M309 647q-27 0 -43 -16.5t-16 -39.5q0 -85 87 -148q41 51 41 123q0 33 -16.5 57t-52.5 24zM318 67q33 0 55.5 20t22.5 47q0 47 -33 84t-93 75q-54 -67 -54 -132q0 -48 30.5 -71t71.5 -23z" />
    <glyph glyph-name="nine" unicode="9" horiz-adv-x="621" 
d="M300 720q126 0 208.5 -96t82.5 -250q0 -82 -17 -149.5t-52 -121t-95 -83.5t-140 -30q-95 0 -170 47t-75 113q0 44 28 69t70 25q32 0 55 -13t35 -33t21.5 -42.5t14.5 -42.5t14 -33t21 -13q64 0 74 219q-41 -32 -107 -32q-44 0 -83.5 11.5t-74.5 36.5t-56 71t-21 108
q0 110 77 174.5t190 64.5zM324 331q48 0 51 70q-5 101 -29.5 171.5t-69.5 70.5t-45 -72q0 -34 5 -72.5t15.5 -77.5t29.5 -64.5t43 -25.5z" />
    <glyph glyph-name="colon" unicode=":" horiz-adv-x="306" 
d="M153 282q-51 0 -84 26.5t-33 77.5t33 77.5t84 26.5t84 -26.5t33 -77.5t-33 -77.5t-84 -26.5zM153 -10q-51 0 -84 26.5t-33 77.5t33 77.5t84 26.5t84 -26.5t33 -77.5t-33 -77.5t-84 -26.5z" />
    <glyph glyph-name="semicolon" unicode=";" horiz-adv-x="304" 
d="M153 282q-51 0 -84 26.5t-33 77.5t33 77.5t84 26.5t84 -26.5t33 -77.5t-33 -77.5t-84 -26.5zM104 -156q-19 -11 -34.5 5.5t-0.5 31.5q24 25 32.5 34t16.5 23t9 28q2 24 -14 24q-32 0 -55 29t-23 73q0 53 30.5 85.5t81.5 32.5q48 0 83 -36t35 -98q0 -137 -161 -232z" />
    <glyph glyph-name="less" unicode="&#x3c;" 
d="M476 384q0 -20 -26 -28l-227 -74l227 -98q26 -11 26 -29v-116q0 -10 -8.5 -15.5t-25.5 1.5l-308 156q-27 13 -27 39v125q0 26 29 38l306 127q16 7 25 0.5t9 -16.5v-110z" />
    <glyph glyph-name="equal" unicode="=" 
d="M98 326q-26 0 -26 20v85q0 9 7.5 15t18.5 6h403q11 0 18.5 -6t7.5 -15v-85q0 -20 -26 -20h-403zM98 129q-26 0 -26 20v85q0 9 7.5 15t18.5 6h403q11 0 18.5 -6t7.5 -15v-85q0 -20 -26 -20h-403z" />
    <glyph glyph-name="greater" unicode="&#x3e;" 
d="M464 383q29 -12 29 -38v-127q0 -26 -27 -39l-308 -156q-17 -7 -25.5 -1.5t-8.5 15.5v116q0 18 26 29l236 98l-236 74q-26 8 -26 28v112q0 10 9 16.5t25 -0.5z" />
    <glyph glyph-name="question" unicode="?" horiz-adv-x="592" 
d="M204 250q-11 29 -5 57t22.5 47.5t39 43t43 44t34.5 50t14 61.5q0 44 -15.5 67t-37.5 23q-21 0 -35 -20.5t-23 -49.5t-21 -57.5t-37 -49t-62 -20.5q-42 0 -70 25t-28 69q0 74 81.5 127t186.5 53q122 0 199 -47.5t77 -145.5q0 -46 -23 -82.5t-55.5 -59t-65 -42.5t-55.5 -43
t-23 -50q0 -19 -32 -28t-66.5 -1.5t-42.5 29.5zM276 -14q-48 0 -80 25.5t-32 73.5q0 49 32 74t80 25t80 -25t32 -74q0 -48 -32 -73.5t-80 -25.5z" />
    <glyph glyph-name="at" unicode="@" horiz-adv-x="908" 
d="M485 733q184 0 302 -100.5t118 -256.5q0 -94 -64.5 -165.5t-177.5 -71.5q-40 0 -76.5 18t-57.5 47q-42 -65 -128 -65q-66 0 -117 45t-51 124q0 111 67.5 172.5t161.5 61.5q61 0 94 -35l1 3q3 20 23 20h96q25 0 20 -24l-39 -220q-11 -63 34 -63q46 0 71 43.5t25 108.5
q0 135 -89 204.5t-236 69.5q-126 0 -224.5 -100t-98.5 -244q0 -123 76 -200t194 -77q68 0 149 29q17 6 23 -2.5t0 -23.5l-10 -27q-7 -20 -29 -30q-62 -28 -149 -28q-157 0 -264.5 106t-107.5 256q0 77 31 152t88 136t147 99t198 38zM443 192q19 0 39 27t27 63v2l22 121
q2 44 -2 64t-19 20q-31 0 -60.5 -65t-34.5 -162q-2 -32 6 -51t22 -19z" />
    <glyph glyph-name="A" unicode="A" horiz-adv-x="721" 
d="M24 0q-25 0 -25 21v4q0 15 25 40t36 55l178 461q9 24 -16 60t-25 44v4q0 21 25 21h259q25 0 25 -21v-4q0 -9 -14.5 -24.5t-24 -35t-0.5 -40.5l199 -465q12 -28 36.5 -53.5t24.5 -41.5v-4q0 -21 -25 -21h-291q-25 0 -25 21v4q0 10 9.5 21t20 19.5t16.5 23t0 31.5l-16 46
h-234l-16 -46q-6 -17 0 -31.5t16.5 -23t20 -19.5t9.5 -21v-4q0 -21 -25 -21h-163zM212 250h176l-86 253z" />
    <glyph glyph-name="B" unicode="B" horiz-adv-x="702" 
d="M503 382q84 -13 133 -61.5t49 -119.5q0 -93 -85.5 -147t-267.5 -54h-271q-25 0 -25 21v4q0 13 20.5 40.5t20.5 54.5v470q0 27 -20.5 54.5t-20.5 40.5v4q0 21 25 21h291q132 0 197 -50.5t65 -130.5q0 -55 -30 -94t-81 -53zM280 576v-107q0 -26 16 -41t43 -15h34
q30 0 48.5 23.5t18.5 63.5q0 62 -26 97t-69 35h-13q-52 0 -52 -56zM398 78q31 0 51 26.5t20 66.5q0 59 -45.5 112t-122.5 53h-21v-163q0 -41 23 -68t61 -27h34z" />
    <glyph glyph-name="C" unicode="C" horiz-adv-x="671" 
d="M367 -10q-100 0 -180 53t-122 138t-42 184q0 153 91.5 253.5t241.5 100.5q120 0 207.5 -54.5t87.5 -137.5q0 -40 -25 -64.5t-69 -24.5q-38 0 -67.5 21t-48 50.5t-35 59t-39.5 50.5t-51 21q-39 0 -67 -39.5t-28 -109.5q0 -140 64.5 -228.5t150.5 -88.5q18 0 33.5 2.5
t30 10t23.5 12t21.5 16.5t17 16t16 18t12.5 15q15 18 37 12t22 -31q0 -105 -72 -180t-210 -75z" />
    <glyph glyph-name="D" unicode="D" horiz-adv-x="777" 
d="M61 0q-25 0 -25 21v4q0 13 20.5 40.5t20.5 54.5v470q0 27 -20.5 54.5t-20.5 40.5v4q0 21 25 21h242q219 0 335 -98.5t116 -263.5q0 -154 -108 -251t-291 -97h-294zM378 78h30q58 0 94 43t36 128q0 150 -59 266.5t-146 116.5h-3q-50 0 -50 -52v-387q0 -55 25.5 -85
t72.5 -30z" />
    <glyph glyph-name="E" unicode="E" horiz-adv-x="628" 
d="M61 0q-25 0 -25 21v4q0 13 20.5 40.5t20.5 54.5v470q0 27 -20.5 54.5t-20.5 40.5v4q0 21 25 21h466q18 0 26 -7.5t11 -25.5l24 -134q2 -14 -6 -22.5t-22 -8.5h-6q-21 0 -42 19t-36.5 41.5t-39.5 41.5t-49 19h-56q-50 0 -50 -52v-182h85q20 0 35 13.5t22.5 29.5t17.5 29.5
t20 13.5h10q21 0 21 -25v-195q0 -25 -21 -25h-10q-10 0 -20 12.5t-17.5 28t-22.5 28t-35 12.5h-85v-164q0 -32 15.5 -56t50.5 -24h72q25 0 47 20t35.5 44.5t33.5 44.5t42 20h10q13 0 19.5 -10.5t4.5 -22.5l-22 -138q-3 -19 -11 -27t-26 -8h-491z" />
    <glyph glyph-name="F" unicode="F" horiz-adv-x="614" 
d="M61 0q-25 0 -25 21v4q0 13 20.5 40.5t20.5 54.5v470q0 27 -20.5 54.5t-20.5 40.5v4q0 21 25 21h482q18 0 26 -8t11 -26l24 -134q2 -14 -6 -22.5t-22 -8.5h-6q-21 0 -42 19t-36.5 41.5t-39.5 41.5t-49 19h-68q-50 0 -50 -52v-208h94q21 0 38 22t31 43.5t26 21.5h10
q21 0 21 -25v-195q0 -25 -21 -25h-10q-12 0 -26 20t-31 40.5t-38 20.5h-94v-175q0 -27 23 -54.5t23 -40.5v-4q0 -21 -25 -21h-245z" />
    <glyph glyph-name="G" unicode="G" horiz-adv-x="715" 
d="M677 369q25 0 25 -21v-4q0 -13 -23 -40.5t-23 -54.5v-229q0 -12 -8 -21t-20 -9q-19 0 -32 12l-44 43q-33 -25 -81.5 -40t-90.5 -15q-165 0 -261 106.5t-96 258.5q0 110 51 195t127 127t160 42q129 0 214 -51.5t85 -133.5q0 -41 -24.5 -66t-65.5 -25q-48 0 -87 31
t-60.5 67.5t-51 67.5t-60.5 31q-42 0 -66 -41.5t-24 -107.5q0 -146 62.5 -249.5t151.5 -103.5q18 0 30 3v109q0 27 -26.5 54.5t-26.5 40.5v4q0 9 8 15t20 6z" />
    <glyph glyph-name="H" unicode="H" horiz-adv-x="801" 
d="M61 0q-25 0 -25 21v4q0 13 20.5 40.5t20.5 54.5v470q0 27 -20.5 54.5t-20.5 40.5v4q0 21 25 21h243q25 0 25 -21v-4q0 -13 -22.5 -40.5t-22.5 -54.5v-190h228l1 190q0 27 -20 54.5t-20 40.5v4q0 21 24 21h243q25 0 25 -21v-4q0 -13 -23 -40.5t-23 -54.5v-470
q0 -27 23 -54.5t23 -40.5v-4q0 -21 -25 -21h-243q-24 0 -24 21v4q0 13 20 40.5t20 54.5l-1 194h-228l-1 -194q0 -27 23 -54.5t23 -40.5v-4q0 -21 -25 -21h-243z" />
    <glyph glyph-name="I" unicode="I" horiz-adv-x="364" 
d="M36 21v4q0 13 20.5 40.5t20.5 54.5v470q0 27 -20.5 54.5t-20.5 40.5v4q0 21 25 21h242q25 0 25 -21v-4q0 -13 -23 -40.5t-23 -54.5v-470q0 -27 23 -54.5t23 -40.5v-4q0 -21 -25 -21h-242q-25 0 -25 21z" />
    <glyph glyph-name="J" unicode="J" horiz-adv-x="587" 
d="M313 590q0 27 -20.5 54.5t-20.5 40.5v4q0 21 25 21h245q25 0 25 -21v-4q0 -13 -23 -40.5t-23 -54.5v-255q0 -182 -65.5 -262.5t-195.5 -82.5q-73 -1 -125.5 17t-78.5 48t-37.5 60.5t-11.5 62.5q0 44 25 71.5t66 27.5q42 0 66.5 -21.5t33 -52t14.5 -61t18.5 -52
t36.5 -21.5q46 0 46 136v385z" />
    <glyph glyph-name="K" unicode="K" horiz-adv-x="742" 
d="M694 154q6 -37 34.5 -76.5t28.5 -52.5v-4q0 -21 -25 -21h-275q-25 0 -25 21v4q0 12 12 24.5t24 29.5t12 41q-1 52 -39 118.5t-89 99.5l-69 -71v-147q0 -27 23 -54.5t23 -40.5v-4q0 -21 -25 -21h-243q-25 0 -25 21v4q0 13 20.5 40.5t20.5 54.5v470q0 27 -20.5 54.5
t-20.5 40.5v4q0 21 25 21h243q25 0 25 -21v-4q0 -13 -23 -40.5t-23 -54.5v-201l193 201q14 14 16 28t-3.5 23t-12 22t-6.5 22v4q0 21 25 21h179q25 0 25 -21v-4q0 -14 -14.5 -26.5t-41.5 -31t-45 -37.5l-111 -114q87 -54 140.5 -148t66.5 -174z" />
    <glyph glyph-name="L" unicode="L" horiz-adv-x="617" 
d="M61 0q-25 0 -25 21v4q0 13 20.5 40.5t20.5 54.5v470q0 27 -20.5 54.5t-20.5 40.5v4q0 21 25 21h245q25 0 25 -21v-4q0 -13 -23 -40.5t-23 -54.5v-440q0 -30 13 -51t40 -21h72q31 0 56 23.5t38.5 51.5t30.5 51.5t34 23.5h15q13 0 19 -7.5t4 -19.5l-27 -166
q-3 -19 -11.5 -27t-25.5 -8h-482z" />
    <glyph glyph-name="M" unicode="M" horiz-adv-x="903" 
d="M854 120q5 -25 23 -52.5t18 -42.5v-4q0 -21 -25 -21h-231q-25 0 -25 21v4q0 12 20 40t16 55l-53 306l-140 -394q-10 -31 -39 -31q-32 0 -45 30l-168 416l-46 -327q-4 -27 16 -55t20 -40v-4q0 -21 -25 -21h-133q-25 0 -25 21v4q0 15 18.5 42t22.5 53l71 470q4 27 -18.5 55
t-22.5 40v4q0 21 25 21h240q25 0 25 -21v-4q0 -6 -19 -38.5t-10 -59.5l103 -301l101 311q7 23 -15.5 52t-22.5 36v4q0 21 25 21h246q25 0 25 -21v-4q0 -12 -23 -40t-18 -55z" />
    <glyph glyph-name="N" unicode="N" horiz-adv-x="762" 
d="M711 710q25 0 25 -21v-4q0 -13 -23 -40.5t-23 -54.5v-538q0 -52 -52 -52h-65q-31 0 -58 35l-338 443v-358q0 -27 24 -54.5t24 -40.5v-4q0 -21 -25 -21h-139q-25 0 -25 21v4q0 13 20.5 40.5t20.5 54.5v470q0 27 -20.5 54.5t-20.5 40.5v4q0 21 25 21h258q25 0 25 -21v-4
q0 -7 -7.5 -18t-15 -21t-7.5 -25.5t12 -31.5l264 -350v351q0 27 -22.5 54.5t-22.5 40.5v4q0 21 25 21h141z" />
    <glyph glyph-name="O" unicode="O" horiz-adv-x="754" 
d="M376 -10q-142 0 -247.5 100t-105.5 260q0 166 97 268t256 102q144 0 249.5 -104t105.5 -266t-102 -261t-253 -99zM436 74q83 0 83 112q0 76 -32 181.5t-84 187t-101 81.5q-81 0 -81 -115q0 -88 31.5 -193t83 -179.5t100.5 -74.5z" />
    <glyph glyph-name="P" unicode="P" horiz-adv-x="662" 
d="M61 0q-25 0 -25 21v4q0 13 20.5 40.5t20.5 54.5v470q0 27 -20.5 54.5t-20.5 40.5v4q0 21 25 21h266q147 0 233.5 -59t86.5 -180q0 -112 -78.5 -181t-206.5 -69h-77v-101q0 -27 23 -54.5t23 -40.5v-4q0 -21 -25 -21h-245zM334 298h28q36 0 53.5 36.5t17.5 88.5
q0 90 -33.5 150t-72.5 60h-3q-39 0 -39 -52v-231q0 -52 49 -52z" />
    <glyph glyph-name="Q" unicode="Q" horiz-adv-x="754" 
d="M810 -21q14 0 19.5 -9.5t5.5 -30.5q0 -19 -9 -40t-28.5 -43.5t-58 -37t-89.5 -14.5q-94 0 -169.5 47t-147.5 142q-130 16 -220 113t-90 244q0 166 97 268t256 102q144 0 249.5 -104t105.5 -266q0 -134 -71.5 -226.5t-186.5 -121.5q83 -58 181 -58q57 0 105 17.5t51 17.5z
M302 636q-81 0 -81 -115q0 -88 31.5 -193t83 -179.5t100.5 -74.5q83 0 83 112q0 76 -32 181.5t-84 187t-101 81.5z" />
    <glyph glyph-name="R" unicode="R" horiz-adv-x="714" 
d="M663 111q1 -20 22 -45.5t21 -40.5v-4q0 -21 -25 -21h-234q-25 0 -25 21v4q0 15 15.5 36.5t15.5 40.5q0 125 -76 167l-92 -1v-148q0 -27 23 -54.5t23 -40.5v-4q0 -21 -25 -21h-245q-25 0 -25 21v4q0 13 20.5 40.5t20.5 54.5v470q0 27 -20.5 54.5t-20.5 40.5v4q0 21 25 21
h286q142 0 222.5 -58.5t80.5 -169.5q0 -43 -27 -88.5t-73 -77.5q107 -69 113 -205zM354 344h18q27 0 45.5 29.5t18.5 88.5q0 72 -33.5 121t-71.5 49h-5q-18 0 -29.5 -16t-11.5 -40v-144q0 -47 17 -67.5t52 -20.5z" />
    <glyph glyph-name="S" unicode="S" horiz-adv-x="642" 
d="M334 -10q-131 0 -219.5 54.5t-88.5 128.5q0 80 80 80q32 0 55 -19.5t39 -47.5t32.5 -56t44 -47.5t65.5 -19.5q37 0 57.5 18t20.5 50q0 36 -21 61.5t-55 40t-75 27t-81.5 29t-74.5 40t-55.5 66.5t-21.5 102q0 100 76.5 161t200.5 61q121 0 208 -55t86 -128
q0 -38 -21.5 -60t-63.5 -22q-37 0 -62.5 20t-39.5 48t-27.5 56.5t-34 48.5t-49.5 20q-38 0 -57 -20.5t-19 -54.5q0 -43 21 -73t54.5 -46.5t74.5 -29.5t81.5 -29t74 -37.5t54.5 -61t21 -95.5q0 -98 -80.5 -154t-199.5 -56z" />
    <glyph glyph-name="T" unicode="T" horiz-adv-x="650" 
d="M203 0q-24 0 -24 21v4q0 13 22 40.5t22 54.5v506h-30q-24 0 -44.5 -19.5t-32 -42.5t-27.5 -42.5t-33 -19.5h-19q-14 0 -22 8.5t-6 22.5l20 144q4 33 37 33h518q33 0 37 -33l20 -144q2 -14 -6 -22.5t-22 -8.5h-19q-17 0 -33 19.5t-27.5 42.5t-32 42.5t-44.5 19.5h-30v-506
q0 -27 22.5 -54.5t22.5 -40.5v-4q0 -21 -25 -21h-244z" />
    <glyph glyph-name="U" unicode="U" horiz-adv-x="769" 
d="M697 117q0 -28 6.5 -42.5t14.5 -16t14.5 -8t6.5 -20.5q0 -36 -114 -36q-54 0 -77 19.5t-27 73.5q-52 -97 -207 -97q-114 0 -181.5 70t-67.5 199v309q0 27 -20.5 53.5t-20.5 37.5v4q0 9 7 16.5t18 8.5l176 22q53 6 53 -23l-4 -459q-1 -79 26 -122t73 -43q65 0 95 49
t30 124v332q0 27 -25.5 53.5t-25.5 37.5v4q0 8 11.5 15.5t23.5 9.5l166 22q49 6 49 -23v-570z" />
    <glyph glyph-name="V" unicode="V" horiz-adv-x="733" 
d="M714 710q25 0 25 -21v-4q0 -15 -24 -40t-37 -55l-225 -534q-23 -56 -80 -56q-50 0 -74 52l-250 538q-12 26 -36.5 52.5t-24.5 42.5v4q0 21 25 21h300q25 0 25 -21v-4q0 -12 -16 -26.5t-27 -31t-3 -37.5l141 -358l136 358q7 17 1 31.5t-16.5 23t-20.5 19.5t-10 21v4
q0 21 25 21h166z" />
    <glyph glyph-name="W" unicode="W" horiz-adv-x="1000" 
d="M980 710q25 0 25 -21v-4q0 -15 -26 -40t-38 -55l-219 -534q-23 -56 -67 -56q-53 0 -74 52l-60 155l-65 -151q-24 -56 -75 -56q-56 0 -80 52l-246 538q-13 28 -40.5 54t-27.5 41v4q0 21 25 21h260q25 0 25 -21v-4q0 -12 -13.5 -27t-21.5 -27.5t0 -40.5l158 -379l52 122
l-100 257q-11 29 -33.5 54.5t-22.5 40.5v4q0 21 25 21h164q26 0 34 -24l35 -107l45 108q9 23 35 23h94q25 0 25 -21v-4q0 -13 -15.5 -21.5t-36.5 -23t-31 -38.5l-70 -162l67 -202l144 352q8 20 -1.5 37t-24 31.5t-14.5 26.5v4q0 21 25 21h164z" />
    <glyph glyph-name="X" unicode="X" horiz-adv-x="743" 
d="M663 120q15 -21 37 -39.5t33.5 -30.5t11.5 -25v-4q0 -21 -25 -21h-301q-25 0 -25 21v4q0 11 13.5 28.5t19 29.5t-7.5 37l-105 146l-93 -146q-12 -25 -8.5 -37t14 -29.5t10.5 -28.5v-4q0 -21 -25 -21h-185q-25 0 -25 21v4q0 13 14.5 25.5t38 31t38.5 38.5l163 227
l-175 243q-16 22 -37.5 40.5t-32.5 30t-11 24.5v4q0 21 25 21h296q25 0 25 -21v-4q0 -12 -13.5 -29.5t-19.5 -29.5t7 -36l106 -145l94 145q11 24 3.5 36.5t-22.5 29.5t-15 29v4q0 21 25 21h204q25 0 25 -21v-4q0 -13 -16.5 -25.5t-42.5 -30.5t-41 -39l-156 -225z" />
    <glyph glyph-name="Y" unicode="Y" horiz-adv-x="705" 
d="M676 710q25 0 25 -21v-4q0 -16 -27.5 -41.5t-42.5 -53.5l-162 -296v-174q0 -27 23 -54.5t23 -40.5v-4q0 -21 -25 -21h-245q-25 0 -25 21v4q0 13 20.5 40.5t20.5 54.5v154l-195 316q-13 21 -32 39.5t-29.5 30.5t-10.5 25v4q0 21 25 21h305q25 0 25 -21v-4q0 -12 -17 -27
t-28.5 -31.5t-0.5 -36.5l116 -215l115 215q11 21 0 38t-28 31t-17 26v4q0 21 25 21h162z" />
    <glyph glyph-name="Z" unicode="Z" horiz-adv-x="640" 
d="M607 218q32 0 25 -31l-32 -162q-5 -25 -25 -25h-533q-11 0 -19.5 7.5t-8.5 17.5v15q0 6 4 14t11 18t9 13l320 548h-152q-20 0 -39.5 -20t-34 -44.5t-36 -44.5t-43.5 -20h-6q-40 0 -31 41l29 132q4 18 12 25.5t25 7.5h505q11 0 18 -7t7 -18v-15q0 -5 -29 -56l-306 -537
h148q28 0 54.5 22t43.5 48.5t39 48.5t41 22h4z" />
    <glyph glyph-name="bracketleft" unicode="[" horiz-adv-x="333" 
d="M88 -106q-26 0 -26 26v834q0 26 26 26h200q22 0 22 -22v-42q0 -22 -22 -22h-62v-714h62q22 0 22 -22v-42q0 -22 -22 -22h-200z" />
    <glyph glyph-name="backslash" unicode="\" horiz-adv-x="393" 
d="M292 -90q-22 0 -28 17l-243 836q-9 29 17 29h63q24 0 28 -17l244 -836q9 -29 -17 -29h-64z" />
    <glyph glyph-name="bracketright" unicode="]" horiz-adv-x="333" 
d="M45 -106q-22 0 -22 22v42q0 22 22 22h62v714h-62q-22 0 -22 22v42q0 22 22 22h200q26 0 26 -26v-834q0 -26 -26 -26h-200z" />
    <glyph glyph-name="asciicircum" unicode="^" 
d="M488 550q23 -29 4 -53.5t-50 -3.5l-154 108l-136 -108q-11 -9 -27.5 -3t-22 21.5t8.5 38.5l110 157q15 22 52 22h39q36 0 52 -21z" />
    <glyph glyph-name="underscore" unicode="_" horiz-adv-x="444" 
d="M50 -88q-25 0 -25 25v38q0 25 25 25h344q25 0 25 -25v-38q0 -25 -25 -25h-344z" />
    <glyph glyph-name="grave" unicode="`" 
d="M350 536l-209 47q-23 5 -30 22.5t4 37.5l37 77q10 21 27.5 25.5t38.5 -11.5l170 -137q23 -20 7 -46q-14 -22 -45 -15z" />
    <glyph glyph-name="a" unicode="a" horiz-adv-x="609" 
d="M586 429q0 -8 -11.5 -20.5t-23 -32t-11.5 -45.5v-211q0 -27 20.5 -54.5t20.5 -40.5v-4q0 -21 -25 -21h-158q-27 0 -29 26q-44 -36 -113 -36q-97 0 -167 65.5t-70 184.5q0 109 70.5 179.5t166.5 70.5q70 0 113 -35q5 34 52 27l138 -18q27 -3 27 -31v-4zM301 43
q21 -1 34 17t13 49v206q0 57 -22.5 89.5t-52.5 32.5q-55 0 -60 -104q-2 -38 5.5 -102.5t29.5 -125t53 -62.5z" />
    <glyph glyph-name="b" unicode="b" horiz-adv-x="607" 
d="M351 490q58 0 110.5 -24.5t89.5 -81t37 -135.5q0 -116 -70.5 -187.5t-166.5 -71.5q-70 0 -113 38q0 -28 -29 -28h-168q-25 0 -25 21v4q0 13 20.5 40.5t20.5 54.5v427q0 21 -13 37t-26 28.5t-13 24.5v4q0 10 6 16.5t24 14.5l174 80q20 11 36 4t16 -29v-259q35 22 90 22z
M334 43q56 0 56 104q0 57 -6.5 118t-27.5 116.5t-52 55.5q-43 0 -43 -79v-203q0 -43 22.5 -77.5t50.5 -34.5z" />
    <glyph glyph-name="c" unicode="c" horiz-adv-x="509" 
d="M279 -10q-117 0 -189 75t-72 175q0 114 74 181.5t180 68.5q93 1 155.5 -41t62.5 -114q0 -28 -20 -46.5t-62 -16.5q-31 2 -54 20t-35.5 41.5t-22.5 47.5t-23 40t-30 15q-23 -1 -37.5 -28t-14.5 -67q0 -96 42.5 -154t113.5 -58q61 0 104 49q11 12 25.5 8t14.5 -21
q0 -73 -55 -124t-157 -51z" />
    <glyph glyph-name="d" unicode="d" horiz-adv-x="596" 
d="M541 120q0 -27 20.5 -54.5t20.5 -40.5v-4q0 -21 -25 -21h-159q-27 0 -29 26q-44 -36 -113 -36q-97 0 -167 65.5t-70 184.5q0 109 70.5 179.5t166.5 70.5q56 0 92 -21v113q0 17 -9 30t-19 20.5t-19 17.5t-9 20v3q0 22 25 29l176 52q48 14 48 -26v-608zM301 43q21 -1 34 17
t13 49v206q0 47 -23.5 84.5t-51.5 37.5q-55 0 -60 -104q-2 -38 5.5 -102.5t29.5 -125t53 -62.5z" />
    <glyph glyph-name="e" unicode="e" horiz-adv-x="500" 
d="M442 162q11 12 25 7t14 -22q0 -52 -53 -104.5t-154 -52.5q-112 0 -183.5 70t-71.5 183q0 109 73.5 177.5t176.5 69.5q93 1 149 -40.5t56 -107.5q0 -52 -44.5 -92.5t-115.5 -50.5q-40 -6 -79 -6q40 -63 110 -63q65 0 97 32zM247 432q-22 0 -35.5 -26t-13.5 -69
q0 -49 12 -89q13 0 17 1q66 10 66 110q0 31 -13.5 52t-32.5 21z" />
    <glyph glyph-name="f" unicode="f" horiz-adv-x="401" 
d="M264 677q-34 0 -36 -43.5t15 -90.5t33 -63h107q11 0 18 -7t7 -18v-25q0 -10 -7 -17.5t-18 -7.5h-101v-285q0 -21 14 -38t28 -31t14 -26v-4q0 -21 -25 -21h-241q-25 0 -25 21v4q0 13 20.5 40.5t20.5 54.5v285h-61q-11 0 -18 7.5t-7 17.5v25q0 11 7 18t18 7h61v40
q0 93 54 151.5t164 58.5q70 0 119 -40t49 -95q0 -26 -19 -46.5t-54 -20.5q-42 0 -64.5 23.5t-26.5 51t-14.5 51t-31.5 23.5z" />
    <glyph glyph-name="g" unicode="g" horiz-adv-x="599" 
d="M561 464q27 -3 27 -31v-4q0 -8 -11.5 -20.5t-23 -32t-11.5 -45.5v-263q0 -129 -74 -198t-185 -69q-113 0 -185 36t-72 95q0 29 20 51.5t57 22.5q30 0 52 -15.5t35 -38t25 -44.5t29 -38t39 -17q29 -1 48 35.5t19 117.5v16q-39 -22 -92 -22q-97 0 -167 64t-70 176
q0 109 70.5 179.5t166.5 70.5q70 0 113 -35q5 34 52 27zM303 53q21 -1 34 17t13 49v196q0 47 -23.5 84.5t-51.5 37.5q-55 0 -60 -104q-4 -69 19.5 -173t68.5 -107z" />
    <glyph glyph-name="h" unicode="h" horiz-adv-x="617" 
d="M572 120q2 -26 19 -53.5t17 -41.5v-4q0 -21 -25 -21h-221q-25 0 -25 21v4q0 13 19 40.5t17 54.5l-10 182q-4 64 -15.5 89.5t-39.5 25.5q-49 0 -49 -86v-211q0 -27 23 -54.5t23 -40.5v-4q0 -21 -25 -21h-241q-25 0 -25 21v4q0 13 23 40.5t23 54.5v437q0 21 -12.5 35.5
t-25.5 26t-13 23.5v4q0 19 25 31l178 78q19 8 30 2.5t11 -24.5v-282q44 39 115 39q73 0 127.5 -45.5t62.5 -149.5z" />
    <glyph glyph-name="i" unicode="i" horiz-adv-x="328" 
d="M169 529q-56 0 -91.5 32t-35.5 79t35.5 78.5t91.5 31.5t91.5 -31.5t35.5 -78.5t-35.5 -79t-91.5 -32zM49 0q-25 0 -25 21v4q0 13 20.5 40.5t20.5 54.5v161q0 27 -20.5 53.5t-20.5 37.5v4q0 13 25 25l171 84q22 10 35.5 2t13.5 -25v-342q0 -27 23 -54.5t23 -40.5v-4
q0 -21 -25 -21h-241z" />
    <glyph glyph-name="j" unicode="j" horiz-adv-x="308" 
d="M154 529q-56 0 -91.5 32t-35.5 79t35.5 78.5t91.5 31.5t91.5 -31.5t35.5 -78.5t-35.5 -79t-91.5 -32zM64 -203q-80 0 -126.5 28t-46.5 86q0 36 24 58.5t60 22.5q39 0 60 -21t25 -45.5t15 -45.5t31 -21q16 0 25.5 11t9.5 28q0 35 -19.5 60.5t-38.5 48.5t-19 50v224
q0 27 -20.5 53.5t-20.5 37.5v4q0 13 25 25l171 84q23 10 36 2t13 -25v-472q0 -86 -45 -131q-32 -32 -68 -47t-91 -15z" />
    <glyph glyph-name="k" unicode="k" horiz-adv-x="618" 
d="M575 91q4 -6 31.5 -27t27.5 -39v-4q0 -21 -25 -21h-230q-25 0 -25 22v4q0 13 15 32t6 33l-75 121q-18 -3 -39 -3v-89q0 -27 23 -54.5t23 -40.5v-4q0 -21 -25 -21h-241q-25 0 -25 21v4q0 13 20.5 40.5t20.5 54.5v429q0 27 -25.5 53.5t-25.5 37.5v4q0 13 25 25l181 84
q22 9 35.5 1t13.5 -24v-442q42 5 67 27.5t36.5 51t22 56.5t32 47t57.5 19q43 0 65 -23t22 -60q0 -36 -28 -74.5t-78 -67.5z" />
    <glyph glyph-name="l" unicode="l" horiz-adv-x="321" 
d="M41 0q-25 0 -25 21v4q0 13 20.5 40.5t20.5 54.5v429q0 27 -20.5 53.5t-20.5 37.5v4q0 13 25 25l171 84q22 10 35.5 2t13.5 -25v-610q0 -27 23 -54.5t23 -40.5v-4q0 -21 -25 -21h-241z" />
    <glyph glyph-name="m" unicode="m" horiz-adv-x="925" 
d="M880 119q2 -26 19 -53.5t17 -41.5v-4q0 -21 -25 -21h-221q-25 0 -25 21v4q0 13 19 40.5t17 54.5l-10 173q-4 69 -16 97t-38 28q-47 0 -47 -85q3 -19 3 -41v-172q0 -27 18 -54.5t18 -40.5v-4q0 -21 -25 -21h-221q-25 0 -25 21v4q0 13 18 40.5t18 54.5v186q0 112 -54 112
q-52 0 -52 -83v-215q0 -27 23 -54.5t23 -40.5v-4q0 -21 -25 -21h-241q-25 0 -25 21v4q0 13 23 40.5t23 54.5v169q0 21 -14 36.5t-28 28t-14 24.5v4q0 15 26 27l169 78q19 9 30 0t11 -26v-27q47 57 128 57q110 0 162 -76q43 76 145 76q72 0 123 -47t60 -158z" />
    <glyph glyph-name="n" unicode="n" horiz-adv-x="627" 
d="M582 119q2 -26 19 -53.5t17 -41.5v-4q0 -21 -25 -21h-221q-25 0 -25 21v4q0 13 19 40.5t17 54.5l-10 173q-4 71 -15 98t-40 27q-49 0 -49 -86v-212q0 -27 23 -54.5t23 -40.5v-4q0 -21 -25 -21h-241q-25 0 -25 21v4q0 13 23 40.5t23 54.5v169q0 21 -14 36.5t-28 28
t-14 24.5v4q0 13 26 27l157 78q20 9 30.5 0.5t10.5 -26.5v-41q40 71 140 71q74 0 128 -47.5t63 -157.5z" />
    <glyph glyph-name="o" unicode="o" horiz-adv-x="593" 
d="M297 -10q-113 0 -196 70.5t-83 179.5t83 179.5t196 70.5q114 0 196 -70.5t82 -179.5t-82 -179.5t-196 -70.5zM321 44q28 0 37 25.5t9 79.5q0 36 -9.5 98.5t-35 125.5t-59.5 63q-27 0 -36 -25t-9 -82q0 -40 9.5 -102.5t35 -122.5t58.5 -60z" />
    <glyph glyph-name="p" unicode="p" horiz-adv-x="601" 
d="M344 490q58 0 110.5 -24.5t89.5 -81.5t37 -136q0 -116 -70 -187t-167 -71q-54 0 -90 21v-98q0 -27 23 -54.5t23 -40.5v-4q0 -21 -25 -21h-235q-25 0 -25 21v4q0 13 20.5 40.5t20.5 54.5v377q0 25 -25.5 47t-25.5 36v6q0 18 25 31l148 73q25 10 35.5 3.5t10.5 -24.5v-20
q37 48 120 48zM327 43q56 0 56 104q0 57 -6.5 118t-27.5 116.5t-52 55.5q-43 0 -43 -66v-186q0 -64 22 -103t51 -39z" />
    <glyph glyph-name="q" unicode="q" horiz-adv-x="597" 
d="M586 429q0 -8 -11.5 -20.5t-23 -32t-11.5 -45.5v-418q0 -27 20.5 -54.5t20.5 -40.5v-4q0 -21 -25 -21h-229q-25 0 -25 21v4q0 13 23 40.5t23 54.5v99q-39 -22 -92 -22q-97 0 -167 65.5t-70 184.5q0 109 70.5 179.5t166.5 70.5q70 0 113 -35q5 34 52 27l138 -18
q27 -3 27 -31v-4zM301 43q21 -1 34 17t13 49v206q0 57 -22.5 89.5t-52.5 32.5q-55 0 -60 -104q-2 -38 5.5 -102.5t29.5 -125t53 -62.5z" />
    <glyph glyph-name="r" unicode="r" horiz-adv-x="473" 
d="M380 490q43 0 68.5 -29.5t25.5 -75.5q0 -106 -86 -106q-35 0 -52.5 15.5t-20 34.5t-9.5 34.5t-22 15.5q-24 0 -24 -62v-197q0 -21 14 -38t28 -31t14 -26v-4q0 -21 -25 -21h-239q-25 0 -25 21v4q0 13 20.5 40.5t20.5 54.5v171q0 21 -12.5 35.5t-25.5 26t-13 23.5v4
q0 18 25 31l159 75q21 8 29.5 1t8.5 -25v-73q33 101 141 101z" />
    <glyph glyph-name="s" unicode="s" horiz-adv-x="489" 
d="M245 -9q-97 0 -160.5 31.5t-63.5 86.5q0 36 22 53.5t57 17.5q37 0 59.5 -22t29 -48.5t20 -48.5t36.5 -22q39 0 39 46q0 35 -26.5 56.5t-63.5 33t-74.5 26t-64 47.5t-26.5 86q0 69 60 112.5t157 43.5q95 0 155 -34.5t60 -86.5q0 -28 -22 -48t-54 -20q-30 0 -49 14.5
t-27 34.5t-14 40.5t-14.5 35t-23.5 14.5q-32 0 -32 -49q0 -38 25 -61.5t60.5 -36t71 -26.5t60.5 -45.5t25 -80.5q0 -66 -59 -108t-163 -42z" />
    <glyph glyph-name="t" unicode="t" horiz-adv-x="416" 
d="M237 -10q-79 0 -125.5 50.5t-46.5 143.5v221h-30q-11 0 -18 7.5t-7 17.5v25q0 25 25 25h14q49 0 86 28t48 74q7 28 30 28h27q13 0 21 -7.5t8 -20.5v-102h94q11 0 18 -7t7 -18v-25q0 -10 -7 -17.5t-18 -7.5h-94v-225q0 -21 11.5 -33.5t29.5 -12.5q36 0 63 32q12 13 26 9.5
t14 -18.5q0 -66 -47 -116.5t-129 -50.5z" />
    <glyph glyph-name="u" unicode="u" horiz-adv-x="604" 
d="M549 117q0 -28 6.5 -42.5t13.5 -16t13.5 -8t6.5 -20.5q0 -36 -114 -36q-49 0 -72 12t-28 40q-39 -56 -137 -56q-77 0 -132 51t-55 138v164q0 27 -20.5 53.5t-20.5 37.5v4q0 9 7 16.5t18 8.5l166 22q53 6 53 -23l-4 -304q-1 -53 11 -74t39 -21q21 0 35.5 24t14.5 62v194
q0 27 -20.5 53.5t-20.5 37.5v4q0 9 7 16.5t18 8.5l166 22q49 6 49 -23v-345z" />
    <glyph glyph-name="v" unicode="v" horiz-adv-x="552" 
d="M251 -10q-37 0 -68.5 9.5t-63 32.5t-50 71t-18.5 116v124q0 27 -20.5 53.5t-20.5 37.5v4q0 9 7 16.5t18 8.5l166 22q53 6 53 -23l-4 -304q-1 -53 11 -73.5t39 -21.5q53 -2 93.5 61t40.5 119q0 27 -16 47.5t-35 32t-35 35t-16 54.5q0 34 23 55.5t62 21.5q52 0 82.5 -39.5
t30.5 -111.5q0 -154 -76.5 -251t-202.5 -97z" />
    <glyph glyph-name="w" unicode="w" horiz-adv-x="824" 
d="M689 490q113 0 113 -152q0 -161 -70.5 -254.5t-188.5 -93.5q-97 0 -143 74q-53 -74 -157 -74q-34 0 -64 9.5t-61 32.5t-49 71t-18 116v124q0 27 -20.5 53.5t-20.5 37.5v4q0 9 7 16.5t18 8.5l166 22q53 6 53 -33l-4 -318q-1 -32 10 -51.5t30 -19.5q38 0 56.5 60t18.5 130
v90q0 27 -20.5 53.5t-20.5 37.5v4q0 9 7 16.5t18 8.5l152 22q53 8 53 -33l-4 -313q-2 -76 41 -76q46 0 80.5 62t34.5 118q0 27 -16 47.5t-35 32.5t-35 35.5t-16 54.5q0 34 23 55.5t62 21.5z" />
    <glyph glyph-name="x" unicode="x" horiz-adv-x="571" 
d="M497 120q11 -13 33 -33t33.5 -34t11.5 -28v-4q0 -21 -25 -21h-254q-11 0 -17.5 6t-6.5 16v4q0 9 10 18.5t18.5 17t7 23.5t-20.5 38l-45 53l-52 -61q-15 -18 -16.5 -32t5.5 -21.5t15 -17.5t8 -18v-4q0 -22 -25 -22h-159q-25 0 -25 21v4q0 14 12.5 26.5t38.5 32.5t42 36
l110 110l-112 130q-19 22 -41.5 41.5t-31 29.5t-8.5 24v4q0 21 25 21h256q11 0 17.5 -6t6.5 -16v-4q0 -9 -6 -22t-11.5 -23t-4.5 -24.5t12 -27.5l48 -57l52 57q17 25 12.5 37.5t-18.5 30.5t-14 29v4q0 22 25 22h135q25 0 25 -21v-4q0 -14 -10 -27t-31 -33.5t-33 -34.5
l-97 -115z" />
    <glyph glyph-name="y" unicode="y" horiz-adv-x="578" 
d="M492 485q49 6 49 -23v-394q0 -128 -82.5 -197.5t-202.5 -69.5q-90 0 -157 36.5t-67 103.5q0 31 21.5 52.5t57.5 21.5q32 0 53 -16.5t31.5 -40t19.5 -47.5t24 -40.5t37 -17.5q66 -2 67 177q-43 -30 -113 -30q-71 0 -125 49.5t-54 129.5v164q0 27 -20.5 53.5t-20.5 37.5v4
q0 9 7 16.5t18 8.5l166 22q53 6 53 -23l-4 -304q-1 -85 42 -85q21 0 36 22.5t15 53.5v194q0 27 -21 53.5t-21 37.5v4q0 9 7 16.5t18 8.5z" />
    <glyph glyph-name="z" unicode="z" horiz-adv-x="523" 
d="M491 168q33 0 24 -34l-31 -109q-7 -25 -25 -25h-410q-11 0 -19.5 7.5t-8.5 17.5v15q0 9 24 45l218 347h-57q-24 0 -46 -17t-36 -37t-34 -37t-40 -17h-7q-18 0 -24.5 12t-0.5 30l27 81q7 19 13.5 26t23.5 7h384q25 0 25 -19v-10q0 -11 -35 -67l-209 -336h62q28 0 54.5 19
t43.5 41t38 41t39 19h7z" />
    <glyph glyph-name="braceleft" unicode="{" horiz-adv-x="370" 
d="M331 -41q15 0 21.5 -18.5t0.5 -37.5t-22 -19q-108 0 -168 48t-61 164l-1 105q-1 55 -16 76t-44 21q-23 0 -33 19t-0.5 38t33.5 19q29 0 44 19.5t16 67.5l1 125q1 202 229 202q17 0 25.5 -19t2 -37.5t-27.5 -18.5q-35 0 -50.5 -24.5t-16.5 -94.5l-1 -118q-1 -65 -31 -98
t-68 -42q38 -9 67.5 -44.5t28.5 -105.5l-2 -99q-1 -78 14.5 -103t58.5 -25z" />
    <glyph glyph-name="bar" unicode="|" horiz-adv-x="250" 
d="M81 -90q-19 0 -19 26v748q0 25 20 27l84 -1q21 0 21 -26l1 -748q0 -12 -6.5 -19.5t-14.5 -6.5h-86z" />
    <glyph glyph-name="braceright" unicode="}" horiz-adv-x="371" 
d="M329 374q24 0 33.5 -19t-0.5 -38t-33 -19q-29 0 -44 -21t-16 -76l-1 -105q-1 -116 -61 -164t-168 -48q-16 0 -22 19t0.5 37.5t21.5 18.5q43 0 58.5 25t14.5 103l-2 99q-2 73 31 108.5t71 41.5q-38 6 -71 39t-34 101l-1 118q-1 70 -16.5 94.5t-50.5 24.5q-21 0 -27.5 18.5
t2 37.5t25.5 19q230 0 230 -202v-125q0 -48 15.5 -67.5t44.5 -19.5z" />
    <glyph glyph-name="asciitilde" unicode="~" 
d="M196 404q41 0 112 -28t105 -28q46 0 68 28q12 16 28 16h27q22 0 18 -23q-11 -73 -52 -111t-100 -38q-43 0 -111.5 29.5t-103.5 29.5q-45 0 -63 -29q-5 -8 -7.5 -11t-8 -5.5t-14.5 -2.5h-23q-19 0 -17 25q4 55 39.5 101.5t102.5 46.5z" />
    <glyph glyph-name="exclamdown" unicode="&#xa1;" horiz-adv-x="280" 
d="M140 302q-51 0 -84 26.5t-33 77.5t33 77.5t84 26.5t84 -26.5t33 -77.5t-33 -77.5t-84 -26.5zM241 -163q0 -43 -50.5 -60.5t-101 0.5t-50.5 61q0 66 16 179t46 220q5 19 38.5 19t39.5 -19q62 -200 62 -400z" />
    <glyph glyph-name="cent" unicode="&#xa2;" horiz-adv-x="551" 
d="M524 274q0 -65 -47.5 -119t-139.5 -63v-67q0 -27 -21 -27h-31q-21 0 -21 27v67q-106 14 -169.5 92.5t-63.5 172.5q0 119 65 190t168 81v70q0 26 21 26h31q21 0 21 -26v-70q76 -8 126 -46.5t50 -93.5q0 -31 -22.5 -53.5t-59.5 -22.5t-62.5 24.5t-36.5 53.5t-27.5 53
t-38.5 23q-42 -1 -42 -106q0 -98 38.5 -159.5t107.5 -61.5q61 0 104 49q10 12 30 7.5t20 -21.5z" />
    <glyph glyph-name="sterling" unicode="&#xa3;" horiz-adv-x="693" 
d="M613 184q13 18 34 14t21 -27q0 -72 -61 -130t-174 -58q-74 0 -154 51q-58 -44 -132 -44q-55 0 -83.5 29.5t-28.5 74.5t31.5 73.5t83.5 28.5q34 0 76 -10q1 7 1 21q0 35 -14 74h-136q-26 0 -26 18v49q0 19 26 19h87q-22 34 -31.5 50.5t-20.5 47.5t-11 61q0 97 79 150.5
t202 53.5q103 0 173 -36.5t70 -106.5q0 -33 -22.5 -58.5t-61.5 -25.5q-38 0 -62.5 15t-35 37t-18.5 44t-22 37t-36 15q-25 0 -39.5 -27t-14.5 -75q0 -72 29 -182h138q26 0 26 -19v-49q0 -18 -26 -18h-118q5 -35 5 -67q0 -30 -11 -66q64 -15 105 -15q49 0 94.5 17t57.5 34z
M142 53q36 0 59 35q-48 32 -66 32q-34 0 -34 -32q0 -15 12 -25t29 -10z" />
    <glyph glyph-name="currency" unicode="&#xa4;" horiz-adv-x="604" 
d="M548 174q20 -20 3 -36l-24 -25q-16 -16 -37 4l-53 54q-58 -35 -139 -35q-74 0 -131 33l-51 -52q-21 -20 -37 -4l-24 25q-17 16 3 36l48 48q-42 54 -42 124t43 124l-49 49q-20 20 -3 36l24 25q16 16 37 -4l53 -54q58 32 129 32q76 0 136 -34l56 56q21 21 37 3l24 -24
q16 -15 -3 -36l-51 -51q43 -52 43 -122q0 -69 -42 -122zM304 245q43 0 69.5 27.5t26.5 73.5q0 44 -26.5 71t-69.5 27q-44 0 -71.5 -27t-27.5 -71q0 -46 27.5 -73.5t71.5 -27.5z" />
    <glyph glyph-name="yen" unicode="&#xa5;" horiz-adv-x="745" 
d="M701 710q25 0 25 -21v-4q0 -16 -27.5 -41.5t-42.5 -53.5l-132 -242h80q26 0 26 -19v-29q0 -18 -26 -18h-110v-46h96q26 0 26 -19v-28q0 -19 -26 -19h-96v-50q0 -27 23 -54.5t23 -40.5v-4q0 -21 -25 -21h-245q-25 0 -25 21v4q0 13 20.5 40.5t20.5 54.5v50h-130
q-26 0 -26 19v28q0 19 26 19h130v38l-5 8h-140q-26 0 -26 18v29q0 19 26 19h99l-149 242q-13 21 -32 39.5t-29.5 30.5t-10.5 25v4q0 21 25 21h305q25 0 25 -21v-4q0 -12 -17 -27t-28.5 -31.5t-0.5 -36.5l116 -215l115 215q11 21 0 38t-28 31t-17 26v4q0 21 25 21h162z" />
    <glyph glyph-name="brokenbar" unicode="&#xa6;" horiz-adv-x="250" 
d="M81 364q-19 0 -19 26v293q0 25 20 27h84q21 0 21 -26l1 -294q0 -12 -6.5 -19.5t-14.5 -6.5h-86zM81 -90q-19 0 -19 26v303q0 25 20 27h84q21 0 21 -26l1 -304q0 -12 -6.5 -19.5t-14.5 -6.5h-86z" />
    <glyph glyph-name="section" unicode="&#xa7;" horiz-adv-x="660" 
d="M556 157q66 -45 66 -117q0 -85 -76.5 -140.5t-198.5 -55.5q-145 0 -230.5 45t-85.5 129q0 40 23.5 63.5t68.5 23.5q33 0 56.5 -18.5t38 -45.5t30 -54t41.5 -45.5t63 -18.5q32 0 50.5 15.5t18.5 41.5q0 38 -29 65t-72 40.5t-93.5 32.5t-93 40.5t-70.5 66t-27 107.5
q1 34 21.5 69t49.5 53q-58 50 -58 132q0 91 76.5 147t195.5 56q123 0 211.5 -53.5t88.5 -132.5q0 -41 -23.5 -65t-69.5 -24q-40 0 -67.5 20.5t-42.5 49.5t-28 58t-32 49.5t-46 20.5q-31 0 -46.5 -18t-15.5 -47q0 -44 21 -74.5t54 -46.5t73 -29t80.5 -27.5t73.5 -34.5
t54 -57.5t21 -91.5q0 -29 -19 -64.5t-52 -64.5zM231 357q0 -27 14 -48.5t41 -37t55 -26.5t67 -24q13 -4 19 -6q8 19 8 41q0 13 -3 25t-10.5 21.5t-14.5 17.5t-21 15.5t-23.5 12.5t-28 11.5t-28.5 9.5t-32 10t-32 10q-11 -15 -11 -32z" />
    <glyph glyph-name="dieresis" unicode="&#xa8;" 
d="M165 535q-50 0 -82 28.5t-32 71.5t32 71t82 28t81.5 -28t31.5 -71t-31.5 -71.5t-81.5 -28.5zM430 535q-50 0 -81.5 28.5t-31.5 71.5t31.5 71t81.5 28t82 -28t32 -71t-32 -71.5t-82 -28.5z" />
    <glyph glyph-name="copyright" unicode="&#xa9;" horiz-adv-x="867" 
d="M434 -62q-167 0 -286 119t-119 286t119 285.5t286 118.5q166 0 285 -118.5t119 -285.5t-118.5 -286t-285.5 -119zM434 27q122 0 207.5 93t85.5 223t-85.5 222.5t-207.5 92.5t-208 -92.5t-86 -222.5q0 -131 85.5 -223.5t208.5 -92.5zM438 116q-99 0 -165 67t-66 160
q0 95 67 159.5t167 63.5q81 -1 143 -43t62 -102q0 -25 -21.5 -44t-58.5 -19q-35 0 -56 24t-28 53t-20.5 53t-34.5 24q-47 0 -47 -105q0 -68 32.5 -110t93.5 -42q65 0 99 39q11 12 25.5 8t14.5 -21q0 -73 -57.5 -119t-149.5 -46z" />
    <glyph glyph-name="ordfeminine" unicode="&#xaa;" horiz-adv-x="445" 
d="M397 464q2 -18 8.5 -27.5t12.5 -10.5t10.5 -6.5t4.5 -18.5q-1 -35 -99 -35q-65 0 -74 31q-27 -34 -88 -34q-66 0 -105.5 27t-39.5 81q0 53 39 81.5t99 28.5q38 0 68 -15q-9 83 -17 96q-7 11 -24 11q-10 0 -17.5 -13t-13 -29t-23.5 -29t-46 -13q-26 0 -41 14t-15 37
q0 30 25 49t57.5 25t73.5 6q75 0 128 -39.5t62 -103.5zM220 413q12 0 19 8t6 20l-4 42q-3 21 -12.5 34t-22.5 13q-21 0 -21 -31q0 -39 9.5 -62.5t25.5 -23.5z" />
    <glyph glyph-name="guillemotleft" unicode="&#xab;" horiz-adv-x="541" 
d="M171 277q42 -35 70.5 -87.5t28.5 -86.5q0 -16 -24.5 -20t-40.5 14q-32 38 -90.5 78t-77.5 58q-13 13 -13 49.5t13 47.5q7 6 41.5 33.5t50 41t41 39t43.5 50.5q10 13 33.5 8t23.5 -20q0 -53 -26.5 -111t-72.5 -94zM409 277q42 -35 70.5 -87.5t28.5 -86.5q0 -16 -24.5 -20
t-40.5 14q-32 38 -90.5 78t-77.5 58q-13 13 -13 49.5t13 47.5q7 6 41.5 33.5t50 41t41 39t43.5 50.5q10 13 33.5 8t23.5 -20q0 -53 -26.5 -111t-72.5 -94z" />
    <glyph glyph-name="registered" unicode="&#xae;" horiz-adv-x="867" 
d="M434 747q166 0 285 -118.5t119 -285.5t-118.5 -286t-285.5 -119t-286 119t-119 286t119 285.5t286 118.5zM434 27q122 0 207.5 93t85.5 223t-85.5 222.5t-207.5 92.5t-208 -92.5t-86 -222.5q0 -131 85.5 -223.5t208.5 -92.5zM607 227q12 -23 28.5 -34t16.5 -19v-8
q0 -16 -14 -16h-163q-14 0 -14 12v12q0 6 7 13t9.5 13.5t-5.5 26.5l-39 75h-28v-73q0 -15 13.5 -31t13.5 -24v-12q0 -12 -15 -12h-157q-14 0 -14 12v12q0 8 12 24t12 31v263q0 15 -12 31t-12 24v2q0 12 14 12h183q89 0 138 -33.5t49 -98.5q0 -32 -19 -62t-55 -47zM405 388
q0 -37 29 -37h6q12 0 23 18.5t11 48.5q0 42 -11 67.5t-29 25.5h-3q-11 0 -18.5 -9t-7.5 -23v-91z" />
    <glyph glyph-name="macron" unicode="&#xaf;" 
d="M163 572q-26 0 -26 26v69q0 26 26 26h288q26 0 26 -26v-69q0 -26 -26 -26h-288z" />
    <glyph glyph-name="degree" unicode="&#xb0;" horiz-adv-x="412" 
d="M205 375q-83 0 -135 48t-52 118q0 74 52.5 124t135.5 50t135.5 -47.5t52.5 -117.5q0 -74 -53 -124.5t-136 -50.5zM206 427q32 0 52.5 34.5t20.5 84.5q0 48 -20.5 81t-52.5 33t-52.5 -33t-20.5 -81q0 -50 20.5 -84.5t52.5 -34.5z" />
    <glyph glyph-name="plusminus" unicode="&#xb1;" 
d="M258 170q-18 0 -18 27l-1 150h-150q-26 0 -28 20l1 82q0 20 27 20h150v150q0 26 19 28l83 -1q20 0 20 -27v-150l151 1q27 0 27 -20v-83q0 -19 -27 -19h-150v-151q0 -12 -6 -20t-14 -7h-84zM89 0q-27 0 -27 18v83q0 20 27 20h423q27 0 27 -20v-83q0 -18 -27 -18h-423z" />
    <glyph glyph-name="acute" unicode="&#xb4;" 
d="M177 536q-31 -7 -45 15q-16 26 7 46l170 137q21 16 38.5 11.5t27.5 -25.5l37 -77q11 -20 4 -37.5t-30 -22.5z" />
    <glyph glyph-name="paragraph" unicode="&#xb6;" horiz-adv-x="732" 
d="M396 -230q-120 -3 -195 59.5t-75 128.5q0 44 25 71.5t66 27.5q42 0 68.5 -21.5t38 -52t20.5 -61t23.5 -52t38.5 -21.5q32 0 49 28t17 108v639h-79v-381q0 -22 -22 -22l-125 -1q-94 -1 -158.5 69t-64.5 182q0 105 64.5 172t158.5 67h425q25 0 25 -21v-4q0 -13 -23 -40.5
t-23 -54.5v-505q0 -146 -70.5 -229.5t-183.5 -85.5z" />
    <glyph glyph-name="periodcentered" unicode="&#xb7;" horiz-adv-x="286" 
d="M143 282q-51 0 -84 26.5t-33 77.5t33 77.5t84 26.5t84 -26.5t33 -77.5t-33 -77.5t-84 -26.5z" />
    <glyph glyph-name="cedilla" unicode="&#xb8;" 
d="M355 -49q53 2 92 -20t39 -69t-44.5 -70.5t-109.5 -23.5q-61 0 -89 13q-23 11 -20 42q2 23 16 22q3 0 5 -1q24 -11 57 -11q21 0 35 10t14 27t-19 25.5t-40 8.5q-32 0 -26 30l14 66h78z" />
    <glyph glyph-name="ordmasculine" unicode="&#xba;" horiz-adv-x="444" 
d="M222 368q-87 0 -146.5 49t-59.5 127q0 77 59.5 126.5t146.5 49.5q86 0 145.5 -49.5t59.5 -126.5q0 -78 -59 -127t-146 -49zM239 416q27 0 27 64q0 26 -5.5 67t-22 83t-40.5 42q-27 0 -27 -66q0 -29 5.5 -69.5t22 -80.5t40.5 -40z" />
    <glyph glyph-name="guillemotright" unicode="&#xbb;" horiz-adv-x="536" 
d="M266 330q13 -11 13 -47.5t-13 -49.5q-19 -18 -77.5 -58t-90.5 -78q-16 -18 -40.5 -14t-24.5 20q0 34 28.5 86.5t70.5 87.5q-46 36 -72.5 94t-26.5 111q0 15 23.5 20t33.5 -8q18 -25 43.5 -50.5t41 -39t50 -41t41.5 -33.5zM499 330q13 -11 13 -47.5t-13 -49.5
q-19 -18 -77.5 -58t-90.5 -78q-16 -18 -40.5 -14t-24.5 20q0 34 28.5 86.5t70.5 87.5q-46 36 -72.5 94t-26.5 111q0 15 23.5 20t33.5 -8q18 -25 43.5 -50.5t41 -39t50 -41t41.5 -33.5z" />
    <glyph glyph-name="onequarter" unicode="&#xbc;" horiz-adv-x="770" 
d="M240 326q0 -12 -15 -12h-166q-15 0 -15 12v3q0 8 15 24t15 32v208q0 21 -23.5 31.5t-23.5 20.5v3q0 16 20 22l159 53q11 3 17 -1.5t6 -11.5v-4q0 -8 -10.5 -27.5t-10.5 -44.5v-249q0 -16 16 -32t16 -24v-3zM651 604q17 -14 0 -33l-439 -501q-16 -19 -38 2l-38 36
q-18 16 -4 31l440 500q17 19 33 6zM730 136q12 0 12 -12v-29q0 -12 -12 -12h-37v-19q0 -15 12.5 -30t12.5 -22v-2q0 -12 -13 -12h-139q-14 0 -14 12v2q0 7 11 22t11 30v19h-148q-28 0 -28 22v12q0 22 10 36l146 209q19 26 47 26h77q15 0 15 -15v-237h37zM478 136h96v162z
" />
    <glyph glyph-name="onehalf" unicode="&#xbd;" horiz-adv-x="815" 
d="M241 326q0 -12 -15 -12h-166q-15 0 -15 12v3q0 8 15 24t15 32v208q0 21 -23.5 31.5t-23.5 20.5v3q0 16 20 22l159 53q11 3 17 -1.5t6 -11.5v-4q0 -8 -10.5 -27.5t-10.5 -44.5v-249q0 -16 16 -32t16 -24v-3zM652 604q17 -14 0 -33l-439 -501q-16 -19 -38 2l-38 36
q-18 16 -4 31l440 500q17 19 33 6zM776 125q16 0 13 -14l-20 -97q-2 -14 -14 -14h-293q-6 0 -11 4.5t-5 9.5v9q0 39 20 73t49 57t57.5 44.5t48.5 45.5t20 49q0 44 -29 44q-13 0 -22.5 -18t-15 -40t-21 -40t-39.5 -18q-25 0 -41.5 15.5t-16.5 41.5q0 41 49.5 72t114.5 31
q71 0 112.5 -27t41.5 -74q0 -38 -25 -69t-56.5 -47.5t-73.5 -38t-62 -38.5h137q26 0 41.5 19.5t25.5 19.5h15z" />
    <glyph glyph-name="threequarters" unicode="&#xbe;" horiz-adv-x="805" 
d="M343 456q0 -52 -42 -83.5t-115 -31.5q-74 0 -117.5 27t-43.5 61q0 51 50 51q22 0 38 -15.5t24.5 -34.5t20 -34.5t24.5 -15.5q36 0 36 49q0 75 -52 75h-10q-15 0 -19.5 14t5.5 29l49 69h-117q-20 0 -20 20v57q0 17 19 17h259q15 0 15 -13v-8q0 -14 -15 -28l-106 -101
q55 -8 86 -35t31 -69zM683 604q17 -14 0 -33l-439 -501q-16 -19 -38 2l-38 36q-18 16 -4 31l440 500q17 19 33 6zM762 136q12 0 12 -12v-29q0 -12 -12 -12h-37v-19q0 -15 12.5 -30t12.5 -22v-2q0 -12 -13 -12h-139q-14 0 -14 12v2q0 7 11 22t11 30v19h-148q-28 0 -28 22v12
q0 22 10 36l146 209q19 26 47 26h77q15 0 15 -15v-237h37zM510 136h96v162z" />
    <glyph glyph-name="questiondown" unicode="&#xbf;" horiz-adv-x="585" 
d="M313 332q-48 0 -80 25t-32 74q0 48 32 73.5t80 25.5t80 -25.5t32 -73.5q0 -49 -32 -74t-80 -25zM298 -204q-122 0 -199 47.5t-77 145.5q0 46 23 82.5t55.5 59t65 42.5t55.5 43t23 50q0 19 32 28t66.5 1.5t42.5 -29.5q9 -29 6 -50t-15.5 -42t-29.5 -37.5t-36.5 -36.5
t-35.5 -38.5t-26.5 -44.5t-10.5 -54q0 -44 15.5 -67t37.5 -23q21 0 35 20.5t23 49.5t21 57.5t37 49t62 20.5q42 0 70 -25t28 -69q0 -74 -81.5 -127t-186.5 -53z" />
    <glyph glyph-name="Agrave" unicode="&#xc0;" horiz-adv-x="721" 
d="M444 763l-214 2q-24 0 -34 15t-5 38l20 83q5 22 21.5 30.5t40.5 -2.5l195 -98q11 -6 16 -18.5t1 -25.5q-10 -24 -41 -24zM24 0q-25 0 -25 21v4q0 15 25 40t36 55l178 461q9 24 -16 60t-25 44v4q0 21 25 21h259q25 0 25 -21v-4q0 -9 -14.5 -24.5t-24 -35t-0.5 -40.5
l199 -465q12 -28 36.5 -53.5t24.5 -41.5v-4q0 -21 -25 -21h-291q-25 0 -25 21v4q0 10 9.5 21t20 19.5t16.5 23t0 31.5l-16 46h-234l-16 -46q-6 -17 0 -31.5t16.5 -23t20 -19.5t9.5 -21v-4q0 -21 -25 -21h-163zM212 250h176l-86 253z" />
    <glyph glyph-name="Aacute" unicode="&#xc1;" horiz-adv-x="721" 
d="M265 772q-32 -2 -41 23q-13 28 14 44l190 107q24 12 40 5t23 -30l24 -82q6 -22 -3 -37.5t-33 -16.5zM24 0q-25 0 -25 21v4q0 15 25 40t36 55l178 461q9 24 -16 60t-25 44v4q0 21 25 21h259q25 0 25 -21v-4q0 -9 -14.5 -24.5t-24 -35t-0.5 -40.5l199 -465
q12 -28 36.5 -53.5t24.5 -41.5v-4q0 -21 -25 -21h-291q-25 0 -25 21v4q0 10 9.5 21t20 19.5t16.5 23t0 31.5l-16 46h-234l-16 -46q-6 -17 0 -31.5t16.5 -23t20 -19.5t9.5 -21v-4q0 -21 -25 -21h-163zM212 250h176l-86 253z" />
    <glyph glyph-name="Acircumflex" unicode="&#xc2;" horiz-adv-x="721" 
d="M205 758q-23 -12 -44.5 8.5t3.5 48.5l110 117q20 22 52 22h39q31 0 52 -21l124 -118q26 -26 7 -49.5t-53 -7.5l-154 74zM666 120q12 -28 36.5 -53.5t24.5 -41.5v-4q0 -21 -25 -21h-291q-25 0 -25 21v4q0 10 9.5 21t20 19.5t16.5 23t0 31.5l-16 46h-234l-16 -46
q-6 -17 0 -31.5t16.5 -23t20 -19.5t9.5 -21v-4q0 -21 -25 -21h-163q-25 0 -25 21v4q0 15 25 40t36 55l178 461q9 24 -16 60t-25 44v4q0 21 25 21h259q25 0 25 -21v-4q0 -9 -14.5 -24.5t-24 -35t-0.5 -40.5zM212 250h176l-86 253z" />
    <glyph glyph-name="Atilde" unicode="&#xc3;" horiz-adv-x="721" 
d="M296 911q40 0 90.5 -22.5t68.5 -22.5q29 0 44 20q12 15 27 15h7q23 0 18 -25q-11 -50 -43 -86t-78 -36q-34 0 -87 24t-77 24q-20 0 -36 -17q-2 -3 -5 -6.5t-4.5 -5t-4.5 -3.5t-6.5 -2.5t-8.5 -0.5h-12q-21 0 -17 24q10 50 44 85t80 35zM24 0q-25 0 -25 21v4q0 15 25 40
t36 55l178 461q9 24 -16 60t-25 44v4q0 21 25 21h259q25 0 25 -21v-4q0 -9 -14.5 -24.5t-24 -35t-0.5 -40.5l199 -465q12 -28 36.5 -53.5t24.5 -41.5v-4q0 -21 -25 -21h-291q-25 0 -25 21v4q0 10 9.5 21t20 19.5t16.5 23t0 31.5l-16 46h-234l-16 -46q-6 -17 0 -31.5
t16.5 -23t20 -19.5t9.5 -21v-4q0 -21 -25 -21h-163zM212 250h176l-86 253z" />
    <glyph glyph-name="Adieresis" unicode="&#xc4;" horiz-adv-x="721" 
d="M222 760q-50 0 -82 28.5t-32 71.5t32 71t82 28t81.5 -28t31.5 -71t-31.5 -71.5t-81.5 -28.5zM487 760q-50 0 -81.5 28.5t-31.5 71.5t31.5 71t81.5 28t82 -28t32 -71t-32 -71.5t-82 -28.5zM24 0q-25 0 -25 21v4q0 15 25 40t36 55l178 461q9 24 -16 60t-25 44v4q0 21 25 21
h259q25 0 25 -21v-4q0 -9 -14.5 -24.5t-24 -35t-0.5 -40.5l199 -465q12 -28 36.5 -53.5t24.5 -41.5v-4q0 -21 -25 -21h-291q-25 0 -25 21v4q0 10 9.5 21t20 19.5t16.5 23t0 31.5l-16 46h-234l-16 -46q-6 -17 0 -31.5t16.5 -23t20 -19.5t9.5 -21v-4q0 -21 -25 -21h-163z
M212 250h176l-86 253z" />
    <glyph glyph-name="Aring" unicode="&#xc5;" horiz-adv-x="721" 
d="M358 734q-67 0 -112 32t-45 79q0 55 43.5 87t114.5 32q68 0 113 -31t45 -79q0 -55 -43 -87.5t-116 -32.5zM359 786q43 0 43 64q0 29 -12.5 44t-30.5 15q-43 0 -43 -59q0 -29 12.5 -46.5t30.5 -17.5zM24 0q-25 0 -25 21v4q0 15 25 40t36 55l178 461q9 24 -16 60t-25 44v4
q0 21 25 21h259q25 0 25 -21v-4q0 -9 -14.5 -24.5t-24 -35t-0.5 -40.5l199 -465q12 -28 36.5 -53.5t24.5 -41.5v-4q0 -21 -25 -21h-291q-25 0 -25 21v4q0 10 9.5 21t20 19.5t16.5 23t0 31.5l-16 46h-234l-16 -46q-6 -17 0 -31.5t16.5 -23t20 -19.5t9.5 -21v-4q0 -21 -25 -21
h-163zM212 250h176l-86 253z" />
    <glyph glyph-name="AE" unicode="&#xc6;" horiz-adv-x="979" 
d="M946 198q11 0 17 -7t4 -18l-25 -138q-3 -19 -11.5 -27t-25.5 -8h-442q-25 0 -25 21v4q0 13 20.5 40.5t20.5 54.5v46h-253l-28 -46q-11 -26 -5 -38t19 -28.5t13 -28.5v-4q0 -21 -25 -21h-185q-25 0 -25 21v4q0 16 32 42.5t48 52.5l275 448q11 27 4.5 43.5t-21 38
t-14.5 31.5v8q0 9 7.5 15t17.5 6h541q32 0 37 -33l20 -124q2 -14 -6 -22.5t-22 -8.5h-6q-19 0 -38.5 17.5t-33.5 38t-37 38t-49 17.5h-31q-50 0 -50 -52v-176h55q20 0 35 13t22.5 28.5t17.5 28.5t20 13h10q21 0 21 -25v-195q0 -25 -21 -25h-10q-10 0 -20 12t-17.5 27
t-22.5 27t-35 12h-55v-172q0 -33 17 -52.5t49 -19.5h42q30 0 55 19t38.5 41.5t32.5 41.5t38 19h10zM278 250h201l-1 328z" />
    <glyph glyph-name="Ccedilla" unicode="&#xc7;" horiz-adv-x="671" 
d="M590 264q15 18 37 12t22 -31q0 -96 -60.5 -168t-177.5 -85l-2 -41q53 2 92 -20t39 -69t-44.5 -70.5t-109.5 -23.5q-61 0 -89 13q-23 11 -20 42q2 23 16 22q3 0 5 -1q24 -11 57 -11q21 0 35 10t14 27t-19 25.5t-40 8.5q-32 0 -26 30l12 58q-137 14 -222.5 122.5
t-85.5 250.5q0 153 91.5 253.5t241.5 100.5q120 0 207.5 -54.5t87.5 -137.5q0 -40 -25 -64.5t-69 -24.5q-38 0 -67.5 21t-48 50.5t-35 59t-39.5 50.5t-51 21q-39 0 -67 -39.5t-28 -109.5q0 -140 64.5 -228.5t150.5 -88.5q18 0 33.5 2.5t30 10t23.5 12t21.5 16.5t17 16t16 18
t12.5 15z" />
    <glyph glyph-name="Egrave" unicode="&#xc8;" horiz-adv-x="628" 
d="M400 763l-214 2q-24 0 -34 15t-5 38l20 83q5 22 21.5 30.5t40.5 -2.5l195 -98q11 -6 16 -18.5t1 -25.5q-10 -24 -41 -24zM61 0q-25 0 -25 21v4q0 13 20.5 40.5t20.5 54.5v470q0 27 -20.5 54.5t-20.5 40.5v4q0 21 25 21h466q18 0 26 -7.5t11 -25.5l24 -134q2 -14 -6 -22.5
t-22 -8.5h-6q-21 0 -42 19t-36.5 41.5t-39.5 41.5t-49 19h-56q-50 0 -50 -52v-182h85q20 0 35 13.5t22.5 29.5t17.5 29.5t20 13.5h10q21 0 21 -25v-195q0 -25 -21 -25h-10q-10 0 -20 12.5t-17.5 28t-22.5 28t-35 12.5h-85v-164q0 -32 15.5 -56t50.5 -24h72q25 0 47 20
t35.5 44.5t33.5 44.5t42 20h10q13 0 19.5 -10.5t4.5 -22.5l-22 -138q-3 -19 -11 -27t-26 -8h-491z" />
    <glyph glyph-name="Eacute" unicode="&#xc9;" horiz-adv-x="628" 
d="M221 772q-32 -2 -41 23q-13 28 14 44l190 107q24 12 40 5t23 -30l24 -82q6 -22 -3 -37.5t-33 -16.5zM61 0q-25 0 -25 21v4q0 13 20.5 40.5t20.5 54.5v470q0 27 -20.5 54.5t-20.5 40.5v4q0 21 25 21h466q18 0 26 -7.5t11 -25.5l24 -134q2 -14 -6 -22.5t-22 -8.5h-6
q-21 0 -42 19t-36.5 41.5t-39.5 41.5t-49 19h-56q-50 0 -50 -52v-182h85q20 0 35 13.5t22.5 29.5t17.5 29.5t20 13.5h10q21 0 21 -25v-195q0 -25 -21 -25h-10q-10 0 -20 12.5t-17.5 28t-22.5 28t-35 12.5h-85v-164q0 -32 15.5 -56t50.5 -24h72q25 0 47 20t35.5 44.5
t33.5 44.5t42 20h10q13 0 19.5 -10.5t4.5 -22.5l-22 -138q-3 -19 -11 -27t-26 -8h-491z" />
    <glyph glyph-name="Ecircumflex" unicode="&#xca;" horiz-adv-x="628" 
d="M161 758q-23 -12 -44.5 8.5t3.5 48.5l110 117q20 22 52 22h39q31 0 52 -21l124 -118q26 -26 7 -49.5t-53 -7.5l-154 74zM587 206q13 0 19.5 -10.5t4.5 -22.5l-22 -138q-3 -19 -11 -27t-26 -8h-491q-25 0 -25 21v4q0 13 20.5 40.5t20.5 54.5v470q0 27 -20.5 54.5
t-20.5 40.5v4q0 21 25 21h466q18 0 26 -7.5t11 -25.5l24 -134q2 -14 -6 -22.5t-22 -8.5h-6q-21 0 -42 19t-36.5 41.5t-39.5 41.5t-49 19h-56q-50 0 -50 -52v-182h85q20 0 35 13.5t22.5 29.5t17.5 29.5t20 13.5h10q21 0 21 -25v-195q0 -25 -21 -25h-10q-10 0 -20 12.5
t-17.5 28t-22.5 28t-35 12.5h-85v-164q0 -32 15.5 -56t50.5 -24h72q25 0 47 20t35.5 44.5t33.5 44.5t42 20h10z" />
    <glyph glyph-name="Edieresis" unicode="&#xcb;" horiz-adv-x="628" 
d="M178 760q-50 0 -82 28.5t-32 71.5t32 71t82 28t81.5 -28t31.5 -71t-31.5 -71.5t-81.5 -28.5zM443 760q-50 0 -81.5 28.5t-31.5 71.5t31.5 71t81.5 28t82 -28t32 -71t-32 -71.5t-82 -28.5zM61 0q-25 0 -25 21v4q0 13 20.5 40.5t20.5 54.5v470q0 27 -20.5 54.5t-20.5 40.5
v4q0 21 25 21h466q18 0 26 -7.5t11 -25.5l24 -134q2 -14 -6 -22.5t-22 -8.5h-6q-21 0 -42 19t-36.5 41.5t-39.5 41.5t-49 19h-56q-50 0 -50 -52v-182h85q20 0 35 13.5t22.5 29.5t17.5 29.5t20 13.5h10q21 0 21 -25v-195q0 -25 -21 -25h-10q-10 0 -20 12.5t-17.5 28t-22.5 28
t-35 12.5h-85v-164q0 -32 15.5 -56t50.5 -24h72q25 0 47 20t35.5 44.5t33.5 44.5t42 20h10q13 0 19.5 -10.5t4.5 -22.5l-22 -138q-3 -19 -11 -27t-26 -8h-491z" />
    <glyph glyph-name="Igrave" unicode="&#xcc;" horiz-adv-x="364" 
d="M276 763l-214 2q-24 0 -34 15t-5 38l20 83q5 22 21.5 30.5t40.5 -2.5l195 -98q11 -6 16 -18.5t1 -25.5q-10 -24 -41 -24zM36 21v4q0 13 20.5 40.5t20.5 54.5v470q0 27 -20.5 54.5t-20.5 40.5v4q0 21 25 21h242q25 0 25 -21v-4q0 -13 -23 -40.5t-23 -54.5v-470
q0 -27 23 -54.5t23 -40.5v-4q0 -21 -25 -21h-242q-25 0 -25 21z" />
    <glyph glyph-name="Iacute" unicode="&#xcd;" horiz-adv-x="364" 
d="M97 772q-32 -2 -41 23q-13 28 14 44l190 107q24 12 40 5t23 -30l24 -82q6 -22 -3 -37.5t-33 -16.5zM36 21v4q0 13 20.5 40.5t20.5 54.5v470q0 27 -20.5 54.5t-20.5 40.5v4q0 21 25 21h242q25 0 25 -21v-4q0 -13 -23 -40.5t-23 -54.5v-470q0 -27 23 -54.5t23 -40.5v-4
q0 -21 -25 -21h-242q-25 0 -25 21z" />
    <glyph glyph-name="Icircumflex" unicode="&#xce;" horiz-adv-x="364" 
d="M373 815q26 -26 7 -49.5t-53 -7.5l-154 74l-136 -74q-23 -12 -44.5 8.5t3.5 48.5l110 117q20 22 52 22h39q31 0 52 -21zM303 710q25 0 25 -21v-4q0 -13 -23 -40.5t-23 -54.5v-470q0 -27 23 -54.5t23 -40.5v-4q0 -21 -25 -21h-242q-25 0 -25 21v4q0 13 20.5 40.5
t20.5 54.5v470q0 27 -20.5 54.5t-20.5 40.5v4q0 21 25 21h242z" />
    <glyph glyph-name="Idieresis" unicode="&#xcf;" horiz-adv-x="364" 
d="M54 760q-50 0 -82 28.5t-32 71.5t32 71t82 28t81.5 -28t31.5 -71t-31.5 -71.5t-81.5 -28.5zM319 760q-50 0 -81.5 28.5t-31.5 71.5t31.5 71t81.5 28t82 -28t32 -71t-32 -71.5t-82 -28.5zM36 21v4q0 13 20.5 40.5t20.5 54.5v470q0 27 -20.5 54.5t-20.5 40.5v4q0 21 25 21
h242q25 0 25 -21v-4q0 -13 -23 -40.5t-23 -54.5v-470q0 -27 23 -54.5t23 -40.5v-4q0 -21 -25 -21h-242q-25 0 -25 21z" />
    <glyph glyph-name="Eth" unicode="&#xd0;" horiz-adv-x="780" 
d="M306 710q219 0 335 -98.5t116 -263.5q0 -154 -108 -251t-291 -97h-294q-25 0 -25 21v4q0 13 20.5 40.5t20.5 54.5v207h-41q-18 0 -18 18v38q0 19 18 19h41v188q0 27 -20.5 54.5t-20.5 40.5v4q0 21 25 21h242zM411 78q58 0 94 43t36 128q0 150 -59 266.5t-146 116.5h-3
q-50 0 -50 -52v-178h83q19 0 19 -19v-34q0 -22 -19 -22h-83v-134q0 -55 25.5 -85t72.5 -30h30z" />
    <glyph glyph-name="Ntilde" unicode="&#xd1;" horiz-adv-x="762" 
d="M235 767q-22 0 -17 24q10 50 44 85t80 35q40 0 90.5 -22.5t68.5 -22.5q29 0 44 20q12 15 27 15h7q23 0 18 -25q-11 -50 -43 -86t-78 -36q-34 0 -87 24t-77 24q-20 0 -36 -17q-2 -3 -5 -6.5t-4.5 -5t-4.5 -3.5t-6.5 -2.5t-8.5 -0.5h-12zM711 710q25 0 25 -21v-4
q0 -13 -23 -40.5t-23 -54.5v-538q0 -52 -52 -52h-65q-31 0 -58 35l-338 443v-358q0 -27 24 -54.5t24 -40.5v-4q0 -21 -25 -21h-139q-25 0 -25 21v4q0 13 20.5 40.5t20.5 54.5v470q0 27 -20.5 54.5t-20.5 40.5v4q0 21 25 21h258q25 0 25 -21v-4q0 -7 -7.5 -18t-15 -21
t-7.5 -25.5t12 -31.5l264 -350v351q0 27 -22.5 54.5t-22.5 40.5v4q0 21 25 21h141z" />
    <glyph glyph-name="Ograve" unicode="&#xd2;" horiz-adv-x="754" 
d="M463 763l-214 2q-24 0 -34 15t-5 38l20 83q5 22 21.5 30.5t40.5 -2.5l195 -98q11 -6 16 -18.5t1 -25.5q-10 -24 -41 -24zM376 -10q-142 0 -247.5 100t-105.5 260q0 166 97 268t256 102q144 0 249.5 -104t105.5 -266t-102 -261t-253 -99zM436 74q83 0 83 112
q0 76 -32 181.5t-84 187t-101 81.5q-81 0 -81 -115q0 -88 31.5 -193t83 -179.5t100.5 -74.5z" />
    <glyph glyph-name="Oacute" unicode="&#xd3;" horiz-adv-x="754" 
d="M284 772q-32 -2 -41 23q-13 28 14 44l190 107q24 12 40 5t23 -30l24 -82q6 -22 -3 -37.5t-33 -16.5zM376 -10q-142 0 -247.5 100t-105.5 260q0 166 97 268t256 102q144 0 249.5 -104t105.5 -266t-102 -261t-253 -99zM436 74q83 0 83 112q0 76 -32 181.5t-84 187
t-101 81.5q-81 0 -81 -115q0 -88 31.5 -193t83 -179.5t100.5 -74.5z" />
    <glyph glyph-name="Ocircumflex" unicode="&#xd4;" horiz-adv-x="754" 
d="M224 758q-23 -12 -44.5 8.5t3.5 48.5l110 117q20 22 52 22h39q31 0 52 -21l124 -118q26 -26 7 -49.5t-53 -7.5l-154 74zM376 720q144 0 249.5 -104t105.5 -266t-102 -261t-253 -99q-142 0 -247.5 100t-105.5 260q0 166 97 268t256 102zM436 74q83 0 83 112
q0 76 -32 181.5t-84 187t-101 81.5q-81 0 -81 -115q0 -88 31.5 -193t83 -179.5t100.5 -74.5z" />
    <glyph glyph-name="Otilde" unicode="&#xd5;" horiz-adv-x="754" 
d="M315 911q40 0 90.5 -22.5t68.5 -22.5q29 0 44 20q12 15 27 15h7q23 0 18 -25q-11 -50 -43 -86t-78 -36q-34 0 -87 24t-77 24q-20 0 -36 -17q-2 -3 -5 -6.5t-4.5 -5t-4.5 -3.5t-6.5 -2.5t-8.5 -0.5h-12q-22 0 -17 24q10 50 44 85t80 35zM376 -10q-142 0 -247.5 100
t-105.5 260q0 166 97 268t256 102q144 0 249.5 -104t105.5 -266t-102 -261t-253 -99zM436 74q83 0 83 112q0 76 -32 181.5t-84 187t-101 81.5q-81 0 -81 -115q0 -88 31.5 -193t83 -179.5t100.5 -74.5z" />
    <glyph glyph-name="Odieresis" unicode="&#xd6;" horiz-adv-x="754" 
d="M241 760q-50 0 -82 28.5t-32 71.5t32 71t82 28t81.5 -28t31.5 -71t-31.5 -71.5t-81.5 -28.5zM506 760q-50 0 -81.5 28.5t-31.5 71.5t31.5 71t81.5 28t82 -28t32 -71t-32 -71.5t-82 -28.5zM376 -10q-142 0 -247.5 100t-105.5 260q0 166 97 268t256 102q144 0 249.5 -104
t105.5 -266t-102 -261t-253 -99zM436 74q83 0 83 112q0 76 -32 181.5t-84 187t-101 81.5q-81 0 -81 -115q0 -88 31.5 -193t83 -179.5t100.5 -74.5z" />
    <glyph glyph-name="multiply" unicode="&#xd7;" 
d="M160 101l-57 58q-15 15 5 34l106 106l-106 106q-19 19 -6 34l58 57q14 14 34 -5l106 -106l106 107q20 20 34 5l58 -58q14 -13 -6 -33l-106 -106l107 -107q20 -20 5 -34l-58 -58q-14 -13 -33 6l-107 106l-106 -106q-19 -19 -34 -6z" />
    <glyph glyph-name="Oslash" unicode="&#xd8;" horiz-adv-x="764" 
d="M730 646l-68 -66q74 -98 74 -230q0 -162 -102 -261t-253 -99q-138 0 -238 91l-56 -54q-15 -13 -30 0l-29 26q-14 13 5 32l58 55q-63 92 -63 210q0 166 97 268t256 102q127 0 226 -82l64 61q19 19 34 4l29 -27q13 -13 -4 -30zM226 521q0 -98 39 -213l182 176
q-32 69 -68.5 110.5t-71.5 41.5q-81 0 -81 -115zM524 186q0 94 -45 219l-183 -177q32 -70 70 -112t75 -42q83 0 83 112z" />
    <glyph glyph-name="Ugrave" unicode="&#xd9;" horiz-adv-x="769" 
d="M248 765q-24 0 -34 15t-5 38l20 83q5 22 21.5 30.5t40.5 -2.5l195 -98q11 -6 16 -18.5t1 -25.5q-10 -24 -41 -24zM697 117q0 -28 6.5 -42.5t14.5 -16t14.5 -8t6.5 -20.5q0 -36 -114 -36q-54 0 -77 19.5t-27 73.5q-52 -97 -207 -97q-114 0 -181.5 70t-67.5 199v309
q0 27 -20.5 53.5t-20.5 37.5v4q0 9 7 16.5t18 8.5l176 22q53 6 53 -23l-4 -459q-1 -79 26 -122t73 -43q65 0 95 49t30 124v332q0 27 -25.5 53.5t-25.5 37.5v4q0 8 11.5 15.5t23.5 9.5l166 22q49 6 49 -23v-570z" />
    <glyph glyph-name="Uacute" unicode="&#xda;" horiz-adv-x="769" 
d="M283 772q-32 -2 -41 23q-13 28 14 44l190 107q24 12 40 5t23 -30l24 -82q6 -22 -3 -37.5t-33 -16.5zM697 117q0 -28 6.5 -42.5t14.5 -16t14.5 -8t6.5 -20.5q0 -36 -114 -36q-54 0 -77 19.5t-27 73.5q-52 -97 -207 -97q-114 0 -181.5 70t-67.5 199v309q0 27 -20.5 53.5
t-20.5 37.5v4q0 9 7 16.5t18 8.5l176 22q53 6 53 -23l-4 -459q-1 -79 26 -122t73 -43q65 0 95 49t30 124v332q0 27 -25.5 53.5t-25.5 37.5v4q0 8 11.5 15.5t23.5 9.5l166 22q49 6 49 -23v-570z" />
    <glyph glyph-name="Ucircumflex" unicode="&#xdb;" horiz-adv-x="769" 
d="M223 758q-23 -12 -44.5 8.5t3.5 48.5l110 117q20 22 52 22h39q31 0 52 -21l124 -118q26 -26 7 -49.5t-53 -7.5l-154 74zM697 117q0 -28 6.5 -42.5t14.5 -16t14.5 -8t6.5 -20.5q0 -36 -114 -36q-54 0 -77 19.5t-27 73.5q-52 -97 -207 -97q-114 0 -181.5 70t-67.5 199v309
q0 27 -20.5 53.5t-20.5 37.5v4q0 9 7 16.5t18 8.5l176 22q53 6 53 -23l-4 -459q-1 -79 26 -122t73 -43q65 0 95 49t30 124v332q0 27 -25.5 53.5t-25.5 37.5v4q0 8 11.5 15.5t23.5 9.5l166 22q49 6 49 -23v-570z" />
    <glyph glyph-name="Udieresis" unicode="&#xdc;" horiz-adv-x="769" 
d="M240 760q-50 0 -82 28.5t-32 71.5t32 71t82 28t81.5 -28t31.5 -71t-31.5 -71.5t-81.5 -28.5zM505 760q-50 0 -81.5 28.5t-31.5 71.5t31.5 71t81.5 28t82 -28t32 -71t-32 -71.5t-82 -28.5zM697 117q0 -28 6.5 -42.5t14.5 -16t14.5 -8t6.5 -20.5q0 -36 -114 -36
q-54 0 -77 19.5t-27 73.5q-52 -97 -207 -97q-114 0 -181.5 70t-67.5 199v309q0 27 -20.5 53.5t-20.5 37.5v4q0 9 7 16.5t18 8.5l176 22q53 6 53 -23l-4 -459q-1 -79 26 -122t73 -43q65 0 95 49t30 124v332q0 27 -25.5 53.5t-25.5 37.5v4q0 8 11.5 15.5t23.5 9.5l166 22
q49 6 49 -23v-570z" />
    <glyph glyph-name="Yacute" unicode="&#xdd;" horiz-adv-x="705" 
d="M283 772q-32 -2 -41 23q-13 28 14 44l190 107q24 12 40 5t23 -30l24 -82q6 -22 -3 -37.5t-33 -16.5zM676 710q25 0 25 -21v-4q0 -16 -27.5 -41.5t-42.5 -53.5l-162 -296v-174q0 -27 23 -54.5t23 -40.5v-4q0 -21 -25 -21h-245q-25 0 -25 21v4q0 13 20.5 40.5t20.5 54.5
v154l-195 316q-13 21 -32 39.5t-29.5 30.5t-10.5 25v4q0 21 25 21h305q25 0 25 -21v-4q0 -12 -17 -27t-28.5 -31.5t-0.5 -36.5l116 -215l115 215q11 21 0 38t-28 31t-17 26v4q0 21 25 21h162z" />
    <glyph glyph-name="Thorn" unicode="&#xde;" horiz-adv-x="666" 
d="M61 0q-25 0 -25 21v4q0 13 20.5 40.5t20.5 54.5v470q0 27 -20.5 54.5t-20.5 40.5v4q0 21 25 21h242q25 0 25 -21v-4q0 -13 -23 -40.5t-23 -54.5v-10h38q152 0 241 -56t89 -164t-87.5 -165.5t-226.5 -57.5h-54v-17q0 -27 23 -54.5t23 -40.5v-4q0 -21 -25 -21h-242z
M320 214h35q38 0 59.5 29.5t21.5 88.5q0 74 -33.5 122.5t-72.5 48.5h-10q-38 0 -38 -38v-213q0 -38 38 -38z" />
    <glyph glyph-name="germandbls" unicode="&#xdf;" horiz-adv-x="616" 
d="M442 389q73 -17 115 -69.5t42 -128.5q0 -88 -67 -139.5t-167 -51.5q-29 0 -32 21q-3 18 15 25q4 2 10 2q24 0 41 32t17 76q0 87 -28.5 140t-75.5 53q-19 0 -27 15.5t-0.5 31t27.5 15.5q23 0 38 23t15 72q0 87 -15 129t-51 42q-48 0 -48 -77v-480q0 -26 28 -52t28 -43v-4
q0 -6 -1 -10t-2 -6.5t-4.5 -3.5t-4.5 -1h-6.5h-6.5h-241q-25 0 -25 21v4q0 13 20.5 40.5t20.5 54.5v386q0 99 68 161.5t187 62.5q93 0 158.5 -54.5t65.5 -146.5q0 -50 -26.5 -86.5t-67.5 -53.5z" />
    <glyph glyph-name="agrave" unicode="&#xe0;" horiz-adv-x="609" 
d="M185 583q-23 5 -30 22.5t4 37.5l37 77q10 21 27.5 25.5t38.5 -11.5l170 -137q23 -20 7 -46q-14 -22 -45 -15zM586 429q0 -8 -11.5 -20.5t-23 -32t-11.5 -45.5v-211q0 -27 20.5 -54.5t20.5 -40.5v-4q0 -21 -25 -21h-158q-27 0 -29 26q-44 -36 -113 -36q-97 0 -167 65.5
t-70 184.5q0 109 70.5 179.5t166.5 70.5q70 0 113 -35q5 34 52 27l138 -18q27 -3 27 -31v-4zM301 43q21 -1 34 17t13 49v206q0 57 -22.5 89.5t-52.5 32.5q-55 0 -60 -104q-2 -38 5.5 -102.5t29.5 -125t53 -62.5z" />
    <glyph glyph-name="aacute" unicode="&#xe1;" horiz-adv-x="609" 
d="M222 543q-31 -7 -45 15q-16 26 7 46l170 137q21 16 38.5 11.5t27.5 -25.5l37 -77q11 -20 4 -37.5t-30 -22.5zM586 429q0 -8 -11.5 -20.5t-23 -32t-11.5 -45.5v-211q0 -27 20.5 -54.5t20.5 -40.5v-4q0 -21 -25 -21h-158q-27 0 -29 26q-44 -36 -113 -36q-97 0 -167 65.5
t-70 184.5q0 109 70.5 179.5t166.5 70.5q70 0 113 -35q5 34 52 27l138 -18q27 -3 27 -31v-4zM301 43q21 -1 34 17t13 49v206q0 57 -22.5 89.5t-52.5 32.5q-55 0 -60 -104q-2 -38 5.5 -102.5t29.5 -125t53 -62.5z" />
    <glyph glyph-name="acircumflex" unicode="&#xe2;" horiz-adv-x="609" 
d="M166 540q-23 -12 -44.5 8.5t3.5 48.5l110 117q20 22 52 22h39q31 0 52 -21l124 -118q26 -26 7 -49.5t-53 -7.5l-154 74zM586 429q0 -8 -11.5 -20.5t-23 -32t-11.5 -45.5v-211q0 -27 20.5 -54.5t20.5 -40.5v-4q0 -21 -25 -21h-158q-27 0 -29 26q-44 -36 -113 -36
q-97 0 -167 65.5t-70 184.5q0 109 70.5 179.5t166.5 70.5q70 0 113 -35q5 34 52 27l138 -18q27 -3 27 -31v-4zM301 43q21 -1 34 17t13 49v206q0 57 -22.5 89.5t-52.5 32.5q-55 0 -60 -104q-2 -38 5.5 -102.5t29.5 -125t53 -62.5z" />
    <glyph glyph-name="atilde" unicode="&#xe3;" horiz-adv-x="609" 
d="M140 581q-22 0 -17 24q10 50 44 85t80 35q40 0 90.5 -22.5t68.5 -22.5q29 0 44 20q12 15 27 15h7q23 0 18 -25q-11 -50 -43 -86t-78 -36q-34 0 -87 24t-77 24q-20 0 -36 -17q-2 -3 -5 -6.5t-4.5 -5t-4.5 -3.5t-6.5 -2.5t-8.5 -0.5h-12zM586 429q0 -8 -11.5 -20.5t-23 -32
t-11.5 -45.5v-211q0 -27 20.5 -54.5t20.5 -40.5v-4q0 -21 -25 -21h-158q-27 0 -29 26q-44 -36 -113 -36q-97 0 -167 65.5t-70 184.5q0 109 70.5 179.5t166.5 70.5q70 0 113 -35q5 34 52 27l138 -18q27 -3 27 -31v-4zM301 43q21 -1 34 17t13 49v206q0 57 -22.5 89.5
t-52.5 32.5q-55 0 -60 -104q-2 -38 5.5 -102.5t29.5 -125t53 -62.5z" />
    <glyph glyph-name="adieresis" unicode="&#xe4;" horiz-adv-x="609" 
d="M180 535q-50 0 -82 28.5t-32 71.5t32 71t82 28t81.5 -28t31.5 -71t-31.5 -71.5t-81.5 -28.5zM445 535q-50 0 -81.5 28.5t-31.5 71.5t31.5 71t81.5 28t82 -28t32 -71t-32 -71.5t-82 -28.5zM586 429q0 -8 -11.5 -20.5t-23 -32t-11.5 -45.5v-211q0 -27 20.5 -54.5
t20.5 -40.5v-4q0 -21 -25 -21h-158q-27 0 -29 26q-44 -36 -113 -36q-97 0 -167 65.5t-70 184.5q0 109 70.5 179.5t166.5 70.5q70 0 113 -35q5 34 52 27l138 -18q27 -3 27 -31v-4zM301 43q21 -1 34 17t13 49v206q0 57 -22.5 89.5t-52.5 32.5q-55 0 -60 -104
q-2 -38 5.5 -102.5t29.5 -125t53 -62.5z" />
    <glyph glyph-name="aring" unicode="&#xe5;" horiz-adv-x="609" 
d="M312 529q-67 0 -112 32t-45 79q0 55 43.5 87t114.5 32q68 0 113 -31t45 -79q0 -55 -43 -87.5t-116 -32.5zM313 704q-43 0 -43 -59q0 -29 12.5 -46.5t30.5 -17.5q43 0 43 64q0 29 -12.5 44t-30.5 15zM586 429q0 -8 -11.5 -20.5t-23 -32t-11.5 -45.5v-211q0 -27 20.5 -54.5
t20.5 -40.5v-4q0 -21 -25 -21h-158q-27 0 -29 26q-44 -36 -113 -36q-97 0 -167 65.5t-70 184.5q0 109 70.5 179.5t166.5 70.5q70 0 113 -35q5 34 52 27l138 -18q27 -3 27 -31v-4zM301 43q21 -1 34 17t13 49v206q0 57 -22.5 89.5t-52.5 32.5q-55 0 -60 -104
q-2 -38 5.5 -102.5t29.5 -125t53 -62.5z" />
    <glyph glyph-name="ae" unicode="&#xe6;" horiz-adv-x="776" 
d="M723 162q11 12 25 7t14 -22q0 -50 -56.5 -103.5t-146.5 -53.5q-133 0 -203 95q-6 -39 -41 -67t-103 -28q-84 0 -137 38.5t-53 113.5q0 73 52 113.5t127 40.5q57 0 96 -22q-12 115 -20 137q-11 27 -38 27q-19 0 -31 -21.5t-17.5 -48t-25.5 -48t-53 -21.5q-35 0 -57 20
t-22 52q0 42 31.5 70t76 38.5t98.5 10.5q98 0 165 -50q67 50 152 50q92 0 142.5 -41t50.5 -92q0 -37 -34 -59l-181 -118q39 -50 100 -50q57 0 89 32zM540 436q-24 0 -38.5 -24t-14.5 -57q0 -68 18 -119l64 47q26 19 26 55q0 13 -2 27.5t-7.5 31.5t-17.5 28t-28 11zM276 46
q21 0 29.5 22.5t6.5 45.5l-4 45q-10 79 -49 79q-15 0 -24.5 -16t-9.5 -41q0 -57 13.5 -96t37.5 -39z" />
    <glyph glyph-name="ccedilla" unicode="&#xe7;" horiz-adv-x="509" 
d="M491 165q0 -69 -50 -119t-142 -55l-2 -40q53 2 92 -20t39 -69t-44.5 -70.5t-109.5 -23.5q-61 0 -89 13q-23 11 -20 42q2 23 16 22q3 0 5 -1q24 -11 57 -11q21 0 35 10t14 27t-19 25.5t-40 8.5q-32 0 -26 30l13 62q-92 18 -147 88t-55 156q0 114 74 181.5t180 68.5
q93 1 155.5 -41t62.5 -114q0 -28 -20 -46.5t-62 -16.5q-31 2 -54 20t-35.5 41.5t-22.5 47.5t-23 40t-30 15q-23 -1 -37.5 -28t-14.5 -67q0 -96 42.5 -154t113.5 -58q61 0 104 49q11 12 25.5 8t14.5 -21z" />
    <glyph glyph-name="egrave" unicode="&#xe8;" horiz-adv-x="500" 
d="M133 583q-23 5 -30 22.5t4 37.5l37 77q10 21 27.5 25.5t38.5 -11.5l170 -137q23 -20 7 -46q-14 -22 -45 -15zM442 162q11 12 25 7t14 -22q0 -52 -53 -104.5t-154 -52.5q-112 0 -183.5 70t-71.5 183q0 109 73.5 177.5t176.5 69.5q93 1 149 -40.5t56 -107.5
q0 -52 -44.5 -92.5t-115.5 -50.5q-40 -6 -79 -6q40 -63 110 -63q65 0 97 32zM247 432q-22 0 -35.5 -26t-13.5 -69q0 -49 12 -89q13 0 17 1q66 10 66 110q0 31 -13.5 52t-32.5 21z" />
    <glyph glyph-name="eacute" unicode="&#xe9;" horiz-adv-x="500" 
d="M170 543q-31 -7 -45 15q-16 26 7 46l170 137q21 16 38.5 11.5t27.5 -25.5l37 -77q11 -20 4 -37.5t-30 -22.5zM442 162q11 12 25 7t14 -22q0 -52 -53 -104.5t-154 -52.5q-112 0 -183.5 70t-71.5 183q0 109 73.5 177.5t176.5 69.5q93 1 149 -40.5t56 -107.5
q0 -52 -44.5 -92.5t-115.5 -50.5q-40 -6 -79 -6q40 -63 110 -63q65 0 97 32zM247 432q-22 0 -35.5 -26t-13.5 -69q0 -49 12 -89q13 0 17 1q66 10 66 110q0 31 -13.5 52t-32.5 21z" />
    <glyph glyph-name="ecircumflex" unicode="&#xea;" horiz-adv-x="500" 
d="M114 540q-23 -12 -44.5 8.5t3.5 48.5l110 117q20 22 52 22h39q31 0 52 -21l124 -118q26 -26 7 -49.5t-53 -7.5l-154 74zM442 162q11 12 25 7t14 -22q0 -52 -53 -104.5t-154 -52.5q-112 0 -183.5 70t-71.5 183q0 109 73.5 177.5t176.5 69.5q93 1 149 -40.5t56 -107.5
q0 -52 -44.5 -92.5t-115.5 -50.5q-40 -6 -79 -6q40 -63 110 -63q65 0 97 32zM247 432q-22 0 -35.5 -26t-13.5 -69q0 -49 12 -89q13 0 17 1q66 10 66 110q0 31 -13.5 52t-32.5 21z" />
    <glyph glyph-name="edieresis" unicode="&#xeb;" horiz-adv-x="500" 
d="M128 535q-50 0 -82 28.5t-32 71.5t32 71t82 28t81.5 -28t31.5 -71t-31.5 -71.5t-81.5 -28.5zM393 535q-50 0 -81.5 28.5t-31.5 71.5t31.5 71t81.5 28t82 -28t32 -71t-32 -71.5t-82 -28.5zM442 162q11 12 25 7t14 -22q0 -52 -53 -104.5t-154 -52.5q-112 0 -183.5 70
t-71.5 183q0 109 73.5 177.5t176.5 69.5q93 1 149 -40.5t56 -107.5q0 -52 -44.5 -92.5t-115.5 -50.5q-40 -6 -79 -6q40 -63 110 -63q65 0 97 32zM247 432q-22 0 -35.5 -26t-13.5 -69q0 -49 12 -89q13 0 17 1q66 10 66 110q0 31 -13.5 52t-32.5 21z" />
    <glyph glyph-name="igrave" unicode="&#xec;" horiz-adv-x="328" 
d="M252 536l-209 47q-23 5 -30 22.5t4 37.5l37 77q10 21 27.5 25.5t38.5 -11.5l170 -137q23 -20 7 -46q-14 -22 -45 -15zM49 0q-25 0 -25 21v4q0 13 20.5 40.5t20.5 54.5v161q0 27 -20.5 53.5t-20.5 37.5v4q0 13 25 25l171 84q22 10 35.5 2t13.5 -25v-342q0 -27 23 -54.5
t23 -40.5v-4q0 -21 -25 -21h-241z" />
    <glyph glyph-name="iacute" unicode="&#xed;" horiz-adv-x="328" 
d="M80 543q-31 -7 -45 15q-16 26 7 46l170 137q21 16 38.5 11.5t27.5 -25.5l37 -77q11 -20 4 -37.5t-30 -22.5zM49 0q-25 0 -25 21v4q0 13 20.5 40.5t20.5 54.5v161q0 27 -20.5 53.5t-20.5 37.5v4q0 13 25 25l171 84q22 10 35.5 2t13.5 -25v-342q0 -27 23 -54.5t23 -40.5v-4
q0 -21 -25 -21h-241z" />
    <glyph glyph-name="icircumflex" unicode="&#xee;" horiz-adv-x="328" 
d="M360 597q26 -26 7 -49.5t-53 -7.5l-154 74l-136 -74q-23 -12 -44.5 8.5t3.5 48.5l110 117q20 22 52 22h39q31 0 52 -21zM269 462v-342q0 -27 23 -54.5t23 -40.5v-4q0 -21 -25 -21h-241q-25 0 -25 21v4q0 13 20.5 40.5t20.5 54.5v161q0 27 -20.5 53.5t-20.5 37.5v4
q0 13 25 25l171 84q22 10 35.5 2t13.5 -25z" />
    <glyph glyph-name="idieresis" unicode="&#xef;" horiz-adv-x="328" 
d="M38 535q-50 0 -82 28.5t-32 71.5t32 71t82 28t81.5 -28t31.5 -71t-31.5 -71.5t-81.5 -28.5zM303 535q-50 0 -81.5 28.5t-31.5 71.5t31.5 71t81.5 28t82 -28t32 -71t-32 -71.5t-82 -28.5zM49 0q-25 0 -25 21v4q0 13 20.5 40.5t20.5 54.5v161q0 27 -20.5 53.5t-20.5 37.5v4
q0 13 25 25l171 84q22 10 35.5 2t13.5 -25v-342q0 -27 23 -54.5t23 -40.5v-4q0 -21 -25 -21h-241z" />
    <glyph glyph-name="eth" unicode="&#xf0;" horiz-adv-x="596" 
d="M435 627q140 -149 140 -377q0 -121 -72 -190.5t-205 -69.5q-113 0 -196 70.5t-83 179.5q0 111 63.5 180.5t158.5 69.5q60 0 103 -35q-18 61 -61 115l-109 -40q-18 -7 -26 10l-12 26q-9 21 14 30l83 30q-42 44 -71 73q-22 25 -13 44.5t29 19.5q93 0 200 -83l107 39
q18 7 25 -9l13 -29q8 -19 -15 -27zM322 44q26 0 36 23.5t10 81.5q-6 79 -18 137.5t-27 89.5t-29.5 45.5t-29.5 14.5q-27 0 -36 -25t-9 -82q0 -40 9.5 -102.5t35 -122.5t58.5 -60z" />
    <glyph glyph-name="ntilde" unicode="&#xf1;" horiz-adv-x="627" 
d="M173 581q-21 0 -17 24q10 50 44 85t80 35q40 0 90.5 -22.5t68.5 -22.5q29 0 44 20q12 15 27 15h7q23 0 18 -25q-11 -50 -43 -86t-78 -36q-34 0 -87 24t-77 24q-20 0 -36 -17q-2 -3 -5 -6.5t-4.5 -5t-4.5 -3.5t-6.5 -2.5t-8.5 -0.5h-12zM582 119q2 -26 19 -53.5t17 -41.5
v-4q0 -21 -25 -21h-221q-25 0 -25 21v4q0 13 19 40.5t17 54.5l-10 173q-4 71 -15 98t-40 27q-49 0 -49 -86v-212q0 -27 23 -54.5t23 -40.5v-4q0 -21 -25 -21h-241q-25 0 -25 21v4q0 13 23 40.5t23 54.5v169q0 21 -14 36.5t-28 28t-14 24.5v4q0 13 26 27l157 78
q20 9 30.5 0.5t10.5 -26.5v-41q40 71 140 71q74 0 128 -47.5t63 -157.5z" />
    <glyph glyph-name="ograve" unicode="&#xf2;" horiz-adv-x="593" 
d="M378 536l-209 47q-23 5 -30 22.5t4 37.5l37 77q10 21 27.5 25.5t38.5 -11.5l170 -137q23 -20 7 -46q-14 -22 -45 -15zM297 -10q-113 0 -196 70.5t-83 179.5t83 179.5t196 70.5q114 0 196 -70.5t82 -179.5t-82 -179.5t-196 -70.5zM321 44q28 0 37 25.5t9 79.5
q0 36 -9.5 98.5t-35 125.5t-59.5 63q-27 0 -36 -25t-9 -82q0 -40 9.5 -102.5t35 -122.5t58.5 -60z" />
    <glyph glyph-name="oacute" unicode="&#xf3;" horiz-adv-x="593" 
d="M206 543q-31 -7 -45 15q-16 26 7 46l170 137q21 16 38.5 11.5t27.5 -25.5l37 -77q11 -20 4 -37.5t-30 -22.5zM297 -10q-113 0 -196 70.5t-83 179.5t83 179.5t196 70.5q114 0 196 -70.5t82 -179.5t-82 -179.5t-196 -70.5zM321 44q28 0 37 25.5t9 79.5q0 36 -9.5 98.5
t-35 125.5t-59.5 63q-27 0 -36 -25t-9 -82q0 -40 9.5 -102.5t35 -122.5t58.5 -60z" />
    <glyph glyph-name="ocircumflex" unicode="&#xf4;" horiz-adv-x="593" 
d="M150 540q-23 -12 -44.5 8.5t3.5 48.5l110 117q20 22 52 22h39q31 0 52 -21l124 -118q26 -26 7 -49.5t-53 -7.5l-154 74zM297 490q114 0 196 -70.5t82 -179.5t-82 -179.5t-196 -70.5q-113 0 -196 70.5t-83 179.5t83 179.5t196 70.5zM321 44q28 0 37 25.5t9 79.5
q0 36 -9.5 98.5t-35 125.5t-59.5 63q-27 0 -36 -25t-9 -82q0 -40 9.5 -102.5t35 -122.5t58.5 -60z" />
    <glyph glyph-name="otilde" unicode="&#xf5;" horiz-adv-x="593" 
d="M231 725q40 0 90.5 -22.5t68.5 -22.5q29 0 44 20q12 15 27 15h7q23 0 18 -25q-11 -50 -43 -86t-78 -36q-34 0 -87 24t-77 24q-20 0 -36 -17q-2 -3 -5 -6.5t-4.5 -5t-4.5 -3.5t-6.5 -2.5t-8.5 -0.5h-12q-22 0 -17 24q10 50 44 85t80 35zM297 -10q-113 0 -196 70.5
t-83 179.5t83 179.5t196 70.5q114 0 196 -70.5t82 -179.5t-82 -179.5t-196 -70.5zM321 44q28 0 37 25.5t9 79.5q0 36 -9.5 98.5t-35 125.5t-59.5 63q-27 0 -36 -25t-9 -82q0 -40 9.5 -102.5t35 -122.5t58.5 -60z" />
    <glyph glyph-name="odieresis" unicode="&#xf6;" horiz-adv-x="593" 
d="M164 535q-50 0 -82 28.5t-32 71.5t32 71t82 28t81.5 -28t31.5 -71t-31.5 -71.5t-81.5 -28.5zM429 535q-50 0 -81.5 28.5t-31.5 71.5t31.5 71t81.5 28t82 -28t32 -71t-32 -71.5t-82 -28.5zM297 -10q-113 0 -196 70.5t-83 179.5t83 179.5t196 70.5q114 0 196 -70.5
t82 -179.5t-82 -179.5t-196 -70.5zM321 44q28 0 37 25.5t9 79.5q0 36 -9.5 98.5t-35 125.5t-59.5 63q-27 0 -36 -25t-9 -82q0 -40 9.5 -102.5t35 -122.5t58.5 -60z" />
    <glyph glyph-name="divide" unicode="&#xf7;" 
d="M298 414q-51 0 -83 29t-32 72t32 71.5t83 28.5t83 -28.5t32 -71.5t-32 -72t-83 -29zM99 236q-26 0 -26 20v85q0 9 7.5 15t18.5 6h403q11 0 18.5 -6t7.5 -15v-85q0 -20 -26 -20h-403zM298 -10q-51 0 -83 29t-32 72t32 71.5t83 28.5t83 -28.5t32 -71.5t-32 -72t-83 -29z
" />
    <glyph glyph-name="oslash" unicode="&#xf8;" horiz-adv-x="596" 
d="M512 404q65 -70 65 -164q0 -109 -82 -179.5t-196 -70.5q-93 0 -167 48l-52 -50q-13 -11 -24 0l-28 26q-14 14 2 29l46 44q-56 66 -56 153q0 109 83 179.5t196 70.5q86 0 154 -41l55 53q17 16 31 2l25 -24q13 -13 -2 -28zM220 329q0 -35 9 -95l108 104q-29 98 -72 98
q-27 0 -36 -25t-9 -82zM323 44q28 0 37 25.5t9 79.5q0 37 -12 106l-109 -106q29 -105 75 -105z" />
    <glyph glyph-name="ugrave" unicode="&#xf9;" horiz-adv-x="604" 
d="M179 583q-23 5 -30 22.5t4 37.5l37 77q10 21 27.5 25.5t38.5 -11.5l170 -137q23 -20 7 -46q-14 -22 -45 -15zM549 117q0 -28 6.5 -42.5t13.5 -16t13.5 -8t6.5 -20.5q0 -36 -114 -36q-49 0 -72 12t-28 40q-39 -56 -137 -56q-77 0 -132 51t-55 138v164q0 27 -20.5 53.5
t-20.5 37.5v4q0 9 7 16.5t18 8.5l166 22q53 6 53 -23l-4 -304q-1 -53 11 -74t39 -21q21 0 35.5 24t14.5 62v194q0 27 -20.5 53.5t-20.5 37.5v4q0 9 7 16.5t18 8.5l166 22q49 6 49 -23v-345z" />
    <glyph glyph-name="uacute" unicode="&#xfa;" horiz-adv-x="604" 
d="M216 543q-31 -7 -45 15q-16 26 7 46l170 137q21 16 38.5 11.5t27.5 -25.5l37 -77q11 -20 4 -37.5t-30 -22.5zM549 117q0 -28 6.5 -42.5t13.5 -16t13.5 -8t6.5 -20.5q0 -36 -114 -36q-49 0 -72 12t-28 40q-39 -56 -137 -56q-77 0 -132 51t-55 138v164q0 27 -20.5 53.5
t-20.5 37.5v4q0 9 7 16.5t18 8.5l166 22q53 6 53 -23l-4 -304q-1 -53 11 -74t39 -21q21 0 35.5 24t14.5 62v194q0 27 -20.5 53.5t-20.5 37.5v4q0 9 7 16.5t18 8.5l166 22q49 6 49 -23v-345z" />
    <glyph glyph-name="ucircumflex" unicode="&#xfb;" horiz-adv-x="604" 
d="M160 540q-23 -12 -44.5 8.5t3.5 48.5l110 117q20 22 52 22h39q31 0 52 -21l124 -118q26 -26 7 -49.5t-53 -7.5l-154 74zM549 117q0 -28 6.5 -42.5t13.5 -16t13.5 -8t6.5 -20.5q0 -36 -114 -36q-49 0 -72 12t-28 40q-39 -56 -137 -56q-77 0 -132 51t-55 138v164
q0 27 -20.5 53.5t-20.5 37.5v4q0 9 7 16.5t18 8.5l166 22q53 6 53 -23l-4 -304q-1 -53 11 -74t39 -21q21 0 35.5 24t14.5 62v194q0 27 -20.5 53.5t-20.5 37.5v4q0 9 7 16.5t18 8.5l166 22q49 6 49 -23v-345z" />
    <glyph glyph-name="udieresis" unicode="&#xfc;" horiz-adv-x="604" 
d="M174 535q-50 0 -82 28.5t-32 71.5t32 71t82 28t81.5 -28t31.5 -71t-31.5 -71.5t-81.5 -28.5zM439 535q-50 0 -81.5 28.5t-31.5 71.5t31.5 71t81.5 28t82 -28t32 -71t-32 -71.5t-82 -28.5zM549 117q0 -28 6.5 -42.5t13.5 -16t13.5 -8t6.5 -20.5q0 -36 -114 -36
q-49 0 -72 12t-28 40q-39 -56 -137 -56q-77 0 -132 51t-55 138v164q0 27 -20.5 53.5t-20.5 37.5v4q0 9 7 16.5t18 8.5l166 22q53 6 53 -23l-4 -304q-1 -53 11 -74t39 -21q21 0 35.5 24t14.5 62v194q0 27 -20.5 53.5t-20.5 37.5v4q0 9 7 16.5t18 8.5l166 22q49 6 49 -23v-345
z" />
    <glyph glyph-name="yacute" unicode="&#xfd;" horiz-adv-x="578" 
d="M220 543q-31 -7 -45 15q-16 26 7 46l170 137q21 16 38.5 11.5t27.5 -25.5l37 -77q11 -20 4 -37.5t-30 -22.5zM492 485q49 6 49 -23v-394q0 -128 -82.5 -197.5t-202.5 -69.5q-90 0 -157 36.5t-67 103.5q0 31 21.5 52.5t57.5 21.5q32 0 53 -16.5t31.5 -40t19.5 -47.5
t24 -40.5t37 -17.5q66 -2 67 177q-43 -30 -113 -30q-71 0 -125 49.5t-54 129.5v164q0 27 -20.5 53.5t-20.5 37.5v4q0 9 7 16.5t18 8.5l166 22q53 6 53 -23l-4 -304q-1 -85 42 -85q21 0 36 22.5t15 53.5v194q0 27 -21 53.5t-21 37.5v4q0 9 7 16.5t18 8.5z" />
    <glyph glyph-name="thorn" unicode="&#xfe;" horiz-adv-x="585" 
d="M328 490q58 0 110.5 -24.5t89.5 -81.5t37 -136q0 -116 -70 -187t-167 -71q-54 0 -90 21v-98q0 -27 23 -54.5t23 -40.5v-4q0 -21 -25 -21h-235q-25 0 -25 21v4q0 13 20.5 40.5t20.5 54.5v636q0 25 -25.5 47t-25.5 36v6q0 19 25 31l178 85q25 10 35.5 3.5t10.5 -24.5v-264
q36 21 90 21zM311 43q56 0 56 104q0 57 -6.5 118t-27.5 116.5t-52 55.5q-43 0 -43 -66v-216q0 -43 22.5 -77.5t50.5 -34.5z" />
    <glyph glyph-name="ydieresis" unicode="&#xff;" horiz-adv-x="578" 
d="M178 535q-50 0 -82 28.5t-32 71.5t32 71t82 28t81.5 -28t31.5 -71t-31.5 -71.5t-81.5 -28.5zM443 535q-50 0 -81.5 28.5t-31.5 71.5t31.5 71t81.5 28t82 -28t32 -71t-32 -71.5t-82 -28.5zM492 485q49 6 49 -23v-394q0 -128 -82.5 -197.5t-202.5 -69.5q-90 0 -157 36.5
t-67 103.5q0 31 21.5 52.5t57.5 21.5q32 0 53 -16.5t31.5 -40t19.5 -47.5t24 -40.5t37 -17.5q66 -2 67 177q-43 -30 -113 -30q-71 0 -125 49.5t-54 129.5v164q0 27 -20.5 53.5t-20.5 37.5v4q0 9 7 16.5t18 8.5l166 22q53 6 53 -23l-4 -304q-1 -85 42 -85q21 0 36 22.5
t15 53.5v194q0 27 -21 53.5t-21 37.5v4q0 9 7 16.5t18 8.5z" />
    <glyph glyph-name="Amacron" unicode="&#x100;" horiz-adv-x="721" 
d="M208 785q-26 0 -26 26v69q0 26 26 26h288q26 0 26 -26v-69q0 -26 -26 -26h-288zM24 0q-25 0 -25 21v4q0 15 25 40t36 55l178 461q9 24 -16 60t-25 44v4q0 21 25 21h259q25 0 25 -21v-4q0 -9 -14.5 -24.5t-24 -35t-0.5 -40.5l199 -465q12 -28 36.5 -53.5t24.5 -41.5v-4
q0 -21 -25 -21h-291q-25 0 -25 21v4q0 10 9.5 21t20 19.5t16.5 23t0 31.5l-16 46h-234l-16 -46q-6 -17 0 -31.5t16.5 -23t20 -19.5t9.5 -21v-4q0 -21 -25 -21h-163zM212 250h176l-86 253z" />
    <glyph glyph-name="amacron" unicode="&#x101;" horiz-adv-x="609" 
d="M169 570q-26 0 -26 26v69q0 26 26 26h288q26 0 26 -26v-69q0 -26 -26 -26h-288zM586 429q0 -8 -11.5 -20.5t-23 -32t-11.5 -45.5v-211q0 -27 20.5 -54.5t20.5 -40.5v-4q0 -21 -25 -21h-158q-27 0 -29 26q-44 -36 -113 -36q-97 0 -167 65.5t-70 184.5q0 109 70.5 179.5
t166.5 70.5q70 0 113 -35q5 34 52 27l138 -18q27 -3 27 -31v-4zM301 43q21 -1 34 17t13 49v206q0 57 -22.5 89.5t-52.5 32.5q-55 0 -60 -104q-2 -38 5.5 -102.5t29.5 -125t53 -62.5z" />
    <glyph glyph-name="Abreve" unicode="&#x102;" horiz-adv-x="721" 
d="M352 755q-75 0 -124 40t-57 100q-3 25 25.5 32.5t39.5 -9.5q13 -21 46 -34.5t70 -13.5q39 0 71 13t45 35q9 14 38 6.5t27 -29.5q-8 -61 -56 -100.5t-125 -39.5zM24 0q-25 0 -25 21v4q0 15 25 40t36 55l178 461q9 24 -16 60t-25 44v4q0 21 25 21h259q25 0 25 -21v-4
q0 -9 -14.5 -24.5t-24 -35t-0.5 -40.5l199 -465q12 -28 36.5 -53.5t24.5 -41.5v-4q0 -21 -25 -21h-291q-25 0 -25 21v4q0 10 9.5 21t20 19.5t16.5 23t0 31.5l-16 46h-234l-16 -46q-6 -17 0 -31.5t16.5 -23t20 -19.5t9.5 -21v-4q0 -21 -25 -21h-163zM212 250h176l-86 253z
" />
    <glyph glyph-name="abreve" unicode="&#x103;" horiz-adv-x="609" 
d="M312 541q-75 0 -124 40t-57 100q-3 25 25.5 32.5t39.5 -9.5q13 -21 46 -34.5t70 -13.5q39 0 71 13t45 35q9 14 38 6.5t27 -29.5q-8 -61 -56 -100.5t-125 -39.5zM586 429q0 -8 -11.5 -20.5t-23 -32t-11.5 -45.5v-211q0 -27 20.5 -54.5t20.5 -40.5v-4q0 -21 -25 -21h-158
q-27 0 -29 26q-44 -36 -113 -36q-97 0 -167 65.5t-70 184.5q0 109 70.5 179.5t166.5 70.5q70 0 113 -35q5 34 52 27l138 -18q27 -3 27 -31v-4zM301 43q21 -1 34 17t13 49v206q0 57 -22.5 89.5t-52.5 32.5q-55 0 -60 -104q-2 -38 5.5 -102.5t29.5 -125t53 -62.5z" />
    <glyph glyph-name="Aogonek" unicode="&#x104;" horiz-adv-x="721" 
d="M666 120q12 -28 36.5 -53.5t24.5 -41.5v-4q0 -21 -25 -21h-89q-47 -63 -47 -115q-1 -44 26 -44q6 0 15 3q23 8 30 -18q9 -29 -13 -47q-5 -5 -11 -7q-18 -8 -57 -8q-32 0 -59 7.5t-48.5 30.5t-21.5 58q0 80 113 140h-129q-25 0 -25 21v4q0 10 9.5 21t20 19.5t16.5 23
t0 31.5l-16 46h-234l-16 -46q-6 -17 0 -31.5t16.5 -23t20 -19.5t9.5 -21v-4q0 -21 -25 -21h-163q-25 0 -25 21v4q0 15 25 40t36 55l178 461q9 24 -16 60t-25 44v4q0 21 25 21h259q25 0 25 -21v-4q0 -9 -14.5 -24.5t-24 -35t-0.5 -40.5zM212 250h176l-86 253z" />
    <glyph glyph-name="aogonek" unicode="&#x105;" horiz-adv-x="609" 
d="M586 429q0 -8 -11.5 -20.5t-23 -32t-11.5 -45.5v-211q0 -27 20.5 -54.5t20.5 -40.5v-4q0 -21 -25 -21h-44q-40 -57 -40 -105q-1 -44 26 -44q6 0 15 3q23 8 30 -18q9 -29 -13 -47q-5 -5 -11 -7q-18 -8 -57 -8q-32 0 -59 7.5t-48.5 30.5t-21.5 58q0 74 95 130h-30
q-27 0 -29 26q-44 -36 -113 -36q-97 0 -167 65.5t-70 184.5q0 109 70.5 179.5t166.5 70.5q70 0 113 -35q5 34 52 27l138 -18q27 -3 27 -31v-4zM301 43q21 -1 34 17t13 49v206q0 57 -22.5 89.5t-52.5 32.5q-55 0 -60 -104q-2 -38 5.5 -102.5t29.5 -125t53 -62.5z" />
    <glyph glyph-name="Cacute" unicode="&#x106;" horiz-adv-x="671" 
d="M251 772q-32 -2 -41 23q-13 28 14 44l190 107q24 12 40 5t23 -30l24 -82q6 -22 -3 -37.5t-33 -16.5zM367 -10q-100 0 -180 53t-122 138t-42 184q0 153 91.5 253.5t241.5 100.5q120 0 207.5 -54.5t87.5 -137.5q0 -40 -25 -64.5t-69 -24.5q-38 0 -67.5 21t-48 50.5t-35 59
t-39.5 50.5t-51 21q-39 0 -67 -39.5t-28 -109.5q0 -140 64.5 -228.5t150.5 -88.5q18 0 33.5 2.5t30 10t23.5 12t21.5 16.5t17 16t16 18t12.5 15q15 18 37 12t22 -31q0 -105 -72 -180t-210 -75z" />
    <glyph glyph-name="cacute" unicode="&#x107;" horiz-adv-x="509" 
d="M164 543q-31 -7 -45 15q-16 26 7 46l170 137q21 16 38.5 11.5t27.5 -25.5l37 -77q11 -20 4 -37.5t-30 -22.5zM279 -10q-117 0 -189 75t-72 175q0 114 74 181.5t180 68.5q93 1 155.5 -41t62.5 -114q0 -28 -20 -46.5t-62 -16.5q-31 2 -54 20t-35.5 41.5t-22.5 47.5t-23 40
t-30 15q-23 -1 -37.5 -28t-14.5 -67q0 -96 42.5 -154t113.5 -58q61 0 104 49q11 12 25.5 8t14.5 -21q0 -73 -55 -124t-157 -51z" />
    <glyph glyph-name="Cdotaccent" unicode="&#x10a;" horiz-adv-x="671" 
d="M341 748q-51 0 -83 28.5t-32 71.5t32 71.5t83 28.5t83 -28.5t32 -71.5t-32 -71.5t-83 -28.5zM367 -10q-100 0 -180 53t-122 138t-42 184q0 153 91.5 253.5t241.5 100.5q120 0 207.5 -54.5t87.5 -137.5q0 -40 -25 -64.5t-69 -24.5q-38 0 -67.5 21t-48 50.5t-35 59
t-39.5 50.5t-51 21q-39 0 -67 -39.5t-28 -109.5q0 -140 64.5 -228.5t150.5 -88.5q18 0 33.5 2.5t30 10t23.5 12t21.5 16.5t17 16t16 18t12.5 15q15 18 37 12t22 -31q0 -105 -72 -180t-210 -75z" />
    <glyph glyph-name="cdotaccent" unicode="&#x10b;" horiz-adv-x="509" 
d="M253 529q-56 0 -91.5 32t-35.5 79t35.5 78.5t91.5 31.5t91.5 -31.5t35.5 -78.5t-35.5 -79t-91.5 -32zM279 -10q-117 0 -189 75t-72 175q0 114 74 181.5t180 68.5q93 1 155.5 -41t62.5 -114q0 -28 -20 -46.5t-62 -16.5q-31 2 -54 20t-35.5 41.5t-22.5 47.5t-23 40t-30 15
q-23 -1 -37.5 -28t-14.5 -67q0 -96 42.5 -154t113.5 -58q61 0 104 49q11 12 25.5 8t14.5 -21q0 -73 -55 -124t-157 -51z" />
    <glyph glyph-name="Ccaron" unicode="&#x10c;" horiz-adv-x="671" 
d="M274 772l-105 104q-16 16 2.5 34t36.5 10l146 -67l143 67q19 9 36.5 -11t2.5 -33l-113 -105q-21 -20 -52 -20h-45q-31 0 -52 21zM590 264q15 18 37 12t22 -31q0 -105 -72 -180t-210 -75q-100 0 -180 53t-122 138t-42 184q0 153 91.5 253.5t241.5 100.5q120 0 207.5 -54.5
t87.5 -137.5q0 -40 -25 -64.5t-69 -24.5q-38 0 -67.5 21t-48 50.5t-35 59t-39.5 50.5t-51 21q-39 0 -67 -39.5t-28 -109.5q0 -140 64.5 -228.5t150.5 -88.5q18 0 33.5 2.5t30 10t23.5 12t21.5 16.5t17 16t16 18t12.5 15z" />
    <glyph glyph-name="ccaron" unicode="&#x10d;" horiz-adv-x="509" 
d="M177 563l-105 112q-16 17 2.5 37t36.5 11l146 -72l143 72q19 10 36.5 -11.5t2.5 -36.5l-113 -113q-21 -21 -52 -21h-45q-31 0 -52 22zM451 178q11 12 25.5 8t14.5 -21q0 -73 -55 -124t-157 -51q-117 0 -189 75t-72 175q0 114 74 181.5t180 68.5q93 1 155.5 -41t62.5 -114
q0 -28 -20 -46.5t-62 -16.5q-31 2 -54 20t-35.5 41.5t-22.5 47.5t-23 40t-30 15q-23 -1 -37.5 -28t-14.5 -67q0 -96 42.5 -154t113.5 -58q61 0 104 49z" />
    <glyph glyph-name="Dcaron" unicode="&#x10e;" horiz-adv-x="777" 
d="M277 769l-105 104q-16 16 2.5 34t36.5 10l146 -67l143 67q19 9 36.5 -11t2.5 -33l-113 -105q-21 -20 -52 -20h-45q-31 0 -52 21zM303 710q219 0 335 -98.5t116 -263.5q0 -154 -108 -251t-291 -97h-294q-25 0 -25 21v4q0 13 20.5 40.5t20.5 54.5v470q0 27 -20.5 54.5
t-20.5 40.5v4q0 21 25 21h242zM408 78q58 0 94 43t36 128q0 150 -59 266.5t-146 116.5h-3q-50 0 -50 -52v-387q0 -55 25.5 -85t72.5 -30h30z" />
    <glyph glyph-name="dcaron" unicode="&#x10f;" horiz-adv-x="614" 
d="M736 802q15 0 24 -8.5t9 -22.5q0 -78 -37 -140.5t-90 -92.5q-25 -13 -44 0l-12 8q-21 15 -4 36q48 62 48 189q0 12 8 21.5t20 9.5h78zM541 728v-608q0 -27 20.5 -54.5t20.5 -40.5v-4q0 -21 -25 -21h-159q-27 0 -29 26q-44 -36 -113 -36q-97 0 -167 65.5t-70 184.5
q0 109 70.5 179.5t166.5 70.5q56 0 92 -21v113q0 17 -9 30t-19 20.5t-19 17.5t-9 20v3q0 22 25 29l176 52q48 14 48 -26zM301 43q21 -1 34 17t13 49v206q0 47 -23.5 84.5t-51.5 37.5q-55 0 -60 -104q-2 -38 5.5 -102.5t29.5 -125t53 -62.5z" />
    <glyph glyph-name="Dcroat" unicode="&#x110;" horiz-adv-x="780" 
d="M306 710q219 0 335 -98.5t116 -263.5q0 -154 -108 -251t-291 -97h-294q-25 0 -25 21v4q0 13 20.5 40.5t20.5 54.5v207h-41q-18 0 -18 18v38q0 19 18 19h41v188q0 27 -20.5 54.5t-20.5 40.5v4q0 21 25 21h242zM411 78q58 0 94 43t36 128q0 150 -59 266.5t-146 116.5h-3
q-50 0 -50 -52v-178h83q19 0 19 -19v-34q0 -22 -19 -22h-83v-134q0 -55 25.5 -85t72.5 -30h30z" />
    <glyph glyph-name="dcroat" unicode="&#x111;" horiz-adv-x="596" 
d="M601 593q19 0 19 -19v-34q0 -22 -19 -22h-60v-398q0 -27 20.5 -54.5t20.5 -40.5v-4q0 -21 -25 -21h-159q-27 0 -29 26q-44 -36 -113 -36q-97 0 -167 65.5t-70 184.5q0 109 70.5 179.5t166.5 70.5q56 0 92 -21v49h-74q-18 0 -18 18v38q0 19 18 19h73q-4 20 -29.5 41.5
t-25.5 35.5v3q0 22 25 29l176 52q48 14 48 -26v-135h60zM301 43q21 -1 34 17t13 49v206q0 47 -23.5 84.5t-51.5 37.5q-55 0 -60 -104q-2 -38 5.5 -102.5t29.5 -125t53 -62.5z" />
    <glyph glyph-name="Emacron" unicode="&#x112;" horiz-adv-x="628" 
d="M164 785q-26 0 -26 26v69q0 26 26 26h288q26 0 26 -26v-69q0 -26 -26 -26h-288zM61 0q-25 0 -25 21v4q0 13 20.5 40.5t20.5 54.5v470q0 27 -20.5 54.5t-20.5 40.5v4q0 21 25 21h466q18 0 26 -7.5t11 -25.5l24 -134q2 -14 -6 -22.5t-22 -8.5h-6q-21 0 -42 19t-36.5 41.5
t-39.5 41.5t-49 19h-56q-50 0 -50 -52v-182h85q20 0 35 13.5t22.5 29.5t17.5 29.5t20 13.5h10q21 0 21 -25v-195q0 -25 -21 -25h-10q-10 0 -20 12.5t-17.5 28t-22.5 28t-35 12.5h-85v-164q0 -32 15.5 -56t50.5 -24h72q25 0 47 20t35.5 44.5t33.5 44.5t42 20h10
q13 0 19.5 -10.5t4.5 -22.5l-22 -138q-3 -19 -11 -27t-26 -8h-491z" />
    <glyph glyph-name="emacron" unicode="&#x113;" horiz-adv-x="500" 
d="M117 570q-26 0 -26 26v69q0 26 26 26h288q26 0 26 -26v-69q0 -26 -26 -26h-288zM442 162q11 12 25 7t14 -22q0 -52 -53 -104.5t-154 -52.5q-112 0 -183.5 70t-71.5 183q0 109 73.5 177.5t176.5 69.5q93 1 149 -40.5t56 -107.5q0 -52 -44.5 -92.5t-115.5 -50.5
q-40 -6 -79 -6q40 -63 110 -63q65 0 97 32zM247 432q-22 0 -35.5 -26t-13.5 -69q0 -49 12 -89q13 0 17 1q66 10 66 110q0 31 -13.5 52t-32.5 21z" />
    <glyph glyph-name="Edotaccent" unicode="&#x116;" horiz-adv-x="628" 
d="M317 748q-51 0 -83 28.5t-32 71.5t32 71.5t83 28.5t83 -28.5t32 -71.5t-32 -71.5t-83 -28.5zM61 0q-25 0 -25 21v4q0 13 20.5 40.5t20.5 54.5v470q0 27 -20.5 54.5t-20.5 40.5v4q0 21 25 21h466q18 0 26 -7.5t11 -25.5l24 -134q2 -14 -6 -22.5t-22 -8.5h-6q-21 0 -42 19
t-36.5 41.5t-39.5 41.5t-49 19h-56q-50 0 -50 -52v-182h85q20 0 35 13.5t22.5 29.5t17.5 29.5t20 13.5h10q21 0 21 -25v-195q0 -25 -21 -25h-10q-10 0 -20 12.5t-17.5 28t-22.5 28t-35 12.5h-85v-164q0 -32 15.5 -56t50.5 -24h72q25 0 47 20t35.5 44.5t33.5 44.5t42 20h10
q13 0 19.5 -10.5t4.5 -22.5l-22 -138q-3 -19 -11 -27t-26 -8h-491z" />
    <glyph glyph-name="edotaccent" unicode="&#x117;" horiz-adv-x="500" 
d="M259 529q-56 0 -91.5 32t-35.5 79t35.5 78.5t91.5 31.5t91.5 -31.5t35.5 -78.5t-35.5 -79t-91.5 -32zM442 162q11 12 25 7t14 -22q0 -52 -53 -104.5t-154 -52.5q-112 0 -183.5 70t-71.5 183q0 109 73.5 177.5t176.5 69.5q93 1 149 -40.5t56 -107.5q0 -52 -44.5 -92.5
t-115.5 -50.5q-40 -6 -79 -6q40 -63 110 -63q65 0 97 32zM247 432q-22 0 -35.5 -26t-13.5 -69q0 -49 12 -89q13 0 17 1q66 10 66 110q0 31 -13.5 52t-32.5 21z" />
    <glyph glyph-name="Eogonek" unicode="&#x118;" horiz-adv-x="628" 
d="M575 6q-46 -62 -46 -114q-1 -44 26 -44q6 0 15 3q23 8 30 -18q9 -29 -13 -47q-5 -5 -11 -7q-18 -8 -57 -8q-32 0 -59 7.5t-48.5 30.5t-21.5 58q0 76 100 133h-429q-25 0 -25 21v4q0 13 20.5 40.5t20.5 54.5v470q0 27 -20.5 54.5t-20.5 40.5v4q0 21 25 21h466
q18 0 26 -7.5t11 -25.5l24 -134q2 -14 -6 -22.5t-22 -8.5h-6q-21 0 -42 19t-36.5 41.5t-39.5 41.5t-49 19h-56q-50 0 -50 -52v-182h85q20 0 35 13.5t22.5 29.5t17.5 29.5t20 13.5h10q21 0 21 -25v-195q0 -25 -21 -25h-10q-10 0 -20 12.5t-17.5 28t-22.5 28t-35 12.5h-85
v-164q0 -32 15.5 -56t50.5 -24h72q25 0 47 20t35.5 44.5t33.5 44.5t42 20h10q13 0 19.5 -10.5t4.5 -22.5l-22 -138q-3 -21 -14 -29z" />
    <glyph glyph-name="eogonek" unicode="&#x119;" horiz-adv-x="500" 
d="M397 20q-45 -61 -45 -112q-1 -44 26 -44q6 0 15 3q23 8 30 -18q9 -29 -13 -47q-5 -5 -11 -7q-18 -8 -57 -8q-32 0 -59 7.5t-48.5 30.5t-21.5 58q0 61 61 107q-112 0 -183.5 70t-71.5 183q0 109 73.5 177.5t176.5 69.5q93 1 149 -40.5t56 -107.5q0 -52 -44.5 -92.5
t-115.5 -50.5q-40 -6 -79 -6q40 -63 110 -63q65 0 97 32q11 12 25 7t14 -22q0 -31 -21.5 -67.5t-62.5 -59.5zM247 432q-22 0 -35.5 -26t-13.5 -69q0 -49 12 -89q13 0 17 1q66 10 66 110q0 31 -13.5 52t-32.5 21z" />
    <glyph glyph-name="Ecaron" unicode="&#x11a;" horiz-adv-x="628" 
d="M230 769l-105 104q-16 16 2.5 34t36.5 10l146 -67l143 67q19 9 36.5 -11t2.5 -33l-113 -105q-21 -20 -52 -20h-45q-31 0 -52 21zM587 206q13 0 19.5 -10.5t4.5 -22.5l-22 -138q-3 -19 -11 -27t-26 -8h-491q-25 0 -25 21v4q0 13 20.5 40.5t20.5 54.5v470q0 27 -20.5 54.5
t-20.5 40.5v4q0 21 25 21h466q18 0 26 -7.5t11 -25.5l24 -134q2 -14 -6 -22.5t-22 -8.5h-6q-21 0 -42 19t-36.5 41.5t-39.5 41.5t-49 19h-56q-50 0 -50 -52v-182h85q20 0 35 13.5t22.5 29.5t17.5 29.5t20 13.5h10q21 0 21 -25v-195q0 -25 -21 -25h-10q-10 0 -20 12.5
t-17.5 28t-22.5 28t-35 12.5h-85v-164q0 -32 15.5 -56t50.5 -24h72q25 0 47 20t35.5 44.5t33.5 44.5t42 20h10z" />
    <glyph glyph-name="ecaron" unicode="&#x11b;" horiz-adv-x="500" 
d="M183 563l-105 112q-16 17 2.5 37t36.5 11l146 -72l143 72q19 10 36.5 -11.5t2.5 -36.5l-113 -113q-21 -21 -52 -21h-45q-31 0 -52 22zM442 162q11 12 25 7t14 -22q0 -52 -53 -104.5t-154 -52.5q-112 0 -183.5 70t-71.5 183q0 109 73.5 177.5t176.5 69.5q93 1 149 -40.5
t56 -107.5q0 -52 -44.5 -92.5t-115.5 -50.5q-40 -6 -79 -6q40 -63 110 -63q65 0 97 32zM247 432q-22 0 -35.5 -26t-13.5 -69q0 -49 12 -89q13 0 17 1q66 10 66 110q0 31 -13.5 52t-32.5 21z" />
    <glyph glyph-name="Gbreve" unicode="&#x11e;" horiz-adv-x="715" 
d="M380 755q-75 0 -124 40t-57 100q-3 25 25.5 32.5t39.5 -9.5q13 -21 46 -34.5t70 -13.5q39 0 71 13t45 35q9 14 38 6.5t27 -29.5q-8 -61 -56 -100.5t-125 -39.5zM677 369q25 0 25 -21v-4q0 -13 -23 -40.5t-23 -54.5v-229q0 -12 -8 -21t-20 -9q-19 0 -32 12l-44 43
q-33 -25 -81.5 -40t-90.5 -15q-165 0 -261 106.5t-96 258.5q0 110 51 195t127 127t160 42q129 0 214 -51.5t85 -133.5q0 -41 -24.5 -66t-65.5 -25q-48 0 -87 31t-60.5 67.5t-51 67.5t-60.5 31q-42 0 -66 -41.5t-24 -107.5q0 -146 62.5 -249.5t151.5 -103.5q18 0 30 3v109
q0 27 -26.5 54.5t-26.5 40.5v4q0 9 8 15t20 6z" />
    <glyph glyph-name="gbreve" unicode="&#x11f;" horiz-adv-x="599" 
d="M300 541q-75 0 -124 40t-57 100q-3 25 25.5 32.5t39.5 -9.5q13 -21 46 -34.5t70 -13.5q39 0 71 13t45 35q9 14 38 6.5t27 -29.5q-8 -61 -56 -100.5t-125 -39.5zM561 464q27 -3 27 -31v-4q0 -8 -11.5 -20.5t-23 -32t-11.5 -45.5v-263q0 -129 -74 -198t-185 -69
q-113 0 -185 36t-72 95q0 29 20 51.5t57 22.5q30 0 52 -15.5t35 -38t25 -44.5t29 -38t39 -17q29 -1 48 35.5t19 117.5v16q-39 -22 -92 -22q-97 0 -167 64t-70 176q0 109 70.5 179.5t166.5 70.5q70 0 113 -35q5 34 52 27zM303 53q21 -1 34 17t13 49v196q0 47 -23.5 84.5
t-51.5 37.5q-55 0 -60 -104q-4 -69 19.5 -173t68.5 -107z" />
    <glyph glyph-name="Gdotaccent" unicode="&#x120;" horiz-adv-x="715" 
d="M389 748q-51 0 -83 28.5t-32 71.5t32 71.5t83 28.5t83 -28.5t32 -71.5t-32 -71.5t-83 -28.5zM677 369q25 0 25 -21v-4q0 -13 -23 -40.5t-23 -54.5v-229q0 -12 -8 -21t-20 -9q-19 0 -32 12l-44 43q-33 -25 -81.5 -40t-90.5 -15q-165 0 -261 106.5t-96 258.5q0 110 51 195
t127 127t160 42q129 0 214 -51.5t85 -133.5q0 -41 -24.5 -66t-65.5 -25q-48 0 -87 31t-60.5 67.5t-51 67.5t-60.5 31q-42 0 -66 -41.5t-24 -107.5q0 -146 62.5 -249.5t151.5 -103.5q18 0 30 3v109q0 27 -26.5 54.5t-26.5 40.5v4q0 9 8 15t20 6z" />
    <glyph glyph-name="gdotaccent" unicode="&#x121;" horiz-adv-x="599" 
d="M299 529q-56 0 -91.5 32t-35.5 79t35.5 78.5t91.5 31.5t91.5 -31.5t35.5 -78.5t-35.5 -79t-91.5 -32zM561 464q27 -3 27 -31v-4q0 -8 -11.5 -20.5t-23 -32t-11.5 -45.5v-263q0 -129 -74 -198t-185 -69q-113 0 -185 36t-72 95q0 29 20 51.5t57 22.5q30 0 52 -15.5t35 -38
t25 -44.5t29 -38t39 -17q29 -1 48 35.5t19 117.5v16q-39 -22 -92 -22q-97 0 -167 64t-70 176q0 109 70.5 179.5t166.5 70.5q70 0 113 -35q5 34 52 27zM303 53q21 -1 34 17t13 49v196q0 47 -23.5 84.5t-51.5 37.5q-55 0 -60 -104q-4 -69 19.5 -173t68.5 -107z" />
    <glyph glyph-name="uni0122" unicode="&#x122;" horiz-adv-x="715" 
d="M677 369q25 0 25 -21v-4q0 -13 -23 -40.5t-23 -54.5v-229q0 -12 -8 -21t-20 -9q-19 0 -32 12l-44 43q-33 -25 -81.5 -40t-90.5 -15q-165 0 -261 106.5t-96 258.5q0 110 51 195t127 127t160 42q129 0 214 -51.5t85 -133.5q0 -41 -24.5 -66t-65.5 -25q-48 0 -87 31
t-60.5 67.5t-51 67.5t-60.5 31q-42 0 -66 -41.5t-24 -107.5q0 -146 62.5 -249.5t151.5 -103.5q18 0 30 3v109q0 27 -26.5 54.5t-26.5 40.5v4q0 9 8 15t20 6zM378 -24q42 0 72 -31t30 -84q0 -119 -140 -201q-16 -10 -29.5 4.5t-0.5 27.5q22 22 28.5 29.5t14 20t7.5 24.5
q2 20 -12 20q-27 0 -47 25t-20 63q0 46 26 74t71 28z" />
    <glyph glyph-name="uni0123" unicode="&#x123;" horiz-adv-x="599" 
d="M304 527q-44 0 -75.5 32.5t-31.5 88.5q0 124 146 211q17 10 31.5 -5t0.5 -29q-42 -43 -48 -59q-4 -9 -4 -18q-2 -22 12 -22q29 0 50 -26t21 -66q0 -48 -27.5 -77.5t-74.5 -29.5zM561 464q27 -3 27 -31v-4q0 -8 -11.5 -20.5t-23 -32t-11.5 -45.5v-263q0 -129 -74 -198
t-185 -69q-113 0 -185 36t-72 95q0 29 20 51.5t57 22.5q30 0 52 -15.5t35 -38t25 -44.5t29 -38t39 -17q29 -1 48 35.5t19 117.5v16q-39 -22 -92 -22q-97 0 -167 64t-70 176q0 109 70.5 179.5t166.5 70.5q70 0 113 -35q5 34 52 27zM303 53q21 -1 34 17t13 49v196
q0 47 -23.5 84.5t-51.5 37.5q-55 0 -60 -104q-4 -69 19.5 -173t68.5 -107z" />
    <glyph glyph-name="Hbar" unicode="&#x126;" horiz-adv-x="807" 
d="M774 560q27 0 27 -21v-31q0 -21 -27 -21h-52v-367q0 -27 23 -54.5t23 -40.5v-4q0 -21 -25 -21h-243q-24 0 -24 21v4q0 13 20 40.5t20 54.5l-1 194h-228l-1 -194q0 -27 23 -54.5t23 -40.5v-4q0 -21 -25 -21h-243q-25 0 -25 21v4q0 13 20.5 40.5t20.5 54.5v367h-47
q-26 0 -26 21v31q0 21 26 21h47v30q0 27 -20.5 54.5t-20.5 40.5v4q0 21 25 21h243q25 0 25 -21v-4q0 -13 -22.5 -40.5t-22.5 -54.5v-30h229v30q0 27 -20 54.5t-20 40.5v4q0 21 24 21h243q25 0 25 -21v-4q0 -13 -23 -40.5t-23 -54.5v-30h52zM515 400v87h-228v-87h228z" />
    <glyph glyph-name="hbar" unicode="&#x127;" horiz-adv-x="617" 
d="M572 120q2 -26 19 -53.5t17 -41.5v-4q0 -21 -25 -21h-221q-25 0 -25 21v4q0 13 19 40.5t17 54.5l-10 182q-4 64 -15.5 89.5t-39.5 25.5q-49 0 -49 -86v-211q0 -27 23 -54.5t23 -40.5v-4q0 -21 -25 -21h-241q-25 0 -25 21v4q0 13 23 40.5t23 54.5v390h-42q-18 0 -18 18v38
q0 19 18 19h35q-5 10 -24.5 27t-19.5 30v4q0 19 25 31l178 78q19 8 30 2.5t11 -24.5v-148h92q19 0 19 -19v-34q0 -22 -19 -22h-92v-59q44 39 115 39q73 0 127.5 -45.5t62.5 -149.5z" />
    <glyph glyph-name="Itilde" unicode="&#x128;" horiz-adv-x="364" 
d="M127 911q40 0 90.5 -22.5t68.5 -22.5q29 0 44 20q12 15 27 15h7q23 0 18 -25q-11 -50 -43 -86t-78 -36q-34 0 -87 24t-77 24q-20 0 -36 -17q-2 -3 -5 -6.5t-4.5 -5t-4.5 -3.5t-6.5 -2.5t-8.5 -0.5h-12q-22 0 -17 24q10 50 44 85t80 35zM36 21v4q0 13 20.5 40.5t20.5 54.5
v470q0 27 -20.5 54.5t-20.5 40.5v4q0 21 25 21h242q25 0 25 -21v-4q0 -13 -23 -40.5t-23 -54.5v-470q0 -27 23 -54.5t23 -40.5v-4q0 -21 -25 -21h-242q-25 0 -25 21z" />
    <glyph glyph-name="itilde" unicode="&#x129;" horiz-adv-x="328" 
d="M105 725q40 0 90.5 -22.5t68.5 -22.5q29 0 44 20q12 15 27 15h7q23 0 18 -25q-11 -50 -43 -86t-78 -36q-34 0 -87 24t-77 24q-20 0 -36 -17q-2 -3 -5 -6.5t-4.5 -5t-4.5 -3.5t-6.5 -2.5t-8.5 -0.5h-12q-22 0 -17 24q10 50 44 85t80 35zM49 0q-25 0 -25 21v4
q0 13 20.5 40.5t20.5 54.5v161q0 27 -20.5 53.5t-20.5 37.5v4q0 13 25 25l171 84q22 10 35.5 2t13.5 -25v-342q0 -27 23 -54.5t23 -40.5v-4q0 -21 -25 -21h-241z" />
    <glyph glyph-name="Imacron" unicode="&#x12a;" horiz-adv-x="364" 
d="M40 785q-26 0 -26 26v69q0 26 26 26h288q26 0 26 -26v-69q0 -26 -26 -26h-288zM36 21v4q0 13 20.5 40.5t20.5 54.5v470q0 27 -20.5 54.5t-20.5 40.5v4q0 21 25 21h242q25 0 25 -21v-4q0 -13 -23 -40.5t-23 -54.5v-470q0 -27 23 -54.5t23 -40.5v-4q0 -21 -25 -21h-242
q-25 0 -25 21z" />
    <glyph glyph-name="imacron" unicode="&#x12b;" horiz-adv-x="328" 
d="M27 570q-26 0 -26 26v69q0 26 26 26h288q26 0 26 -26v-69q0 -26 -26 -26h-288zM49 0q-25 0 -25 21v4q0 13 20.5 40.5t20.5 54.5v161q0 27 -20.5 53.5t-20.5 37.5v4q0 13 25 25l171 84q22 10 35.5 2t13.5 -25v-342q0 -27 23 -54.5t23 -40.5v-4q0 -21 -25 -21h-241z" />
    <glyph glyph-name="Iogonek" unicode="&#x12e;" horiz-adv-x="364" 
d="M328 685q0 -13 -23 -40.5t-23 -54.5v-470q0 -27 23 -54.5t23 -40.5v-4q0 -21 -25 -21h-84q-42 -60 -42 -108q-1 -44 26 -44q6 0 15 3q23 8 30 -18q9 -29 -13 -47q-5 -5 -11 -7q-18 -8 -57 -8q-32 0 -59 7.5t-48.5 30.5t-21.5 58q0 76 100 133h-77q-25 0 -25 21v4
q0 13 20.5 40.5t20.5 54.5v470q0 27 -20.5 54.5t-20.5 40.5v4q0 21 25 21h242q25 0 25 -21v-4z" />
    <glyph glyph-name="iogonek" unicode="&#x12f;" horiz-adv-x="328" 
d="M169 529q-56 0 -91.5 32t-35.5 79t35.5 78.5t91.5 31.5t91.5 -31.5t35.5 -78.5t-35.5 -79t-91.5 -32zM269 120q0 -27 23 -54.5t23 -40.5v-4q0 -21 -25 -21h-53q-41 -60 -41 -107q-1 -44 26 -44q6 0 15 3q23 8 30 -18q9 -29 -13 -47q-5 -5 -11 -7q-18 -8 -57 -8
q-32 0 -59 7.5t-48.5 30.5t-21.5 58q0 75 99 132h-107q-25 0 -25 21v4q0 13 20.5 40.5t20.5 54.5v161q0 27 -20.5 53.5t-20.5 37.5v4q0 13 25 25l171 84q22 10 35.5 2t13.5 -25v-342z" />
    <glyph glyph-name="Idotaccent" unicode="&#x130;" horiz-adv-x="364" 
d="M193 748q-51 0 -83 28.5t-32 71.5t32 71.5t83 28.5t83 -28.5t32 -71.5t-32 -71.5t-83 -28.5zM36 21v4q0 13 20.5 40.5t20.5 54.5v470q0 27 -20.5 54.5t-20.5 40.5v4q0 21 25 21h242q25 0 25 -21v-4q0 -13 -23 -40.5t-23 -54.5v-470q0 -27 23 -54.5t23 -40.5v-4
q0 -21 -25 -21h-242q-25 0 -25 21z" />
    <glyph glyph-name="dotlessi" unicode="&#x131;" horiz-adv-x="328" 
d="M49 0q-25 0 -25 21v4q0 13 20.5 40.5t20.5 54.5v161q0 27 -20.5 53.5t-20.5 37.5v4q0 13 25 25l171 84q22 10 35.5 2t13.5 -25v-342q0 -27 23 -54.5t23 -40.5v-4q0 -21 -25 -21h-241z" />
    <glyph glyph-name="IJ" unicode="&#x132;" horiz-adv-x="933" 
d="M36 21v4q0 13 20.5 40.5t20.5 54.5v470q0 27 -20.5 54.5t-20.5 40.5v4q0 21 25 21h242q25 0 25 -21v-4q0 -13 -23 -40.5t-23 -54.5v-470q0 -27 23 -54.5t23 -40.5v-4q0 -21 -25 -21h-242q-25 0 -25 21zM659 590q0 27 -20.5 54.5t-20.5 40.5v4q0 21 25 21h245q25 0 25 -21
v-4q0 -13 -23 -40.5t-23 -54.5v-255q0 -182 -65.5 -262.5t-195.5 -82.5q-73 -1 -125.5 17t-78.5 48t-37.5 60.5t-11.5 62.5q0 44 25 71.5t66 27.5q42 0 66.5 -21.5t33 -52t14.5 -61t18.5 -52t36.5 -21.5q46 0 46 136v385z" />
    <glyph glyph-name="ij" unicode="&#x133;" horiz-adv-x="636" 
d="M169 529q-56 0 -91.5 32t-35.5 79t35.5 78.5t91.5 31.5t91.5 -31.5t35.5 -78.5t-35.5 -79t-91.5 -32zM482 529q-56 0 -91.5 32t-35.5 79t35.5 78.5t91.5 31.5t91.5 -31.5t35.5 -78.5t-35.5 -79t-91.5 -32zM49 0q-25 0 -25 21v4q0 13 20.5 40.5t20.5 54.5v161
q0 27 -20.5 53.5t-20.5 37.5v4q0 13 25 25l171 84q22 10 35.5 2t13.5 -25v-342q0 -27 23 -54.5t23 -40.5v-4q0 -21 -25 -21h-241zM392 -203q-80 0 -126.5 28t-46.5 86q0 36 24 58.5t60 22.5q39 0 60 -21t25 -45.5t15 -45.5t31 -21q16 0 25.5 11t9.5 28q0 35 -19.5 60.5
t-38.5 48t-19 50.5v224q0 27 -20.5 53.5t-20.5 37.5v4q0 13 25 25l171 84q23 10 36 2t13 -25v-472q0 -86 -45 -131q-32 -32 -68 -47t-91 -15z" />
    <glyph glyph-name="uni0136" unicode="&#x136;" horiz-adv-x="742" 
d="M694 154q6 -37 34.5 -76.5t28.5 -52.5v-4q0 -21 -25 -21h-275q-25 0 -25 21v4q0 12 12 24.5t24 29.5t12 41q-1 52 -39 118.5t-89 99.5l-69 -71v-147q0 -27 23 -54.5t23 -40.5v-4q0 -21 -25 -21h-243q-25 0 -25 21v4q0 13 20.5 40.5t20.5 54.5v470q0 27 -20.5 54.5
t-20.5 40.5v4q0 21 25 21h243q25 0 25 -21v-4q0 -13 -23 -40.5t-23 -54.5v-201l193 201q14 14 16 28t-3.5 23t-12 22t-6.5 22v4q0 21 25 21h179q25 0 25 -21v-4q0 -14 -14.5 -26.5t-41.5 -31t-45 -37.5l-111 -114q87 -54 140.5 -148t66.5 -174zM378 -24q42 0 72 -31t30 -84
q0 -119 -140 -201q-16 -10 -29.5 4.5t-0.5 27.5q22 22 28.5 29.5t14 20t7.5 24.5q2 20 -12 20q-27 0 -47 25t-20 63q0 46 26 74t71 28z" />
    <glyph glyph-name="uni0137" unicode="&#x137;" horiz-adv-x="618" 
d="M575 91q4 -6 31.5 -27t27.5 -39v-4q0 -21 -25 -21h-230q-25 0 -25 22v4q0 13 15 32t6 33l-75 121q-18 -3 -39 -3v-89q0 -27 23 -54.5t23 -40.5v-4q0 -21 -25 -21h-241q-25 0 -25 21v4q0 13 20.5 40.5t20.5 54.5v429q0 27 -25.5 53.5t-25.5 37.5v4q0 13 25 25l181 84
q22 9 35.5 1t13.5 -24v-442q42 5 67 27.5t36.5 51t22 56.5t32 47t57.5 19q43 0 65 -23t22 -60q0 -36 -28 -74.5t-78 -67.5zM305 -24q42 0 72 -31t30 -84q0 -119 -140 -201q-16 -10 -29.5 4.5t-0.5 27.5q22 22 28.5 29.5t14 20t7.5 24.5q2 20 -12 20q-27 0 -47 25t-20 63
q0 46 26 74t71 28z" />
    <glyph glyph-name="kgreenlandic" unicode="&#x138;" horiz-adv-x="618" 
d="M575 91q4 -6 31.5 -27t27.5 -39v-4q0 -21 -25 -21h-230q-25 0 -25 22v4q0 13 15 32t6 33l-75 121q-18 -3 -39 -3v-89q0 -27 23 -54.5t23 -40.5v-4q0 -21 -25 -21h-241q-25 0 -25 21v4q0 13 20.5 40.5t20.5 54.5v266q0 27 -25.5 53.5t-25.5 37.5v4q0 13 25 25l181 84
q22 9 35.5 1t13.5 -24v-279q42 5 67 27.5t36.5 51t22 56.5t32 47t57.5 19q43 0 65 -23t22 -60q0 -36 -28 -74.5t-78 -67.5z" />
    <glyph glyph-name="Lacute" unicode="&#x139;" horiz-adv-x="617" 
d="M103 772q-32 -2 -41 23q-13 28 14 44l190 107q24 12 40 5t23 -30l24 -82q6 -22 -3 -37.5t-33 -16.5zM61 0q-25 0 -25 21v4q0 13 20.5 40.5t20.5 54.5v470q0 27 -20.5 54.5t-20.5 40.5v4q0 21 25 21h245q25 0 25 -21v-4q0 -13 -23 -40.5t-23 -54.5v-440q0 -30 13 -51
t40 -21h72q31 0 56 23.5t38.5 51.5t30.5 51.5t34 23.5h15q13 0 19 -7.5t4 -19.5l-27 -166q-3 -19 -11.5 -27t-25.5 -8h-482z" />
    <glyph glyph-name="lacute" unicode="&#x13a;" horiz-adv-x="321" 
d="M19 797q-32 -2 -41 23q-13 28 14 44l190 107q24 12 40 5t23 -30l24 -82q6 -22 -3 -37.5t-33 -16.5zM41 0q-25 0 -25 21v4q0 13 20.5 40.5t20.5 54.5v429q0 27 -20.5 53.5t-20.5 37.5v4q0 13 25 25l171 84q22 10 35.5 2t13.5 -25v-610q0 -27 23 -54.5t23 -40.5v-4
q0 -21 -25 -21h-241z" />
    <glyph glyph-name="uni013B" unicode="&#x13b;" horiz-adv-x="617" 
d="M61 0q-25 0 -25 21v4q0 13 20.5 40.5t20.5 54.5v470q0 27 -20.5 54.5t-20.5 40.5v4q0 21 25 21h245q25 0 25 -21v-4q0 -13 -23 -40.5t-23 -54.5v-440q0 -30 13 -51t40 -21h72q31 0 56 23.5t38.5 51.5t30.5 51.5t34 23.5h15q13 0 19 -7.5t4 -19.5l-27 -166
q-3 -19 -11.5 -27t-25.5 -8h-482zM277 -340q-16 -10 -29.5 4.5t-0.5 27.5q22 22 28.5 29.5t14 20t7.5 24.5q2 20 -12 20q-27 0 -47 25t-20 63q0 46 26 74t71 28q42 0 72 -31t30 -84q0 -119 -140 -201z" />
    <glyph glyph-name="uni013C" unicode="&#x13c;" horiz-adv-x="321" 
d="M41 0q-25 0 -25 21v4q0 13 20.5 40.5t20.5 54.5v429q0 27 -20.5 53.5t-20.5 37.5v4q0 13 25 25l171 84q22 10 35.5 2t13.5 -25v-610q0 -27 23 -54.5t23 -40.5v-4q0 -21 -25 -21h-241zM120 -340q-16 -10 -29.5 4.5t-0.5 27.5q22 22 28.5 29.5t14 20t7.5 24.5q2 20 -12 20
q-27 0 -47 25t-20 63q0 46 26 74t71 28q42 0 72 -31t30 -84q0 -119 -140 -201z" />
    <glyph glyph-name="Lcaron" unicode="&#x13d;" horiz-adv-x="622" 
d="M410 538l-12 8q-21 15 -4 36q48 62 48 189q0 12 8 21.5t20 9.5h78q15 0 24 -8.5t9 -22.5q0 -78 -37 -140.5t-90 -92.5q-25 -13 -44 0zM61 0q-25 0 -25 21v4q0 13 20.5 40.5t20.5 54.5v470q0 27 -20.5 54.5t-20.5 40.5v4q0 21 25 21h245q25 0 25 -21v-4q0 -13 -23 -40.5
t-23 -54.5v-440q0 -30 13 -51t40 -21h72q31 0 56 23.5t38.5 51.5t30.5 51.5t34 23.5h15q13 0 19 -7.5t4 -19.5l-27 -166q-3 -19 -11.5 -27t-25.5 -8h-482z" />
    <glyph glyph-name="lcaron" unicode="&#x13e;" horiz-adv-x="337" 
d="M319 538l-12 8q-21 15 -4 36q48 62 48 189q0 12 8 21.5t20 9.5h78q15 0 24 -8.5t9 -22.5q0 -78 -37 -140.5t-90 -92.5q-25 -13 -44 0zM41 0q-25 0 -25 21v4q0 13 20.5 40.5t20.5 54.5v429q0 27 -20.5 53.5t-20.5 37.5v4q0 13 25 25l171 84q22 10 35.5 2t13.5 -25v-610
q0 -27 23 -54.5t23 -40.5v-4q0 -21 -25 -21h-241z" />
    <glyph glyph-name="Ldot" unicode="&#x13f;" horiz-adv-x="624" 
d="M61 0q-25 0 -25 21v4q0 13 20.5 40.5t20.5 54.5v470q0 27 -20.5 54.5t-20.5 40.5v4q0 21 25 21h245q25 0 25 -21v-4q0 -13 -23 -40.5t-23 -54.5v-440q0 -30 13 -51t40 -21h72q31 0 56 23.5t38.5 51.5t30.5 51.5t34 23.5h15q13 0 19 -7.5t4 -19.5l-27 -166
q-3 -19 -11.5 -27t-25.5 -8h-482zM484 277q-51 0 -84 26.5t-33 77.5t33 77.5t84 26.5t84 -26.5t33 -77.5t-33 -77.5t-84 -26.5z" />
    <glyph glyph-name="ldot" unicode="&#x140;" horiz-adv-x="562" 
d="M41 0q-25 0 -25 21v4q0 13 20.5 40.5t20.5 54.5v429q0 27 -20.5 53.5t-20.5 37.5v4q0 13 25 25l171 84q22 10 35.5 2t13.5 -25v-610q0 -27 23 -54.5t23 -40.5v-4q0 -21 -25 -21h-241zM440 282q-51 0 -84 26.5t-33 77.5t33 77.5t84 26.5t84 -26.5t33 -77.5t-33 -77.5
t-84 -26.5z" />
    <glyph glyph-name="Lslash" unicode="&#x141;" horiz-adv-x="643" 
d="M610 228q13 0 19 -7.5t4 -19.5l-27 -166q-3 -19 -11.5 -27t-25.5 -8h-482q-25 0 -25 21v4q0 13 20.5 40.5t20.5 54.5v126l-49 -21q-23 -9 -32 14l-9 22q-9 23 14 32l76 32v265q0 27 -20.5 54.5t-20.5 40.5v4q0 21 25 21h245q25 0 25 -21v-4q0 -13 -23 -40.5t-23 -54.5
v-176l73 31q24 10 33 -15l8 -21q8 -23 -14 -32l-100 -43v-184q0 -30 13 -51t40 -21h72q31 0 56 23.5t38.5 51.5t30.5 51.5t34 23.5h15z" />
    <glyph glyph-name="lslash" unicode="&#x142;" horiz-adv-x="407" 
d="M407 444q9 -15 -7 -27l-85 -55v-242q0 -27 23 -54.5t23 -40.5v-4q0 -21 -25 -21h-241q-25 0 -25 21v4q0 13 20.5 40.5t20.5 54.5v111l-54 -35q-15 -10 -25 4l-25 39q-10 15 8 27l96 62v221q0 27 -20.5 53.5t-20.5 37.5v4q0 13 25 25l171 84q22 10 35.5 2t13.5 -25v-269
l38 25q20 13 31 -5z" />
    <glyph glyph-name="Nacute" unicode="&#x143;" horiz-adv-x="762" 
d="M311 772q-32 -2 -41 23q-13 28 14 44l190 107q24 12 40 5t23 -30l24 -82q6 -22 -3 -37.5t-33 -16.5zM711 710q25 0 25 -21v-4q0 -13 -23 -40.5t-23 -54.5v-538q0 -52 -52 -52h-65q-31 0 -58 35l-338 443v-358q0 -27 24 -54.5t24 -40.5v-4q0 -21 -25 -21h-139
q-25 0 -25 21v4q0 13 20.5 40.5t20.5 54.5v470q0 27 -20.5 54.5t-20.5 40.5v4q0 21 25 21h258q25 0 25 -21v-4q0 -7 -7.5 -18t-15 -21t-7.5 -25.5t12 -31.5l264 -350v351q0 27 -22.5 54.5t-22.5 40.5v4q0 21 25 21h141z" />
    <glyph glyph-name="nacute" unicode="&#x144;" horiz-adv-x="627" 
d="M255 543q-31 -7 -45 15q-16 26 7 46l170 137q21 16 38.5 11.5t27.5 -25.5l37 -77q11 -20 4 -37.5t-30 -22.5zM582 119q2 -26 19 -53.5t17 -41.5v-4q0 -21 -25 -21h-221q-25 0 -25 21v4q0 13 19 40.5t17 54.5l-10 173q-4 71 -15 98t-40 27q-49 0 -49 -86v-212
q0 -27 23 -54.5t23 -40.5v-4q0 -21 -25 -21h-241q-25 0 -25 21v4q0 13 23 40.5t23 54.5v169q0 21 -14 36.5t-28 28t-14 24.5v4q0 13 26 27l157 78q20 9 30.5 0.5t10.5 -26.5v-41q40 71 140 71q74 0 128 -47.5t63 -157.5z" />
    <glyph glyph-name="uni0145" unicode="&#x145;" horiz-adv-x="762" 
d="M711 710q25 0 25 -21v-4q0 -13 -23 -40.5t-23 -54.5v-538q0 -52 -52 -52h-65q-31 0 -58 35l-338 443v-358q0 -27 24 -54.5t24 -40.5v-4q0 -21 -25 -21h-139q-25 0 -25 21v4q0 13 20.5 40.5t20.5 54.5v470q0 27 -20.5 54.5t-20.5 40.5v4q0 21 25 21h258q25 0 25 -21v-4
q0 -7 -7.5 -18t-15 -21t-7.5 -25.5t12 -31.5l264 -350v351q0 27 -22.5 54.5t-22.5 40.5v4q0 21 25 21h141zM385 -24q42 0 72 -31t30 -84q0 -119 -140 -201q-16 -10 -29.5 4.5t-0.5 27.5q22 22 28.5 29.5t14 20t7.5 24.5q2 20 -12 20q-27 0 -47 25t-20 63q0 46 26 74t71 28z
" />
    <glyph glyph-name="uni0146" unicode="&#x146;" horiz-adv-x="627" 
d="M582 119q2 -26 19 -53.5t17 -41.5v-4q0 -21 -25 -21h-221q-25 0 -25 21v4q0 13 19 40.5t17 54.5l-10 173q-4 71 -15 98t-40 27q-49 0 -49 -86v-212q0 -27 23 -54.5t23 -40.5v-4q0 -21 -25 -21h-241q-25 0 -25 21v4q0 13 23 40.5t23 54.5v169q0 21 -14 36.5t-28 28
t-14 24.5v4q0 13 26 27l157 78q20 9 30.5 0.5t10.5 -26.5v-41q40 71 140 71q74 0 128 -47.5t63 -157.5zM314 -24q42 0 72 -31t30 -84q0 -119 -140 -201q-16 -10 -29.5 4.5t-0.5 27.5q22 22 28.5 29.5t14 20t7.5 24.5q2 20 -12 20q-27 0 -47 25t-20 63q0 46 26 74t71 28z" />
    <glyph glyph-name="Ncaron" unicode="&#x147;" horiz-adv-x="762" 
d="M320 769l-105 104q-16 16 2.5 34t36.5 10l146 -67l143 67q19 9 36.5 -11t2.5 -33l-113 -105q-21 -20 -52 -20h-45q-31 0 -52 21zM711 710q25 0 25 -21v-4q0 -13 -23 -40.5t-23 -54.5v-538q0 -52 -52 -52h-65q-31 0 -58 35l-338 443v-358q0 -27 24 -54.5t24 -40.5v-4
q0 -21 -25 -21h-139q-25 0 -25 21v4q0 13 20.5 40.5t20.5 54.5v470q0 27 -20.5 54.5t-20.5 40.5v4q0 21 25 21h258q25 0 25 -21v-4q0 -7 -7.5 -18t-15 -21t-7.5 -25.5t12 -31.5l264 -350v351q0 27 -22.5 54.5t-22.5 40.5v4q0 21 25 21h141z" />
    <glyph glyph-name="ncaron" unicode="&#x148;" horiz-adv-x="627" 
d="M268 563l-105 112q-16 17 2.5 37t36.5 11l146 -72l143 72q19 10 36.5 -11.5t2.5 -36.5l-113 -113q-21 -21 -52 -21h-45q-31 0 -52 22zM582 119q2 -26 19 -53.5t17 -41.5v-4q0 -21 -25 -21h-221q-25 0 -25 21v4q0 13 19 40.5t17 54.5l-10 173q-4 71 -15 98t-40 27
q-49 0 -49 -86v-212q0 -27 23 -54.5t23 -40.5v-4q0 -21 -25 -21h-241q-25 0 -25 21v4q0 13 23 40.5t23 54.5v169q0 21 -14 36.5t-28 28t-14 24.5v4q0 13 26 27l157 78q20 9 30.5 0.5t10.5 -26.5v-41q40 71 140 71q74 0 128 -47.5t63 -157.5z" />
    <glyph glyph-name="napostrophe" unicode="&#x149;" horiz-adv-x="733" 
d="M73 815q48 0 83 -36t35 -98q0 -137 -161 -232q-19 -11 -34.5 5.5t-0.5 31.5q24 25 32.5 34t16.5 23t9 28q2 24 -14 24q-32 0 -55 29t-23 73q0 53 30.5 85.5t81.5 32.5zM688 119q2 -26 19 -53.5t17 -41.5v-4q0 -21 -25 -21h-221q-25 0 -25 21v4q0 13 19 40.5t17 54.5
l-10 173q-4 71 -15 98t-40 27q-49 0 -49 -86v-212q0 -27 23 -54.5t23 -40.5v-4q0 -21 -25 -21h-241q-25 0 -25 21v4q0 13 23 40.5t23 54.5v169q0 21 -14 36.5t-28 28t-14 24.5v4q0 13 26 27l157 78q20 9 30.5 0.5t10.5 -26.5v-41q40 71 140 71q74 0 128 -47.5t63 -157.5z
" />
    <glyph glyph-name="Eng" unicode="&#x14a;" horiz-adv-x="764" 
d="M711 710q25 0 25 -21v-4q0 -13 -23 -40.5t-23 -54.5v-608q0 -101 -44.5 -156.5t-149.5 -56.5q-106 -1 -160.5 53t-54.5 115q0 47 26 74t68 27q37 0 58 -20.5t28 -50t12 -59t17 -50t35 -20.5q65 0 65 127v23l-413 517v-385q0 -27 24 -54.5t24 -40.5v-4q0 -21 -25 -21h-139
q-25 0 -25 21v4q0 13 20.5 40.5t20.5 54.5v470q0 27 -20.5 54.5t-20.5 40.5v4q0 21 25 21h146q33 0 58 -35l325 -449v364q0 27 -20.5 54.5t-20.5 40.5v4q0 21 25 21h137z" />
    <glyph glyph-name="eng" unicode="&#x14b;" horiz-adv-x="612" 
d="M589 26q4 -53 -8 -99t-34 -68q-32 -32 -68 -47t-91 -15q-75 0 -122.5 31t-47.5 77q0 35 23.5 54.5t60.5 19.5q29 0 47 -12.5t25.5 -30t13 -35t15.5 -30t27 -12.5q16 0 25.5 11t9.5 28q0 26 -11.5 46.5t-25 32.5t-26.5 40.5t-16 69.5l-13 205q-5 72 -16 98.5t-39 26.5
q-49 0 -49 -86v-211q0 -27 23 -54.5t23 -40.5v-4q0 -21 -25 -21h-241q-25 0 -25 21v4q0 13 23 40.5t23 54.5v168q0 21 -14 36.5t-28 28t-14 24.5v4q0 13 26 27l157 78q20 9 30.5 0.5t10.5 -26.5v-41q40 71 140 71q34 0 64 -10t58 -32.5t46.5 -64t22.5 -98.5z" />
    <glyph glyph-name="Omacron" unicode="&#x14c;" horiz-adv-x="754" 
d="M227 785q-26 0 -26 26v69q0 26 26 26h288q26 0 26 -26v-69q0 -26 -26 -26h-288zM376 -10q-142 0 -247.5 100t-105.5 260q0 166 97 268t256 102q144 0 249.5 -104t105.5 -266t-102 -261t-253 -99zM436 74q83 0 83 112q0 76 -32 181.5t-84 187t-101 81.5q-81 0 -81 -115
q0 -88 31.5 -193t83 -179.5t100.5 -74.5z" />
    <glyph glyph-name="omacron" unicode="&#x14d;" horiz-adv-x="593" 
d="M153 570q-26 0 -26 26v69q0 26 26 26h288q26 0 26 -26v-69q0 -26 -26 -26h-288zM297 -10q-113 0 -196 70.5t-83 179.5t83 179.5t196 70.5q114 0 196 -70.5t82 -179.5t-82 -179.5t-196 -70.5zM321 44q28 0 37 25.5t9 79.5q0 36 -9.5 98.5t-35 125.5t-59.5 63
q-27 0 -36 -25t-9 -82q0 -40 9.5 -102.5t35 -122.5t58.5 -60z" />
    <glyph glyph-name="Ohungarumlaut" unicode="&#x150;" horiz-adv-x="754" 
d="M211 726q-11 11 2 36l102 181q28 48 65 13l40 -38q19 -17 20 -34.5t-19 -31.5l-175 -123q-21 -14 -35 -3zM434 726q-11 11 2 36l102 181q28 48 65 13l40 -38q41 -38 1 -66l-175 -123q-22 -15 -35 -3zM376 -10q-142 0 -247.5 100t-105.5 260q0 166 97 268t256 102
q144 0 249.5 -104t105.5 -266t-102 -261t-253 -99zM436 74q83 0 83 112q0 76 -32 181.5t-84 187t-101 81.5q-81 0 -81 -115q0 -88 31.5 -193t83 -179.5t100.5 -74.5z" />
    <glyph glyph-name="ohungarumlaut" unicode="&#x151;" horiz-adv-x="593" 
d="M88 534q-11 11 2 36l102 181q28 48 65 13l40 -38q19 -17 20 -34.5t-19 -31.5l-175 -123q-21 -14 -35 -3zM311 534q-11 11 2 36l102 181q28 48 65 13l40 -38q41 -38 1 -66l-175 -123q-22 -15 -35 -3zM297 -10q-113 0 -196 70.5t-83 179.5t83 179.5t196 70.5
q114 0 196 -70.5t82 -179.5t-82 -179.5t-196 -70.5zM321 44q28 0 37 25.5t9 79.5q0 36 -9.5 98.5t-35 125.5t-59.5 63q-27 0 -36 -25t-9 -82q0 -40 9.5 -102.5t35 -122.5t58.5 -60z" />
    <glyph glyph-name="OE" unicode="&#x152;" horiz-adv-x="1023" 
d="M990 198q11 0 17 -7t4 -18l-25 -138q-3 -19 -11.5 -27t-25.5 -8h-427q-23 0 -25 19q-60 -29 -130 -29q-136 0 -239.5 100.5t-103.5 259.5q0 166 88.5 268t234.5 102q83 0 150 -33v2q0 21 25 21h402q32 0 37 -33l20 -124q2 -14 -6 -22.5t-22 -8.5h-13q-17 0 -34.5 17.5
t-30.5 38t-34.5 38t-45.5 17.5h-67q-50 0 -50 -52v-188h85q20 0 35 13.5t22.5 29.5t17.5 29.5t20 13.5h10q21 0 21 -25v-195q0 -25 -21 -25h-10q-10 0 -20 13t-17.5 28t-22.5 28t-35 13h-85v-167q0 -72 66 -72h72q30 0 55 19t37.5 41.5t28.5 41.5t32 19h21zM437 74
q83 0 83 112q0 76 -32 181.5t-84 187t-101 81.5q-81 0 -81 -115q0 -88 31.5 -193t83 -179.5t100.5 -74.5z" />
    <glyph glyph-name="oe" unicode="&#x153;" horiz-adv-x="834" 
d="M781 162q11 12 25 7t14 -22q0 -50 -56.5 -103.5t-146.5 -53.5q-96 0 -163 53q-70 -53 -157 -53q-113 0 -196 70.5t-83 179.5t83 179.5t196 70.5q87 0 159 -55q67 55 158 55q92 0 142.5 -41t50.5 -92q0 -37 -34 -59l-181 -118q39 -50 100 -50q57 0 89 32zM321 44
q28 0 37 25.5t9 79.5q0 36 -9.5 98.5t-35 125.5t-59.5 63q-27 0 -36 -25t-9 -82q0 -40 9.5 -102.5t35 -122.5t58.5 -60zM598 436q-24 0 -38.5 -24t-14.5 -57q0 -68 18 -119l64 47q26 19 26 55q0 13 -2 27.5t-7.5 31.5t-17.5 28t-28 11z" />
    <glyph glyph-name="Racute" unicode="&#x154;" horiz-adv-x="714" 
d="M253 772q-32 -2 -41 23q-13 28 14 44l190 107q24 12 40 5t23 -30l24 -82q6 -22 -3 -37.5t-33 -16.5zM663 111q1 -20 22 -45.5t21 -40.5v-4q0 -21 -25 -21h-234q-25 0 -25 21v4q0 15 15.5 36.5t15.5 40.5q0 125 -76 167l-92 -1v-148q0 -27 23 -54.5t23 -40.5v-4
q0 -21 -25 -21h-245q-25 0 -25 21v4q0 13 20.5 40.5t20.5 54.5v470q0 27 -20.5 54.5t-20.5 40.5v4q0 21 25 21h286q142 0 222.5 -58.5t80.5 -169.5q0 -43 -27 -88.5t-73 -77.5q107 -69 113 -205zM354 344h18q27 0 45.5 29.5t18.5 88.5q0 72 -33.5 121t-71.5 49h-5
q-18 0 -29.5 -16t-11.5 -40v-144q0 -47 17 -67.5t52 -20.5z" />
    <glyph glyph-name="racute" unicode="&#x155;" horiz-adv-x="473" 
d="M157 543q-31 -7 -45 15q-16 26 7 46l170 137q21 16 38.5 11.5t27.5 -25.5l37 -77q11 -20 4 -37.5t-30 -22.5zM380 490q43 0 68.5 -29.5t25.5 -75.5q0 -106 -86 -106q-35 0 -52.5 15.5t-20 34.5t-9.5 34.5t-22 15.5q-24 0 -24 -62v-197q0 -21 14 -38t28 -31t14 -26v-4
q0 -21 -25 -21h-239q-25 0 -25 21v4q0 13 20.5 40.5t20.5 54.5v171q0 21 -12.5 35.5t-25.5 26t-13 23.5v4q0 18 25 31l159 75q21 8 29.5 1t8.5 -25v-73q33 101 141 101z" />
    <glyph glyph-name="uni0156" unicode="&#x156;" horiz-adv-x="714" 
d="M663 111q1 -20 22 -45.5t21 -40.5v-4q0 -21 -25 -21h-234q-25 0 -25 21v4q0 15 15.5 36.5t15.5 40.5q0 125 -76 167l-92 -1v-148q0 -27 23 -54.5t23 -40.5v-4q0 -21 -25 -21h-245q-25 0 -25 21v4q0 13 20.5 40.5t20.5 54.5v470q0 27 -20.5 54.5t-20.5 40.5v4q0 21 25 21
h286q142 0 222.5 -58.5t80.5 -169.5q0 -43 -27 -88.5t-73 -77.5q107 -69 113 -205zM354 344h18q27 0 45.5 29.5t18.5 88.5q0 72 -33.5 121t-71.5 49h-5q-18 0 -29.5 -16t-11.5 -40v-144q0 -47 17 -67.5t52 -20.5zM370 -4q42 0 72 -31t30 -84q0 -119 -140 -201
q-16 -10 -29.5 4.5t-0.5 27.5q22 22 28.5 29.5t14 20t7.5 24.5q2 20 -12 20q-27 0 -47 25t-20 63q0 46 26 74t71 28z" />
    <glyph glyph-name="uni0157" unicode="&#x157;" horiz-adv-x="473" 
d="M380 490q43 0 68.5 -29.5t25.5 -75.5q0 -106 -86 -106q-35 0 -52.5 15.5t-20 34.5t-9.5 34.5t-22 15.5q-24 0 -24 -62v-197q0 -21 14 -38t28 -31t14 -26v-4q0 -21 -25 -21h-239q-25 0 -25 21v4q0 13 20.5 40.5t20.5 54.5v171q0 21 -12.5 35.5t-25.5 26t-13 23.5v4
q0 18 25 31l159 75q21 8 29.5 1t8.5 -25v-73q33 101 141 101zM163 -24q42 0 72 -31t30 -84q0 -119 -140 -201q-16 -10 -29.5 4.5t-0.5 27.5q22 22 28.5 29.5t14 20t7.5 24.5q2 20 -12 20q-27 0 -47 25t-20 63q0 46 26 74t71 28z" />
    <glyph glyph-name="Rcaron" unicode="&#x158;" horiz-adv-x="714" 
d="M262 769l-105 104q-16 16 2.5 34t36.5 10l146 -67l143 67q19 9 36.5 -11t2.5 -33l-113 -105q-21 -20 -52 -20h-45q-31 0 -52 21zM663 111q1 -20 22 -45.5t21 -40.5v-4q0 -21 -25 -21h-234q-25 0 -25 21v4q0 15 15.5 36.5t15.5 40.5q0 125 -76 167l-92 -1v-148
q0 -27 23 -54.5t23 -40.5v-4q0 -21 -25 -21h-245q-25 0 -25 21v4q0 13 20.5 40.5t20.5 54.5v470q0 27 -20.5 54.5t-20.5 40.5v4q0 21 25 21h286q142 0 222.5 -58.5t80.5 -169.5q0 -43 -27 -88.5t-73 -77.5q107 -69 113 -205zM354 344h18q27 0 45.5 29.5t18.5 88.5
q0 72 -33.5 121t-71.5 49h-5q-18 0 -29.5 -16t-11.5 -40v-144q0 -47 17 -67.5t52 -20.5z" />
    <glyph glyph-name="rcaron" unicode="&#x159;" horiz-adv-x="473" 
d="M170 563l-105 112q-16 17 2.5 37t36.5 11l146 -72l143 72q19 10 36.5 -11.5t2.5 -36.5l-113 -113q-21 -21 -52 -21h-45q-31 0 -52 22zM380 490q43 0 68.5 -29.5t25.5 -75.5q0 -106 -86 -106q-35 0 -52.5 15.5t-20 34.5t-9.5 34.5t-22 15.5q-24 0 -24 -62v-197
q0 -21 14 -38t28 -31t14 -26v-4q0 -21 -25 -21h-239q-25 0 -25 21v4q0 13 20.5 40.5t20.5 54.5v171q0 21 -12.5 35.5t-25.5 26t-13 23.5v4q0 18 25 31l159 75q21 8 29.5 1t8.5 -25v-73q33 101 141 101z" />
    <glyph glyph-name="Sacute" unicode="&#x15a;" horiz-adv-x="642" 
d="M235 772q-32 -2 -41 23q-13 28 14 44l190 107q24 12 40 5t23 -30l24 -82q6 -22 -3 -37.5t-33 -16.5zM334 -10q-131 0 -219.5 54.5t-88.5 128.5q0 80 80 80q32 0 55 -19.5t39 -47.5t32.5 -56t44 -47.5t65.5 -19.5q37 0 57.5 18t20.5 50q0 36 -21 61.5t-55 40t-75 27
t-81.5 29t-74.5 40t-55.5 66.5t-21.5 102q0 100 76.5 161t200.5 61q121 0 208 -55t86 -128q0 -38 -21.5 -60t-63.5 -22q-37 0 -62.5 20t-39.5 48t-27.5 56.5t-34 48.5t-49.5 20q-38 0 -57 -20.5t-19 -54.5q0 -43 21 -73t54.5 -46.5t74.5 -29.5t81.5 -29t74 -37.5t54.5 -61
t21 -95.5q0 -98 -80.5 -154t-199.5 -56z" />
    <glyph glyph-name="sacute" unicode="&#x15b;" horiz-adv-x="489" 
d="M153 543q-31 -7 -45 15q-16 26 7 46l170 137q21 16 38.5 11.5t27.5 -25.5l37 -77q11 -20 4 -37.5t-30 -22.5zM245 -9q-97 0 -160.5 31.5t-63.5 86.5q0 36 22 53.5t57 17.5q37 0 59.5 -22t29 -48.5t20 -48.5t36.5 -22q39 0 39 46q0 35 -26.5 56.5t-63.5 33t-74.5 26
t-64 47.5t-26.5 86q0 69 60 112.5t157 43.5q95 0 155 -34.5t60 -86.5q0 -28 -22 -48t-54 -20q-30 0 -49 14.5t-27 34.5t-14 40.5t-14.5 35t-23.5 14.5q-32 0 -32 -49q0 -38 25 -61.5t60.5 -36t71 -26.5t60.5 -45.5t25 -80.5q0 -66 -59 -108t-163 -42z" />
    <glyph glyph-name="Scedilla" unicode="&#x15e;" horiz-adv-x="642" 
d="M614 200q0 -90 -70 -145.5t-177 -63.5l-2 -40q53 2 92 -20t39 -69t-44.5 -70.5t-109.5 -23.5q-61 0 -89 13q-23 11 -20 42q2 23 16 22q3 0 5 -1q24 -11 57 -11q21 0 35 10t14 27t-19 25.5t-40 8.5q-32 0 -26 30l12 58q-113 10 -187 62.5t-74 118.5q0 80 80 80
q32 0 55 -19.5t39 -47.5t32.5 -56t44 -47.5t65.5 -19.5q37 0 57.5 18t20.5 50q0 36 -21 61.5t-55 40t-75 27t-81.5 29t-74.5 40t-55.5 66.5t-21.5 102q0 100 76.5 161t200.5 61q121 0 208 -55t86 -128q0 -38 -21.5 -60t-63.5 -22q-37 0 -62.5 20t-39.5 48t-27.5 56.5
t-34 48.5t-49.5 20q-38 0 -57 -20.5t-19 -54.5q0 -43 21 -73t54.5 -46.5t74.5 -29.5t81.5 -29t74 -37.5t54.5 -61t21 -95.5z" />
    <glyph glyph-name="scedilla" unicode="&#x15f;" horiz-adv-x="489" 
d="M467 141q0 -58 -46 -98t-130 -50l-2 -42q53 2 92 -20t39 -69t-44.5 -70.5t-109.5 -23.5q-61 0 -89 13q-23 11 -20 42q2 23 16 22q3 0 5 -1q24 -11 57 -11q21 0 35 10t14 27t-19 25.5t-40 8.5q-32 0 -26 30l12 58q-84 5 -137 36t-53 81q0 36 22 53.5t57 17.5
q37 0 59.5 -22t29 -48.5t20 -48.5t36.5 -22q39 0 39 46q0 35 -26.5 56.5t-63.5 33t-74.5 26t-64 47.5t-26.5 86q0 69 60 112.5t157 43.5q95 0 155 -34.5t60 -86.5q0 -28 -22 -48t-54 -20q-30 0 -49 14.5t-27 34.5t-14 40.5t-14.5 35t-23.5 14.5q-32 0 -32 -49
q0 -38 25 -61.5t60.5 -36t71 -26.5t60.5 -45.5t25 -80.5z" />
    <glyph glyph-name="Scaron" unicode="&#x160;" horiz-adv-x="642" 
d="M244 769l-105 104q-16 16 2.5 34t36.5 10l146 -67l143 67q19 9 36.5 -11t2.5 -33l-113 -105q-21 -20 -52 -20h-45q-31 0 -52 21zM233 572q0 -43 21 -73t54.5 -46.5t74.5 -29.5t81.5 -29t74 -37.5t54.5 -61t21 -95.5q0 -98 -80.5 -154t-199.5 -56q-131 0 -219.5 54.5
t-88.5 128.5q0 80 80 80q32 0 55 -19.5t39 -47.5t32.5 -56t44 -47.5t65.5 -19.5q37 0 57.5 18t20.5 50q0 36 -21 61.5t-55 40t-75 27t-81.5 29t-74.5 40t-55.5 66.5t-21.5 102q0 100 76.5 161t200.5 61q121 0 208 -55t86 -128q0 -38 -21.5 -60t-63.5 -22q-37 0 -62.5 20
t-39.5 48t-27.5 56.5t-34 48.5t-49.5 20q-38 0 -57 -20.5t-19 -54.5z" />
    <glyph glyph-name="scaron" unicode="&#x161;" horiz-adv-x="489" 
d="M166 563l-105 112q-16 17 2.5 37t36.5 11l146 -72l143 72q19 10 36.5 -11.5t2.5 -36.5l-113 -113q-21 -21 -52 -21h-45q-31 0 -52 22zM225 391q0 -38 25 -61.5t60.5 -36t71 -26.5t60.5 -45.5t25 -80.5q0 -66 -59 -108t-163 -42q-97 0 -160.5 31.5t-63.5 86.5
q0 36 22 53.5t57 17.5q37 0 59.5 -22t29 -48.5t20 -48.5t36.5 -22q39 0 39 46q0 35 -26.5 56.5t-63.5 33t-74.5 26t-64 47.5t-26.5 86q0 69 60 112.5t157 43.5q95 0 155 -34.5t60 -86.5q0 -28 -22 -48t-54 -20q-30 0 -49 14.5t-27 34.5t-14 40.5t-14.5 35t-23.5 14.5
q-32 0 -32 -49z" />
    <glyph glyph-name="uni0162" unicode="&#x162;" horiz-adv-x="650" 
d="M641 533q2 -14 -6 -22.5t-22 -8.5h-19q-17 0 -33 19.5t-27.5 42.5t-32 42.5t-44.5 19.5h-30v-506q0 -27 22.5 -54.5t22.5 -40.5v-4q0 -21 -25 -21h-78l-2 -49q53 2 92 -20t39 -69t-44.5 -70.5t-109.5 -23.5q-61 0 -89 13q-23 11 -20 42q2 23 16 22q3 0 5 -1
q24 -11 57 -11q21 0 35 10t14 27t-19 25.5t-40 8.5q-32 0 -26 30l14 66h-88q-24 0 -24 21v4q0 13 22 40.5t22 54.5v506h-30q-24 0 -44.5 -19.5t-32 -42.5t-27.5 -42.5t-33 -19.5h-19q-14 0 -22 8.5t-6 22.5l20 144q4 33 37 33h518q33 0 37 -33z" />
    <glyph glyph-name="uni0163" unicode="&#x163;" horiz-adv-x="416" 
d="M253 -49q53 2 92 -20t39 -69t-44.5 -70.5t-109.5 -23.5q-61 0 -89 13q-23 11 -20 42q2 23 16 22q3 0 5 -1q24 -11 57 -11q21 0 35 10t14 27t-19 25.5t-40 8.5q-32 0 -26 30l14 65q-53 17 -82.5 64t-29.5 121v221h-30q-11 0 -18 7.5t-7 17.5v25q0 25 25 25h14q49 0 86 28
t48 74q7 28 30 28h27q13 0 21 -7.5t8 -20.5v-102h94q11 0 18 -7t7 -18v-25q0 -10 -7 -17.5t-18 -7.5h-94v-225q0 -21 11.5 -33.5t29.5 -12.5q36 0 63 32q12 13 26 9.5t14 -18.5q0 -62 -42 -111t-116 -55z" />
    <glyph glyph-name="Tcaron" unicode="&#x164;" horiz-adv-x="650" 
d="M247 769l-105 104q-16 16 2.5 34t36.5 10l146 -67l143 67q19 9 36.5 -11t2.5 -33l-113 -105q-21 -20 -52 -20h-45q-31 0 -52 21zM641 533q2 -14 -6 -22.5t-22 -8.5h-19q-17 0 -33 19.5t-27.5 42.5t-32 42.5t-44.5 19.5h-30v-506q0 -27 22.5 -54.5t22.5 -40.5v-4
q0 -21 -25 -21h-244q-24 0 -24 21v4q0 13 22 40.5t22 54.5v506h-30q-24 0 -44.5 -19.5t-32 -42.5t-27.5 -42.5t-33 -19.5h-19q-14 0 -22 8.5t-6 22.5l20 144q4 33 37 33h518q33 0 37 -33z" />
    <glyph glyph-name="tcaron" unicode="&#x165;" horiz-adv-x="416" 
d="M337 538l-12 8q-21 15 -4 36q48 62 48 189q0 12 8 21.5t20 9.5h78q15 0 24 -8.5t9 -22.5q0 -78 -37 -140.5t-90 -92.5q-25 -13 -44 0zM237 -10q-79 0 -125.5 50.5t-46.5 143.5v221h-30q-11 0 -18 7.5t-7 17.5v25q0 25 25 25h14q49 0 86 28t48 74q7 28 30 28h27
q13 0 21 -7.5t8 -20.5v-102h94q11 0 18 -7t7 -18v-25q0 -10 -7 -17.5t-18 -7.5h-94v-225q0 -21 11.5 -33.5t29.5 -12.5q36 0 63 32q12 13 26 9.5t14 -18.5q0 -66 -47 -116.5t-129 -50.5z" />
    <glyph glyph-name="Tbar" unicode="&#x166;" horiz-adv-x="650" 
d="M641 533q2 -14 -6 -22.5t-22 -8.5h-19q-17 0 -33 19.5t-27.5 42.5t-32 42.5t-44.5 19.5h-30v-224h61q19 0 19 -19v-34q0 -22 -19 -22h-61v-207q0 -27 22.5 -54.5t22.5 -40.5v-4q0 -21 -25 -21h-244q-24 0 -24 21v4q0 13 22 40.5t22 54.5v207h-62q-18 0 -18 18v38
q0 19 18 19h62v224h-30q-24 0 -44.5 -19.5t-32 -42.5t-27.5 -42.5t-33 -19.5h-19q-14 0 -22 8.5t-6 22.5l20 144q4 33 37 33h518q33 0 37 -33z" />
    <glyph glyph-name="tbar" unicode="&#x167;" horiz-adv-x="421" 
d="M376 166q12 13 26 9.5t14 -18.5q0 -66 -47 -116.5t-129 -50.5q-79 0 -125.5 50.5t-46.5 143.5v70h-35q-18 0 -18 18v38q0 19 18 19h35v76h-30q-10 0 -17.5 7.5t-7.5 17.5v25q0 25 25 25h14q49 0 86 28t48 74q7 28 30 28h27q13 0 21 -7.5t8 -20.5v-102h94q10 0 17.5 -7
t7.5 -18v-25q0 -10 -7.5 -17.5t-17.5 -7.5h-94v-76h88q19 0 19 -19v-34q0 -22 -19 -22h-88v-74q0 -21 11.5 -33.5t29.5 -12.5q36 0 63 32z" />
    <glyph glyph-name="Utilde" unicode="&#x168;" horiz-adv-x="769" 
d="M207 767q-21 0 -17 24q10 50 44 85t80 35q40 0 90.5 -22.5t68.5 -22.5q29 0 44 20q12 15 27 15h7q23 0 18 -25q-11 -50 -43 -86t-78 -36q-34 0 -87 24t-77 24q-20 0 -36 -17q-2 -3 -5 -6.5t-4.5 -5t-4.5 -3.5t-6.5 -2.5t-8.5 -0.5h-12zM697 117q0 -28 6.5 -42.5t14.5 -16
t14.5 -8t6.5 -20.5q0 -36 -114 -36q-54 0 -77 19.5t-27 73.5q-52 -97 -207 -97q-114 0 -181.5 70t-67.5 199v309q0 27 -20.5 53.5t-20.5 37.5v4q0 9 7 16.5t18 8.5l176 22q53 6 53 -23l-4 -459q-1 -79 26 -122t73 -43q65 0 95 49t30 124v332q0 27 -25.5 53.5t-25.5 37.5v4
q0 8 11.5 15.5t23.5 9.5l166 22q49 6 49 -23v-570z" />
    <glyph glyph-name="utilde" unicode="&#x169;" horiz-adv-x="604" 
d="M134 581q-22 0 -17 24q10 50 44 85t80 35q40 0 90.5 -22.5t68.5 -22.5q29 0 44 20q12 15 27 15h7q23 0 18 -25q-11 -50 -43 -86t-78 -36q-34 0 -87 24t-77 24q-20 0 -36 -17q-2 -3 -5 -6.5t-4.5 -5t-4.5 -3.5t-6.5 -2.5t-8.5 -0.5h-12zM549 117q0 -28 6.5 -42.5t13.5 -16
t13.5 -8t6.5 -20.5q0 -36 -114 -36q-49 0 -72 12t-28 40q-39 -56 -137 -56q-77 0 -132 51t-55 138v164q0 27 -20.5 53.5t-20.5 37.5v4q0 9 7 16.5t18 8.5l166 22q53 6 53 -23l-4 -304q-1 -53 11 -74t39 -21q21 0 35.5 24t14.5 62v194q0 27 -20.5 53.5t-20.5 37.5v4
q0 9 7 16.5t18 8.5l166 22q49 6 49 -23v-345z" />
    <glyph glyph-name="Umacron" unicode="&#x16a;" horiz-adv-x="769" 
d="M226 785q-26 0 -26 26v69q0 26 26 26h288q26 0 26 -26v-69q0 -26 -26 -26h-288zM697 117q0 -28 6.5 -42.5t14.5 -16t14.5 -8t6.5 -20.5q0 -36 -114 -36q-54 0 -77 19.5t-27 73.5q-52 -97 -207 -97q-114 0 -181.5 70t-67.5 199v309q0 27 -20.5 53.5t-20.5 37.5v4
q0 9 7 16.5t18 8.5l176 22q53 6 53 -23l-4 -459q-1 -79 26 -122t73 -43q65 0 95 49t30 124v332q0 27 -25.5 53.5t-25.5 37.5v4q0 8 11.5 15.5t23.5 9.5l166 22q49 6 49 -23v-570z" />
    <glyph glyph-name="umacron" unicode="&#x16b;" horiz-adv-x="604" 
d="M163 570q-26 0 -26 26v69q0 26 26 26h288q26 0 26 -26v-69q0 -26 -26 -26h-288zM549 117q0 -28 6.5 -42.5t13.5 -16t13.5 -8t6.5 -20.5q0 -36 -114 -36q-49 0 -72 12t-28 40q-39 -56 -137 -56q-77 0 -132 51t-55 138v164q0 27 -20.5 53.5t-20.5 37.5v4q0 9 7 16.5t18 8.5
l166 22q53 6 53 -23l-4 -304q-1 -53 11 -74t39 -21q21 0 35.5 24t14.5 62v194q0 27 -20.5 53.5t-20.5 37.5v4q0 9 7 16.5t18 8.5l166 22q49 6 49 -23v-345z" />
    <glyph glyph-name="Uring" unicode="&#x16e;" horiz-adv-x="769" 
d="M376 734q-67 0 -112 32t-45 79q0 55 43.5 87t114.5 32q68 0 113 -31t45 -79q0 -55 -43 -87.5t-116 -32.5zM377 909q-43 0 -43 -59q0 -29 12.5 -46.5t30.5 -17.5q43 0 43 64q0 29 -12.5 44t-30.5 15zM697 117q0 -28 6.5 -42.5t14.5 -16t14.5 -8t6.5 -20.5q0 -36 -114 -36
q-54 0 -77 19.5t-27 73.5q-52 -97 -207 -97q-114 0 -181.5 70t-67.5 199v309q0 27 -20.5 53.5t-20.5 37.5v4q0 9 7 16.5t18 8.5l176 22q53 6 53 -23l-4 -459q-1 -79 26 -122t73 -43q65 0 95 49t30 124v332q0 27 -25.5 53.5t-25.5 37.5v4q0 8 11.5 15.5t23.5 9.5l166 22
q49 6 49 -23v-570z" />
    <glyph glyph-name="uring" unicode="&#x16f;" horiz-adv-x="604" 
d="M306 529q-67 0 -112 32t-45 79q0 55 43.5 87t114.5 32q68 0 113 -31t45 -79q0 -55 -43 -87.5t-116 -32.5zM307 704q-43 0 -43 -59q0 -29 12.5 -46.5t30.5 -17.5q43 0 43 64q0 29 -12.5 44t-30.5 15zM549 117q0 -28 6.5 -42.5t13.5 -16t13.5 -8t6.5 -20.5q0 -36 -114 -36
q-49 0 -72 12t-28 40q-39 -56 -137 -56q-77 0 -132 51t-55 138v164q0 27 -20.5 53.5t-20.5 37.5v4q0 9 7 16.5t18 8.5l166 22q53 6 53 -23l-4 -304q-1 -53 11 -74t39 -21q21 0 35.5 24t14.5 62v194q0 27 -20.5 53.5t-20.5 37.5v4q0 9 7 16.5t18 8.5l166 22q49 6 49 -23v-345
z" />
    <glyph glyph-name="Uhungarumlaut" unicode="&#x170;" horiz-adv-x="769" 
d="M245 729q-21 -14 -35 -3q-11 11 2 36l102 181q28 48 65 13l40 -38q19 -17 20 -34.5t-19 -31.5zM433 726q-11 11 2 36l102 181q28 48 65 13l40 -38q41 -38 1 -66l-175 -123q-22 -15 -35 -3zM697 117q0 -28 6.5 -42.5t14.5 -16t14.5 -8t6.5 -20.5q0 -36 -114 -36
q-54 0 -77 19.5t-27 73.5q-52 -97 -207 -97q-114 0 -181.5 70t-67.5 199v309q0 27 -20.5 53.5t-20.5 37.5v4q0 9 7 16.5t18 8.5l176 22q53 6 53 -23l-4 -459q-1 -79 26 -122t73 -43q65 0 95 49t30 124v332q0 27 -25.5 53.5t-25.5 37.5v4q0 8 11.5 15.5t23.5 9.5l166 22
q49 6 49 -23v-570z" />
    <glyph glyph-name="uhungarumlaut" unicode="&#x171;" horiz-adv-x="604" 
d="M133 537q-21 -14 -35 -3q-11 11 2 36l102 181q28 48 65 13l40 -38q19 -17 20 -34.5t-19 -31.5zM321 534q-11 11 2 36l102 181q28 48 65 13l40 -38q41 -38 1 -66l-175 -123q-22 -15 -35 -3zM549 117q0 -28 6.5 -42.5t13.5 -16t13.5 -8t6.5 -20.5q0 -36 -114 -36
q-49 0 -72 12t-28 40q-39 -56 -137 -56q-77 0 -132 51t-55 138v164q0 27 -20.5 53.5t-20.5 37.5v4q0 9 7 16.5t18 8.5l166 22q53 6 53 -23l-4 -304q-1 -53 11 -74t39 -21q21 0 35.5 24t14.5 62v194q0 27 -20.5 53.5t-20.5 37.5v4q0 9 7 16.5t18 8.5l166 22q49 6 49 -23v-345
z" />
    <glyph glyph-name="Uogonek" unicode="&#x172;" horiz-adv-x="769" 
d="M690 -3q-45 -61 -45 -112q-1 -44 26 -44q6 0 15 3q23 8 30 -18q9 -29 -13 -47q-5 -5 -11 -7q-18 -8 -57 -8q-32 0 -59 7.5t-48.5 30.5t-21.5 58q0 76 103 134q-45 2 -64.5 22t-23.5 71q-52 -97 -207 -97q-114 0 -181.5 70t-67.5 199v309q0 27 -20.5 53.5t-20.5 37.5v4
q0 9 7 16.5t18 8.5l176 22q53 6 53 -23l-4 -459q-1 -79 26 -122t73 -43q65 0 95 49t30 124v332q0 27 -25.5 53.5t-25.5 37.5v4q0 8 11.5 15.5t23.5 9.5l166 22q49 6 49 -23v-570q0 -28 6.5 -42.5t14.5 -16t14.5 -8t6.5 -20.5q0 -25 -49 -33z" />
    <glyph glyph-name="uogonek" unicode="&#x173;" horiz-adv-x="604" 
d="M530 -4q-37 -56 -37 -101q-1 -44 26 -44q6 0 15 3q23 8 30 -18q9 -29 -13 -47q-5 -5 -11 -7q-18 -8 -57 -8q-32 0 -59 7.5t-48.5 30.5t-21.5 58q0 72 88 126q-31 3 -46.5 15t-20.5 35q-39 -56 -137 -56q-77 0 -132 51t-55 138v164q0 27 -20.5 53.5t-20.5 37.5v4
q0 9 7 16.5t18 8.5l166 22q53 6 53 -23l-4 -304q-1 -53 11 -74t39 -21q21 0 35.5 24t14.5 62v194q0 27 -20.5 53.5t-20.5 37.5v4q0 9 7 16.5t18 8.5l166 22q49 6 49 -23v-345q0 -28 6.5 -42.5t13.5 -16t13.5 -8t6.5 -20.5q0 -28 -59 -34z" />
    <glyph glyph-name="Wcircumflex" unicode="&#x174;" horiz-adv-x="1000" 
d="M384 758q-23 -12 -44.5 8.5t3.5 48.5l110 117q20 22 52 22h39q31 0 52 -21l124 -118q26 -26 7 -49.5t-53 -7.5l-154 74zM980 710q25 0 25 -21v-4q0 -15 -26 -40t-38 -55l-219 -534q-23 -56 -67 -56q-53 0 -74 52l-60 155l-65 -151q-24 -56 -75 -56q-56 0 -80 52l-246 538
q-13 28 -40.5 54t-27.5 41v4q0 21 25 21h260q25 0 25 -21v-4q0 -12 -13.5 -27t-21.5 -27.5t0 -40.5l158 -379l52 122l-100 257q-11 29 -33.5 54.5t-22.5 40.5v4q0 21 25 21h164q26 0 34 -24l35 -107l45 108q9 23 35 23h94q25 0 25 -21v-4q0 -13 -15.5 -21.5t-36.5 -23
t-31 -38.5l-70 -162l67 -202l144 352q8 20 -1.5 37t-24 31.5t-14.5 26.5v4q0 21 25 21h164z" />
    <glyph glyph-name="wcircumflex" unicode="&#x175;" horiz-adv-x="824" 
d="M288 535q-23 -12 -44.5 8.5t3.5 48.5l110 117q20 22 52 22h39q31 0 52 -21l124 -118q26 -26 7 -49.5t-53 -7.5l-154 74zM689 490q113 0 113 -152q0 -161 -70.5 -254.5t-188.5 -93.5q-97 0 -143 74q-53 -74 -157 -74q-34 0 -64 9.5t-61 32.5t-49 71t-18 116v124
q0 27 -20.5 53.5t-20.5 37.5v4q0 9 7 16.5t18 8.5l166 22q53 6 53 -33l-4 -318q-1 -32 10 -51.5t30 -19.5q38 0 56.5 60t18.5 130v90q0 27 -20.5 53.5t-20.5 37.5v4q0 9 7 16.5t18 8.5l152 22q53 8 53 -33l-4 -313q-2 -76 41 -76q46 0 80.5 62t34.5 118q0 27 -16 47.5
t-35 32.5t-35 35.5t-16 54.5q0 34 23 55.5t62 21.5z" />
    <glyph glyph-name="Ycircumflex" unicode="&#x176;" horiz-adv-x="705" 
d="M223 758q-23 -12 -44.5 8.5t3.5 48.5l110 117q20 22 52 22h39q31 0 52 -21l124 -118q26 -26 7 -49.5t-53 -7.5l-154 74zM676 710q25 0 25 -21v-4q0 -16 -27.5 -41.5t-42.5 -53.5l-162 -296v-174q0 -27 23 -54.5t23 -40.5v-4q0 -21 -25 -21h-245q-25 0 -25 21v4
q0 13 20.5 40.5t20.5 54.5v154l-195 316q-13 21 -32 39.5t-29.5 30.5t-10.5 25v4q0 21 25 21h305q25 0 25 -21v-4q0 -12 -17 -27t-28.5 -31.5t-0.5 -36.5l116 -215l115 215q11 21 0 38t-28 31t-17 26v4q0 21 25 21h162z" />
    <glyph glyph-name="ycircumflex" unicode="&#x177;" horiz-adv-x="578" 
d="M164 540q-23 -12 -44.5 8.5t3.5 48.5l110 117q20 22 52 22h39q31 0 52 -21l124 -118q26 -26 7 -49.5t-53 -7.5l-154 74zM492 485q49 6 49 -23v-394q0 -128 -82.5 -197.5t-202.5 -69.5q-90 0 -157 36.5t-67 103.5q0 31 21.5 52.5t57.5 21.5q32 0 53 -16.5t31.5 -40
t19.5 -47.5t24 -40.5t37 -17.5q66 -2 67 177q-43 -30 -113 -30q-71 0 -125 49.5t-54 129.5v164q0 27 -20.5 53.5t-20.5 37.5v4q0 9 7 16.5t18 8.5l166 22q53 6 53 -23l-4 -304q-1 -85 42 -85q21 0 36 22.5t15 53.5v194q0 27 -21 53.5t-21 37.5v4q0 9 7 16.5t18 8.5z" />
    <glyph glyph-name="Ydieresis" unicode="&#x178;" horiz-adv-x="705" 
d="M240 760q-50 0 -82 28.5t-32 71.5t32 71t82 28t81.5 -28t31.5 -71t-31.5 -71.5t-81.5 -28.5zM505 760q-50 0 -81.5 28.5t-31.5 71.5t31.5 71t81.5 28t82 -28t32 -71t-32 -71.5t-82 -28.5zM676 710q25 0 25 -21v-4q0 -16 -27.5 -41.5t-42.5 -53.5l-162 -296v-174
q0 -27 23 -54.5t23 -40.5v-4q0 -21 -25 -21h-245q-25 0 -25 21v4q0 13 20.5 40.5t20.5 54.5v154l-195 316q-13 21 -32 39.5t-29.5 30.5t-10.5 25v4q0 21 25 21h305q25 0 25 -21v-4q0 -12 -17 -27t-28.5 -31.5t-0.5 -36.5l116 -215l115 215q11 21 0 38t-28 31t-17 26v4
q0 21 25 21h162z" />
    <glyph glyph-name="Zacute" unicode="&#x179;" horiz-adv-x="640" 
d="M248 772q-32 -2 -41 23q-13 28 14 44l190 107q24 12 40 5t23 -30l24 -82q6 -22 -3 -37.5t-33 -16.5zM607 218q32 0 25 -31l-32 -162q-5 -25 -25 -25h-533q-11 0 -19.5 7.5t-8.5 17.5v15q0 6 4 14t11 18t9 13l320 548h-152q-20 0 -39.5 -20t-34 -44.5t-36 -44.5t-43.5 -20
h-6q-40 0 -31 41l29 132q4 18 12 25.5t25 7.5h505q11 0 18 -7t7 -18v-15q0 -5 -29 -56l-306 -537h148q28 0 54.5 22t43.5 48.5t39 48.5t41 22h4z" />
    <glyph glyph-name="zacute" unicode="&#x17a;" horiz-adv-x="523" 
d="M197 543q-31 -7 -45 15q-16 26 7 46l170 137q21 16 38.5 11.5t27.5 -25.5l37 -77q11 -20 4 -37.5t-30 -22.5zM491 168q33 0 24 -34l-31 -109q-7 -25 -25 -25h-410q-11 0 -19.5 7.5t-8.5 17.5v15q0 9 24 45l218 347h-57q-24 0 -46 -17t-36 -37t-34 -37t-40 -17h-7
q-18 0 -24.5 12t-0.5 30l27 81q7 19 13.5 26t23.5 7h384q25 0 25 -19v-10q0 -11 -35 -67l-209 -336h62q28 0 54.5 19t43.5 41t38 41t39 19h7z" />
    <glyph glyph-name="Zdotaccent" unicode="&#x17b;" horiz-adv-x="640" 
d="M344 748q-51 0 -83 28.5t-32 71.5t32 71.5t83 28.5t83 -28.5t32 -71.5t-32 -71.5t-83 -28.5zM607 218q32 0 25 -31l-32 -162q-5 -25 -25 -25h-533q-11 0 -19.5 7.5t-8.5 17.5v15q0 6 4 14t11 18t9 13l320 548h-152q-20 0 -39.5 -20t-34 -44.5t-36 -44.5t-43.5 -20h-6
q-40 0 -31 41l29 132q4 18 12 25.5t25 7.5h505q11 0 18 -7t7 -18v-15q0 -5 -29 -56l-306 -537h148q28 0 54.5 22t43.5 48.5t39 48.5t41 22h4z" />
    <glyph glyph-name="zdotaccent" unicode="&#x17c;" horiz-adv-x="523" 
d="M286 529q-56 0 -91.5 32t-35.5 79t35.5 78.5t91.5 31.5t91.5 -31.5t35.5 -78.5t-35.5 -79t-91.5 -32zM491 168q33 0 24 -34l-31 -109q-7 -25 -25 -25h-410q-11 0 -19.5 7.5t-8.5 17.5v15q0 9 24 45l218 347h-57q-24 0 -46 -17t-36 -37t-34 -37t-40 -17h-7q-18 0 -24.5 12
t-0.5 30l27 81q7 19 13.5 26t23.5 7h384q25 0 25 -19v-10q0 -11 -35 -67l-209 -336h62q28 0 54.5 19t43.5 41t38 41t39 19h7z" />
    <glyph glyph-name="Zcaron" unicode="&#x17d;" horiz-adv-x="640" 
d="M257 769l-105 104q-16 16 2.5 34t36.5 10l146 -67l143 67q19 9 36.5 -11t2.5 -33l-113 -105q-21 -20 -52 -20h-45q-31 0 -52 21zM607 218q32 0 25 -31l-32 -162q-5 -25 -25 -25h-533q-11 0 -19.5 7.5t-8.5 17.5v15q0 6 4 14t11 18t9 13l320 548h-152q-20 0 -39.5 -20
t-34 -44.5t-36 -44.5t-43.5 -20h-6q-40 0 -31 41l29 132q4 18 12 25.5t25 7.5h505q11 0 18 -7t7 -18v-15q0 -5 -29 -56l-306 -537h148q28 0 54.5 22t43.5 48.5t39 48.5t41 22h4z" />
    <glyph glyph-name="zcaron" unicode="&#x17e;" horiz-adv-x="523" 
d="M209 563l-105 112q-16 17 2.5 37t36.5 11l146 -72l143 72q19 10 36.5 -11.5t2.5 -36.5l-113 -113q-21 -21 -52 -21h-45q-31 0 -52 22zM491 168q33 0 24 -34l-31 -109q-7 -25 -25 -25h-410q-11 0 -19.5 7.5t-8.5 17.5v15q0 9 24 45l218 347h-57q-24 0 -46 -17t-36 -37
t-34 -37t-40 -17h-7q-18 0 -24.5 12t-0.5 30l27 81q7 19 13.5 26t23.5 7h384q25 0 25 -19v-10q0 -11 -35 -67l-209 -336h62q28 0 54.5 19t43.5 41t38 41t39 19h7z" />
    <glyph glyph-name="uni01EA" unicode="&#x1ea;" horiz-adv-x="754" 
d="M488 6q-46 -62 -46 -114q-1 -44 26 -44q6 0 15 3q23 8 30 -18q9 -29 -13 -47q-5 -5 -11 -7q-18 -8 -57 -8q-32 0 -59 7.5t-48.5 30.5t-21.5 58q0 70 84 123h-11q-142 0 -247.5 100t-105.5 260q0 166 97 268t256 102q144 0 249.5 -104t105.5 -266q0 -130 -67 -220.5
t-176 -123.5zM221 521q0 -88 31.5 -193t83 -179.5t100.5 -74.5q83 0 83 112q0 76 -32 181.5t-84 187t-101 81.5q-81 0 -81 -115z" />
    <glyph glyph-name="uni01EB" unicode="&#x1eb;" horiz-adv-x="593" 
d="M351 -5q-36 -55 -36 -100q-1 -44 26 -44q6 0 15 3q23 8 30 -18q9 -29 -13 -47q-5 -5 -11 -7q-18 -8 -57 -8q-32 0 -59 7.5t-48.5 30.5t-21.5 58q0 70 83 122q-101 12 -171 80.5t-70 167.5q0 109 83 179.5t196 70.5q114 0 196 -70.5t82 -179.5q0 -95 -64 -162t-160 -83z
M263 436q-27 0 -36 -25t-9 -82q0 -40 9.5 -102.5t35 -122.5t58.5 -60q28 0 37 25.5t9 79.5q0 36 -9.5 98.5t-35 125.5t-59.5 63z" />
    <glyph glyph-name="AEacute" unicode="&#x1fc;" horiz-adv-x="979" 
d="M529 772q-32 -2 -41 23q-13 28 14 44l190 107q24 12 40 5t23 -30l24 -82q6 -22 -3 -37.5t-33 -16.5zM946 198q11 0 17 -7t4 -18l-25 -138q-3 -19 -11.5 -27t-25.5 -8h-442q-25 0 -25 21v4q0 13 20.5 40.5t20.5 54.5v46h-253l-28 -46q-11 -26 -5 -38t19 -28.5t13 -28.5v-4
q0 -21 -25 -21h-185q-25 0 -25 21v4q0 16 32 42.5t48 52.5l275 448q11 27 4.5 43.5t-21 38t-14.5 31.5v8q0 9 7.5 15t17.5 6h541q32 0 37 -33l20 -124q2 -14 -6 -22.5t-22 -8.5h-6q-19 0 -38.5 17.5t-33.5 38t-37 38t-49 17.5h-31q-50 0 -50 -52v-176h55q20 0 35 13
t22.5 28.5t17.5 28.5t20 13h10q21 0 21 -25v-195q0 -25 -21 -25h-10q-10 0 -20 12t-17.5 27t-22.5 27t-35 12h-55v-172q0 -33 17 -52.5t49 -19.5h42q30 0 55 19t38.5 41.5t32.5 41.5t38 19h10zM278 250h201l-1 328z" />
    <glyph glyph-name="aeacute" unicode="&#x1fd;" horiz-adv-x="776" 
d="M336 542q-31 -7 -45 15q-16 26 7 46l170 137q21 16 38.5 11.5t27.5 -25.5l37 -77q11 -20 4 -37.5t-30 -22.5zM723 162q11 12 25 7t14 -22q0 -50 -56.5 -103.5t-146.5 -53.5q-133 0 -203 95q-6 -39 -41 -67t-103 -28q-84 0 -137 38.5t-53 113.5q0 73 52 113.5t127 40.5
q57 0 96 -22q-12 115 -20 137q-11 27 -38 27q-19 0 -31 -21.5t-17.5 -48t-25.5 -48t-53 -21.5q-35 0 -57 20t-22 52q0 42 31.5 70t76 38.5t98.5 10.5q98 0 165 -50q67 50 152 50q92 0 142.5 -41t50.5 -92q0 -37 -34 -59l-181 -118q39 -50 100 -50q57 0 89 32zM540 436
q-24 0 -38.5 -24t-14.5 -57q0 -68 18 -119l64 47q26 19 26 55q0 13 -2 27.5t-7.5 31.5t-17.5 28t-28 11zM276 46q21 0 29.5 22.5t6.5 45.5l-4 45q-10 79 -49 79q-15 0 -24.5 -16t-9.5 -41q0 -57 13.5 -96t37.5 -39z" />
    <glyph glyph-name="Oslashacute" unicode="&#x1fe;" horiz-adv-x="764" 
d="M289 772q-32 -2 -41 23q-13 28 14 44l190 107q24 12 40 5t23 -30l24 -82q6 -22 -3 -37.5t-33 -16.5zM730 646l-68 -66q74 -98 74 -230q0 -162 -102 -261t-253 -99q-138 0 -238 91l-56 -54q-15 -13 -30 0l-29 26q-14 13 5 32l58 55q-63 92 -63 210q0 166 97 268t256 102
q127 0 226 -82l64 61q19 19 34 4l29 -27q13 -13 -4 -30zM226 521q0 -98 39 -213l182 176q-32 69 -68.5 110.5t-71.5 41.5q-81 0 -81 -115zM524 186q0 94 -45 219l-183 -177q32 -70 70 -112t75 -42q83 0 83 112z" />
    <glyph glyph-name="oslashacute" unicode="&#x1ff;" horiz-adv-x="596" 
d="M181 543q-31 -7 -45 15q-16 26 7 46l170 137q21 16 38.5 11.5t27.5 -25.5l37 -77q11 -20 4 -37.5t-30 -22.5zM512 404q65 -70 65 -164q0 -109 -82 -179.5t-196 -70.5q-93 0 -167 48l-52 -50q-13 -11 -24 0l-28 26q-14 14 2 29l46 44q-56 66 -56 153q0 109 83 179.5
t196 70.5q86 0 154 -41l55 53q17 16 31 2l25 -24q13 -13 -2 -28zM220 329q0 -35 9 -95l108 104q-29 98 -72 98q-27 0 -36 -25t-9 -82zM323 44q28 0 37 25.5t9 79.5q0 37 -12 106l-109 -106q29 -105 75 -105z" />
    <glyph glyph-name="uni0218" unicode="&#x218;" horiz-adv-x="642" 
d="M334 -10q-131 0 -219.5 54.5t-88.5 128.5q0 80 80 80q32 0 55 -19.5t39 -47.5t32.5 -56t44 -47.5t65.5 -19.5q37 0 57.5 18t20.5 50q0 36 -21 61.5t-55 40t-75 27t-81.5 29t-74.5 40t-55.5 66.5t-21.5 102q0 100 76.5 161t200.5 61q121 0 208 -55t86 -128
q0 -38 -21.5 -60t-63.5 -22q-37 0 -62.5 20t-39.5 48t-27.5 56.5t-34 48.5t-49.5 20q-38 0 -57 -20.5t-19 -54.5q0 -43 21 -73t54.5 -46.5t74.5 -29.5t81.5 -29t74 -37.5t54.5 -61t21 -95.5q0 -98 -80.5 -154t-199.5 -56zM283 -340q-16 -10 -29.5 4.5t-0.5 27.5
q22 22 28.5 29.5t14 20t7.5 24.5q2 20 -12 20q-27 0 -47 25t-20 63q0 46 26 74t71 28q42 0 72 -31t30 -84q0 -119 -140 -201z" />
    <glyph glyph-name="uni0219" unicode="&#x219;" horiz-adv-x="489" 
d="M245 -9q-97 0 -160.5 31.5t-63.5 86.5q0 36 22 53.5t57 17.5q37 0 59.5 -22t29 -48.5t20 -48.5t36.5 -22q39 0 39 46q0 35 -26.5 56.5t-63.5 33t-74.5 26t-64 47.5t-26.5 86q0 69 60 112.5t157 43.5q95 0 155 -34.5t60 -86.5q0 -28 -22 -48t-54 -20q-30 0 -49 14.5
t-27 34.5t-14 40.5t-14.5 35t-23.5 14.5q-32 0 -32 -49q0 -38 25 -61.5t60.5 -36t71 -26.5t60.5 -45.5t25 -80.5q0 -66 -59 -108t-163 -42zM207 -340q-16 -10 -29.5 4.5t-0.5 27.5q22 22 28.5 29.5t14 20t7.5 24.5q2 20 -12 20q-27 0 -47 25t-20 63q0 46 26 74t71 28
q42 0 72 -31t30 -84q0 -119 -140 -201z" />
    <glyph glyph-name="uni021A" unicode="&#x21a;" horiz-adv-x="650" 
d="M203 0q-24 0 -24 21v4q0 13 22 40.5t22 54.5v506h-30q-24 0 -44.5 -19.5t-32 -42.5t-27.5 -42.5t-33 -19.5h-19q-14 0 -22 8.5t-6 22.5l20 144q4 33 37 33h518q33 0 37 -33l20 -144q2 -14 -6 -22.5t-22 -8.5h-19q-17 0 -33 19.5t-27.5 42.5t-32 42.5t-44.5 19.5h-30v-506
q0 -27 22.5 -54.5t22.5 -40.5v-4q0 -21 -25 -21h-244zM285 -340q-16 -10 -29.5 4.5t-0.5 27.5q22 22 28.5 29.5t14 20t7.5 24.5q2 20 -12 20q-27 0 -47 25t-20 63q0 46 26 74t71 28q42 0 72 -31t30 -84q0 -119 -140 -201z" />
    <glyph glyph-name="uni021B" unicode="&#x21b;" horiz-adv-x="416" 
d="M237 -10q-79 0 -125.5 50.5t-46.5 143.5v221h-30q-11 0 -18 7.5t-7 17.5v25q0 25 25 25h14q49 0 86 28t48 74q7 28 30 28h27q13 0 21 -7.5t8 -20.5v-102h94q11 0 18 -7t7 -18v-25q0 -10 -7 -17.5t-18 -7.5h-94v-225q0 -21 11.5 -33.5t29.5 -12.5q36 0 63 32q12 13 26 9.5
t14 -18.5q0 -66 -47 -116.5t-129 -50.5zM171 -340q-16 -10 -29.5 4.5t-0.5 27.5q22 22 28.5 29.5t14 20t7.5 24.5q2 20 -12 20q-27 0 -47 25t-20 63q0 46 26 74t71 28q42 0 72 -31t30 -84q0 -119 -140 -201z" />
    <glyph glyph-name="uni0237" unicode="&#x237;" horiz-adv-x="308" 
d="M64 -203q-80 0 -126.5 28t-46.5 86q0 36 24 58.5t60 22.5q39 0 60 -21t25 -45.5t15 -45.5t31 -21q16 0 25.5 11t9.5 28q0 35 -19.5 60.5t-38.5 48.5t-19 50v224q0 27 -20.5 53.5t-20.5 37.5v4q0 13 25 25l171 84q23 10 36 2t13 -25v-472q0 -86 -45 -131q-32 -32 -68 -47
t-91 -15z" />
    <glyph glyph-name="circumflex" unicode="&#x2c6;" 
d="M393 590q26 -26 7 -49.5t-53 -7.5l-154 74l-136 -74q-23 -12 -44.5 8.5t3.5 48.5l110 117q20 22 52 22h39q31 0 52 -21z" />
    <glyph glyph-name="caron" unicode="&#x2c7;" 
d="M349 716q19 10 36.5 -11.5t2.5 -36.5l-113 -113q-21 -21 -52 -21h-45q-31 0 -52 22l-105 112q-16 17 2.5 37t36.5 11l146 -72z" />
    <glyph glyph-name="breve" unicode="&#x2d8;" 
d="M212 534q-75 0 -124 40t-57 100q-3 25 25.5 32.5t39.5 -9.5q13 -21 46 -34.5t70 -13.5q39 0 71 13t45 35q9 14 38 6.5t27 -29.5q-8 -61 -56 -100.5t-125 -39.5z" />
    <glyph glyph-name="dotaccent" unicode="&#x2d9;" 
d="M152 529q-56 0 -91.5 32t-35.5 79t35.5 78.5t91.5 31.5t91.5 -31.5t35.5 -78.5t-35.5 -79t-91.5 -32z" />
    <glyph glyph-name="ring" unicode="&#x2da;" 
d="M212 521q-67 0 -112 32t-45 79q0 55 43.5 87t114.5 32q68 0 113 -31t45 -79q0 -55 -43 -87.5t-116 -32.5zM213 573q43 0 43 64q0 29 -12.5 44t-30.5 15q-43 0 -43 -59q0 -29 12.5 -46.5t30.5 -17.5z" />
    <glyph glyph-name="ogonek" unicode="&#x2db;" 
d="M364 -232q-32 0 -59 7.5t-48.5 30.5t-21.5 58q0 80 113 140h73q-47 -63 -47 -115q-1 -44 26 -44q6 0 15 3q23 8 30 -18q9 -29 -13 -47q-5 -5 -11 -7q-18 -8 -57 -8z" />
    <glyph glyph-name="tilde" unicode="&#x2dc;" 
d="M184 717q40 0 90.5 -22.5t68.5 -22.5q29 0 44 20q12 15 27 15h7q23 0 18 -25q-11 -50 -43 -86t-78 -36q-34 0 -87 24t-77 24q-20 0 -36 -17q-2 -3 -5 -6.5t-4.5 -5t-4.5 -3.5t-6.5 -2.5t-8.5 -0.5h-12q-21 0 -17 24q10 50 44 85t80 35z" />
    <glyph glyph-name="hungarumlaut" unicode="&#x2dd;" 
d="M69 526q-11 11 2 36l102 181q28 48 65 13l40 -38q19 -17 20 -34.5t-19 -31.5l-175 -123q-21 -14 -35 -3zM292 526q-11 11 2 36l102 181q28 48 65 13l40 -38q41 -38 1 -66l-175 -123q-22 -15 -35 -3z" />
    <glyph glyph-name="gravecomb" unicode="&#x300;" horiz-adv-x="0" 
d="M-250 536l-209 47q-23 5 -30 22.5t4 37.5l37 77q10 21 27.5 25.5t38.5 -11.5l170 -137q23 -20 7 -46q-14 -22 -45 -15z" />
    <glyph glyph-name="acutecomb" unicode="&#x301;" horiz-adv-x="0" 
d="M-423 536q-31 -7 -45 15q-16 26 7 46l170 137q21 16 38.5 11.5t27.5 -25.5l37 -77q11 -20 4 -37.5t-30 -22.5z" />
    <glyph glyph-name="uni0302" unicode="&#x302;" horiz-adv-x="0" 
d="M-17 590q26 -26 7 -49.5t-53 -7.5l-154 74l-136 -74q-23 -12 -44.5 8.5t3.5 48.5l110 117q20 22 52 22h39q31 0 52 -21z" />
    <glyph glyph-name="tildecomb" unicode="&#x303;" horiz-adv-x="0" 
d="M-416 717q40 0 90.5 -22.5t68.5 -22.5q29 0 44 20q12 15 27 15h7q23 0 18 -25q-11 -50 -43 -86t-78 -36q-34 0 -87 24t-77 24q-20 0 -36 -17q-2 -3 -5 -6.5t-4.5 -5t-4.5 -3.5t-6.5 -2.5t-8.5 -0.5h-12q-21 0 -17 24q10 50 44 85t80 35z" />
    <glyph glyph-name="uni0304" unicode="&#x304;" horiz-adv-x="0" 
d="M-437 562q-26 0 -26 26v69q0 26 26 26h288q26 0 26 -26v-69q0 -26 -26 -26h-288z" />
    <glyph glyph-name="uni0306" unicode="&#x306;" horiz-adv-x="0" 
d="M-212 534q-75 0 -124 40t-57 100q-3 25 25.5 32.5t39.5 -9.5q13 -21 46 -34.5t70 -13.5q39 0 71 13t45 35q9 14 38 6.5t27 -29.5q-8 -61 -56 -100.5t-125 -39.5z" />
    <glyph glyph-name="uni0307" unicode="&#x307;" horiz-adv-x="0" 
d="M-156 529q-56 0 -91.5 32t-35.5 79t35.5 78.5t91.5 31.5t91.5 -31.5t35.5 -78.5t-35.5 -79t-91.5 -32z" />
    <glyph glyph-name="uni0308" unicode="&#x308;" horiz-adv-x="0" 
d="M-435 535q-50 0 -82 28.5t-32 71.5t32 71t82 28t81.5 -28t31.5 -71t-31.5 -71.5t-81.5 -28.5zM-170 535q-50 0 -81.5 28.5t-31.5 71.5t31.5 71t81.5 28t82 -28t32 -71t-32 -71.5t-82 -28.5z" />
    <glyph glyph-name="uni030A" unicode="&#x30a;" horiz-adv-x="0" 
d="M-388 521q-67 0 -112 32t-45 79q0 55 43.5 87t114.5 32q68 0 113 -31t45 -79q0 -55 -43 -87.5t-116 -32.5zM-387 573q43 0 43 64q0 29 -12.5 44t-30.5 15q-43 0 -43 -59q0 -29 12.5 -46.5t30.5 -17.5z" />
    <glyph glyph-name="uni030B" unicode="&#x30b;" horiz-adv-x="0" 
d="M-531 526q-11 11 2 36l102 181q28 48 65 13l40 -38q19 -17 20 -34.5t-19 -31.5l-175 -123q-21 -14 -35 -3zM-308 526q-11 11 2 36l102 181q28 48 65 13l40 -38q41 -38 1 -66l-175 -123q-22 -15 -35 -3z" />
    <glyph glyph-name="uni030C" unicode="&#x30c;" horiz-adv-x="0" 
d="M-60 716q19 10 36.5 -11.5t2.5 -36.5l-113 -113q-21 -21 -52 -21h-45q-31 0 -52 22l-105 112q-16 17 2.5 37t36.5 11l146 -72z" />
    <glyph glyph-name="uni0312" unicode="&#x312;" horiz-adv-x="0" 
d="M-183 276q-17 -10 -31.5 5t-0.5 29q42 43 48 59q4 9 4 18q2 22 -12 22q-29 0 -50 26t-21 66q0 48 27.5 77.5t74.5 29.5q44 0 75.5 -32.5t31.5 -88.5q0 -124 -146 -211z" />
    <glyph glyph-name="uni0326" unicode="&#x326;" horiz-adv-x="0" 
d="M-182 -340q-16 -10 -29.5 4.5t-0.5 27.5q22 22 28.5 29.5t14 20t7.5 24.5q2 20 -12 20q-27 0 -47 25t-20 63q0 46 26 74t71 28q42 0 72 -31t30 -84q0 -119 -140 -201z" />
    <glyph glyph-name="uni0327" unicode="&#x327;" horiz-adv-x="0" 
d="M-245 -49q53 2 92 -20t39 -69t-44.5 -70.5t-109.5 -23.5q-61 0 -89 13q-23 11 -20 42q2 23 16 22q3 0 5 -1q24 -11 57 -11q21 0 35 10t14 27t-19 25.5t-40 8.5q-32 0 -26 30l14 66h78z" />
    <glyph glyph-name="uni0328" unicode="&#x328;" horiz-adv-x="0" 
d="M-236 -232q-32 0 -59 7.5t-48.5 30.5t-21.5 58q0 80 113 140h73q-47 -63 -47 -115q-1 -44 26 -44q6 0 15 3q23 8 30 -18q9 -29 -13 -47q-5 -5 -11 -7q-18 -8 -57 -8z" />
    <glyph glyph-name="uni0335" unicode="&#x335;" horiz-adv-x="0" 
d="M-385 252q-18 0 -18 18v38q0 19 18 19h327q19 0 19 -19v-34q0 -22 -19 -22h-327z" />
    <glyph glyph-name="uni0336" unicode="&#x336;" horiz-adv-x="0" 
d="M-695 255q-26 0 -26 21v31q0 21 26 21h741q27 0 27 -21v-31q0 -21 -27 -21h-741z" />
    <glyph glyph-name="uni0337" unicode="&#x337;" horiz-adv-x="0" 
d="M-467 134q-15 -10 -25 4l-25 39q-10 15 8 27l338 220q20 13 31 -5l23 -37q9 -15 -7 -27z" />
    <glyph glyph-name="uni0338" unicode="&#x338;" horiz-adv-x="0" 
d="M-556 9l-28 26q-14 13 2 29l478 459q17 16 31 2l25 -24q13 -13 -2 -28l-482 -464q-13 -11 -24 0z" />
    <glyph glyph-name="Wgrave" unicode="&#x1e80;" horiz-adv-x="1000" 
d="M409 765q-24 0 -34 15t-5 38l20 83q5 22 21.5 30.5t40.5 -2.5l195 -98q11 -6 16 -18.5t1 -25.5q-10 -24 -41 -24zM980 710q25 0 25 -21v-4q0 -15 -26 -40t-38 -55l-219 -534q-23 -56 -67 -56q-53 0 -74 52l-60 155l-65 -151q-24 -56 -75 -56q-56 0 -80 52l-246 538
q-13 28 -40.5 54t-27.5 41v4q0 21 25 21h260q25 0 25 -21v-4q0 -12 -13.5 -27t-21.5 -27.5t0 -40.5l158 -379l52 122l-100 257q-11 29 -33.5 54.5t-22.5 40.5v4q0 21 25 21h164q26 0 34 -24l35 -107l45 108q9 23 35 23h94q25 0 25 -21v-4q0 -13 -15.5 -21.5t-36.5 -23
t-31 -38.5l-70 -162l67 -202l144 352q8 20 -1.5 37t-24 31.5t-14.5 26.5v4q0 21 25 21h164z" />
    <glyph glyph-name="wgrave" unicode="&#x1e81;" horiz-adv-x="824" 
d="M307 578q-23 5 -30 22.5t4 37.5l37 77q10 21 27.5 25.5t38.5 -11.5l170 -137q23 -20 7 -46q-14 -22 -45 -15zM689 490q113 0 113 -152q0 -161 -70.5 -254.5t-188.5 -93.5q-97 0 -143 74q-53 -74 -157 -74q-34 0 -64 9.5t-61 32.5t-49 71t-18 116v124q0 27 -20.5 53.5
t-20.5 37.5v4q0 9 7 16.5t18 8.5l166 22q53 6 53 -33l-4 -318q-1 -32 10 -51.5t30 -19.5q38 0 56.5 60t18.5 130v90q0 27 -20.5 53.5t-20.5 37.5v4q0 9 7 16.5t18 8.5l152 22q53 8 53 -33l-4 -313q-2 -76 41 -76q46 0 80.5 62t34.5 118q0 27 -16 47.5t-35 32.5t-35 35.5
t-16 54.5q0 34 23 55.5t62 21.5z" />
    <glyph glyph-name="Wacute" unicode="&#x1e82;" horiz-adv-x="1000" 
d="M444 772q-32 -2 -41 23q-13 28 14 44l190 107q24 12 40 5t23 -30l24 -82q6 -22 -3 -37.5t-33 -16.5zM980 710q25 0 25 -21v-4q0 -15 -26 -40t-38 -55l-219 -534q-23 -56 -67 -56q-53 0 -74 52l-60 155l-65 -151q-24 -56 -75 -56q-56 0 -80 52l-246 538q-13 28 -40.5 54
t-27.5 41v4q0 21 25 21h260q25 0 25 -21v-4q0 -12 -13.5 -27t-21.5 -27.5t0 -40.5l158 -379l52 122l-100 257q-11 29 -33.5 54.5t-22.5 40.5v4q0 21 25 21h164q26 0 34 -24l35 -107l45 108q9 23 35 23h94q25 0 25 -21v-4q0 -13 -15.5 -21.5t-36.5 -23t-31 -38.5l-70 -162
l67 -202l144 352q8 20 -1.5 37t-24 31.5t-14.5 26.5v4q0 21 25 21h164z" />
    <glyph glyph-name="wacute" unicode="&#x1e83;" horiz-adv-x="824" 
d="M344 538q-31 -7 -45 15q-16 26 7 46l170 137q21 16 38.5 11.5t27.5 -25.5l37 -77q11 -20 4 -37.5t-30 -22.5zM689 490q113 0 113 -152q0 -161 -70.5 -254.5t-188.5 -93.5q-97 0 -143 74q-53 -74 -157 -74q-34 0 -64 9.5t-61 32.5t-49 71t-18 116v124q0 27 -20.5 53.5
t-20.5 37.5v4q0 9 7 16.5t18 8.5l166 22q53 6 53 -33l-4 -318q-1 -32 10 -51.5t30 -19.5q38 0 56.5 60t18.5 130v90q0 27 -20.5 53.5t-20.5 37.5v4q0 9 7 16.5t18 8.5l152 22q53 8 53 -33l-4 -313q-2 -76 41 -76q46 0 80.5 62t34.5 118q0 27 -16 47.5t-35 32.5t-35 35.5
t-16 54.5q0 34 23 55.5t62 21.5z" />
    <glyph glyph-name="Wdieresis" unicode="&#x1e84;" horiz-adv-x="1000" 
d="M401 760q-50 0 -82 28.5t-32 71.5t32 71t82 28t81.5 -28t31.5 -71t-31.5 -71.5t-81.5 -28.5zM666 760q-50 0 -81.5 28.5t-31.5 71.5t31.5 71t81.5 28t82 -28t32 -71t-32 -71.5t-82 -28.5zM980 710q25 0 25 -21v-4q0 -15 -26 -40t-38 -55l-219 -534q-23 -56 -67 -56
q-53 0 -74 52l-60 155l-65 -151q-24 -56 -75 -56q-56 0 -80 52l-246 538q-13 28 -40.5 54t-27.5 41v4q0 21 25 21h260q25 0 25 -21v-4q0 -12 -13.5 -27t-21.5 -27.5t0 -40.5l158 -379l52 122l-100 257q-11 29 -33.5 54.5t-22.5 40.5v4q0 21 25 21h164q26 0 34 -24l35 -107
l45 108q9 23 35 23h94q25 0 25 -21v-4q0 -13 -15.5 -21.5t-36.5 -23t-31 -38.5l-70 -162l67 -202l144 352q8 20 -1.5 37t-24 31.5t-14.5 26.5v4q0 21 25 21h164z" />
    <glyph glyph-name="wdieresis" unicode="&#x1e85;" horiz-adv-x="824" 
d="M302 530q-50 0 -82 28.5t-32 71.5t32 71t82 28t81.5 -28t31.5 -71t-31.5 -71.5t-81.5 -28.5zM567 530q-50 0 -81.5 28.5t-31.5 71.5t31.5 71t81.5 28t82 -28t32 -71t-32 -71.5t-82 -28.5zM689 490q113 0 113 -152q0 -161 -70.5 -254.5t-188.5 -93.5q-97 0 -143 74
q-53 -74 -157 -74q-34 0 -64 9.5t-61 32.5t-49 71t-18 116v124q0 27 -20.5 53.5t-20.5 37.5v4q0 9 7 16.5t18 8.5l166 22q53 6 53 -33l-4 -318q-1 -32 10 -51.5t30 -19.5q38 0 56.5 60t18.5 130v90q0 27 -20.5 53.5t-20.5 37.5v4q0 9 7 16.5t18 8.5l152 22q53 8 53 -33
l-4 -313q-2 -76 41 -76q46 0 80.5 62t34.5 118q0 27 -16 47.5t-35 32.5t-35 35.5t-16 54.5q0 34 23 55.5t62 21.5z" />
    <glyph glyph-name="uni1E9E" unicode="&#x1e9e;" horiz-adv-x="723" 
d="M495 383q97 -11 154 -60t57 -122q0 -91 -81 -146t-220 -55q-26 0 -35.5 19t-0.5 38.5t29 19.5q44 0 68 33t24 95q0 54 -23.5 89t-61.5 35q-23 0 -30.5 30.5t11.5 53.5l111 129q0 32 -33 63t-83 31t-80 -38t-30 -102v-376q0 -26 18 -52t18 -43v-4q0 -6 -1 -10t-2 -6.5
t-4.5 -3.5t-4.5 -1h-6.5h-6.5h-241q-25 0 -25 21v4q0 13 20.5 40.5t20.5 54.5v326q0 126 88.5 200t247.5 74q100 0 180 -46t92 -124q6 -38 -27 -62z" />
    <glyph glyph-name="Ygrave" unicode="&#x1ef2;" horiz-adv-x="705" 
d="M248 765q-24 0 -34 15t-5 38l20 83q5 22 21.5 30.5t40.5 -2.5l195 -98q11 -6 16 -18.5t1 -25.5q-10 -24 -41 -24zM676 710q25 0 25 -21v-4q0 -16 -27.5 -41.5t-42.5 -53.5l-162 -296v-174q0 -27 23 -54.5t23 -40.5v-4q0 -21 -25 -21h-245q-25 0 -25 21v4q0 13 20.5 40.5
t20.5 54.5v154l-195 316q-13 21 -32 39.5t-29.5 30.5t-10.5 25v4q0 21 25 21h305q25 0 25 -21v-4q0 -12 -17 -27t-28.5 -31.5t-0.5 -36.5l116 -215l115 215q11 21 0 38t-28 31t-17 26v4q0 21 25 21h162z" />
    <glyph glyph-name="ygrave" unicode="&#x1ef3;" horiz-adv-x="578" 
d="M183 583q-23 5 -30 22.5t4 37.5l37 77q10 21 27.5 25.5t38.5 -11.5l170 -137q23 -20 7 -46q-14 -22 -45 -15zM492 485q49 6 49 -23v-394q0 -128 -82.5 -197.5t-202.5 -69.5q-90 0 -157 36.5t-67 103.5q0 31 21.5 52.5t57.5 21.5q32 0 53 -16.5t31.5 -40t19.5 -47.5
t24 -40.5t37 -17.5q66 -2 67 177q-43 -30 -113 -30q-71 0 -125 49.5t-54 129.5v164q0 27 -20.5 53.5t-20.5 37.5v4q0 9 7 16.5t18 8.5l166 22q53 6 53 -23l-4 -304q-1 -85 42 -85q21 0 36 22.5t15 53.5v194q0 27 -21 53.5t-21 37.5v4q0 9 7 16.5t18 8.5z" />
    <glyph glyph-name="uni1EF8" unicode="&#x1ef8;" horiz-adv-x="705" 
d="M207 767q-21 0 -17 24q10 50 44 85t80 35q40 0 90.5 -22.5t68.5 -22.5q29 0 44 20q12 15 27 15h7q23 0 18 -25q-11 -50 -43 -86t-78 -36q-34 0 -87 24t-77 24q-20 0 -36 -17q-2 -3 -5 -6.5t-4.5 -5t-4.5 -3.5t-6.5 -2.5t-8.5 -0.5h-12zM676 710q25 0 25 -21v-4
q0 -16 -27.5 -41.5t-42.5 -53.5l-162 -296v-174q0 -27 23 -54.5t23 -40.5v-4q0 -21 -25 -21h-245q-25 0 -25 21v4q0 13 20.5 40.5t20.5 54.5v154l-195 316q-13 21 -32 39.5t-29.5 30.5t-10.5 25v4q0 21 25 21h305q25 0 25 -21v-4q0 -12 -17 -27t-28.5 -31.5t-0.5 -36.5
l116 -215l115 215q11 21 0 38t-28 31t-17 26v4q0 21 25 21h162z" />
    <glyph glyph-name="uni1EF9" unicode="&#x1ef9;" horiz-adv-x="578" 
d="M138 581q-22 0 -17 24q10 50 44 85t80 35q40 0 90.5 -22.5t68.5 -22.5q29 0 44 20q12 15 27 15h7q23 0 18 -25q-11 -50 -43 -86t-78 -36q-34 0 -87 24t-77 24q-20 0 -36 -17q-2 -3 -5 -6.5t-4.5 -5t-4.5 -3.5t-6.5 -2.5t-8.5 -0.5h-12zM492 485q49 6 49 -23v-394
q0 -128 -82.5 -197.5t-202.5 -69.5q-90 0 -157 36.5t-67 103.5q0 31 21.5 52.5t57.5 21.5q32 0 53 -16.5t31.5 -40t19.5 -47.5t24 -40.5t37 -17.5q66 -2 67 177q-43 -30 -113 -30q-71 0 -125 49.5t-54 129.5v164q0 27 -20.5 53.5t-20.5 37.5v4q0 9 7 16.5t18 8.5l166 22
q53 6 53 -23l-4 -304q-1 -85 42 -85q21 0 36 22.5t15 53.5v194q0 27 -21 53.5t-21 37.5v4q0 9 7 16.5t18 8.5z" />
    <glyph glyph-name="endash" unicode="&#x2013;" horiz-adv-x="552" 
d="M69 290q-25 0 -25 28v42q0 28 25 28h414q25 0 25 -28v-42q0 -28 -25 -28h-414z" />
    <glyph glyph-name="emdash" unicode="&#x2014;" horiz-adv-x="642" 
d="M69 290q-25 0 -25 28v42q0 28 25 28h504q25 0 25 -28v-42q0 -28 -25 -28h-504z" />
    <glyph glyph-name="quoteleft" unicode="&#x2018;" horiz-adv-x="267" 
d="M178 787q19 11 34.5 -5.5t0.5 -31.5q-24 -25 -32.5 -34t-16.5 -23t-9 -28q-2 -24 14 -24q32 0 55 -29t23 -73q0 -53 -30.5 -85.5t-81.5 -32.5q-48 0 -83 36t-35 98q0 137 161 232z" />
    <glyph glyph-name="quoteright" unicode="&#x2019;" horiz-adv-x="267" 
d="M92 417q-19 -11 -34.5 5.5t-0.5 31.5q24 25 32.5 34t16.5 23t9 28q2 24 -14 24q-32 0 -55 29t-23 73q0 53 30.5 85.5t81.5 32.5q48 0 83 -36t35 -98q0 -137 -161 -232z" />
    <glyph glyph-name="quotesinglbase" unicode="&#x201a;" horiz-adv-x="286" 
d="M97 -156q-19 -11 -34.5 5.5t-0.5 31.5q24 25 32.5 34t16.5 23t9 28q2 24 -14 24q-32 0 -55 29t-23 73q0 53 30.5 85.5t81.5 32.5q48 0 83 -36t35 -98q0 -137 -161 -232z" />
    <glyph glyph-name="quotedblleft" unicode="&#x201c;" horiz-adv-x="530" 
d="M178 787q19 11 34.5 -5.5t0.5 -31.5q-24 -25 -32.5 -34t-16.5 -23t-9 -28q-2 -24 14 -24q32 0 55 -29t23 -73q0 -53 -30.5 -85.5t-81.5 -32.5q-48 0 -83 36t-35 98q0 137 161 232zM441 787q19 11 34.5 -5.5t0.5 -31.5q-24 -25 -32.5 -34t-16.5 -23t-9 -28q-2 -24 14 -24
q32 0 55 -29t23 -73q0 -53 -30.5 -85.5t-81.5 -32.5q-48 0 -83 36t-35 98q0 137 161 232z" />
    <glyph glyph-name="quotedblright" unicode="&#x201d;" horiz-adv-x="530" 
d="M92 417q-19 -11 -34.5 5.5t-0.5 31.5q24 25 32.5 34t16.5 23t9 28q2 24 -14 24q-32 0 -55 29t-23 73q0 53 30.5 85.5t81.5 32.5q48 0 83 -36t35 -98q0 -137 -161 -232zM355 417q-19 -11 -34.5 5.5t-0.5 31.5q24 25 32.5 34t16.5 23t9 28q2 24 -14 24q-32 0 -55 29t-23 73
q0 53 30.5 85.5t81.5 32.5q48 0 83 -36t35 -98q0 -137 -161 -232z" />
    <glyph glyph-name="quotedblbase" unicode="&#x201e;" horiz-adv-x="549" 
d="M97 -156q-19 -11 -34.5 5.5t-0.5 31.5q24 25 32.5 34t16.5 23t9 28q2 24 -14 24q-32 0 -55 29t-23 73q0 53 30.5 85.5t81.5 32.5q48 0 83 -36t35 -98q0 -137 -161 -232zM360 -156q-19 -11 -34.5 5.5t-0.5 31.5q24 25 32.5 34t16.5 23t9 28q2 24 -14 24q-32 0 -55 29
t-23 73q0 53 30.5 85.5t81.5 32.5q48 0 83 -36t35 -98q0 -137 -161 -232z" />
    <glyph glyph-name="dagger" unicode="&#x2020;" horiz-adv-x="595" 
d="M524 540q33 4 47 -28t0 -64t-47 -28l-197 25l22 -487q1 -33 -26.5 -46t-55.5 0.5t-27 45.5l22 487l-196 -25q-30 -3 -42.5 28.5t0 63t42.5 28.5l193 -24l-35 246q-5 42 33 59.5t76.5 -0.5t32.5 -59l-35 -247z" />
    <glyph glyph-name="daggerdbl" unicode="&#x2021;" horiz-adv-x="609" 
d="M531 321q33 4 47 -28t0 -64t-47 -28l-187 24l12 -267q1 -33 -26.5 -46t-55.5 0.5t-27 45.5l12 267l-186 -24q-30 -4 -42.5 28t0 64t42.5 28l190 -24l6 148l-196 -25q-30 -3 -42.5 28.5t0 63t42.5 28.5l193 -24l-35 246q-5 42 33 59.5t76.5 -0.5t32.5 -59l-35 -247l193 25
q33 4 47 -28t0 -64t-47 -28l-197 25l7 -148z" />
    <glyph glyph-name="bullet" unicode="&#x2022;" horiz-adv-x="452" 
d="M226 209q-79 0 -129 45t-50 111t50 110.5t129 44.5t129 -44.5t50 -110.5t-50 -111t-129 -45z" />
    <glyph glyph-name="ellipsis" unicode="&#x2026;" horiz-adv-x="832" 
d="M142 -10q-51 0 -84 26.5t-33 77.5t33 77.5t84 26.5t84 -26.5t33 -77.5t-33 -77.5t-84 -26.5zM420 -10q-51 0 -84 26.5t-33 77.5t33 77.5t84 26.5t84 -26.5t33 -77.5t-33 -77.5t-84 -26.5zM690 -10q-51 0 -84 26.5t-33 77.5t33 77.5t84 26.5t84 -26.5t33 -77.5t-33 -77.5
t-84 -26.5z" />
    <glyph glyph-name="perthousand" unicode="&#x2030;" horiz-adv-x="1314" 
d="M216 341q-81 0 -137 51.5t-56 135.5q0 86 53.5 139t139.5 53q81 0 137.5 -53.5t56.5 -138.5q0 -83 -57.5 -135t-136.5 -52zM239 0q-14 0 -18.5 8.5t1.5 20.5l340 664q8 17 22 17h72q13 0 18 -8.5t-1 -20.5l-338 -664q-9 -17 -28 -17h-68zM235 388q33 0 33 71
q0 69 -23.5 141t-57.5 72q-33 0 -33 -78q0 -72 23.5 -139t57.5 -67zM687 -10q-81 0 -137 51.5t-56 135.5q0 86 53.5 139t139.5 53q81 0 137.5 -53.5t56.5 -138.5q0 -83 -57.5 -135t-136.5 -52zM1097 -10q-81 0 -137 51.5t-56 135.5q0 86 53.5 139t139.5 53q81 0 137.5 -53.5
t56.5 -138.5q0 -83 -57.5 -135t-136.5 -52zM706 37q33 0 33 71q0 69 -23.5 141t-57.5 72q-33 0 -33 -78q0 -72 23.5 -139t57.5 -67zM1116 37q33 0 33 71q0 69 -23.5 141t-57.5 72q-33 0 -33 -78q0 -72 23.5 -139t57.5 -67z" />
    <glyph glyph-name="guilsinglleft" unicode="&#x2039;" horiz-adv-x="303" 
d="M171 277q42 -35 70.5 -87.5t28.5 -86.5q0 -16 -24.5 -20t-40.5 14q-32 38 -90.5 78t-77.5 58q-13 13 -13 49.5t13 47.5q7 6 41.5 33.5t50 41t41 39t43.5 50.5q10 13 33.5 8t23.5 -20q0 -53 -26.5 -111t-72.5 -94z" />
    <glyph glyph-name="guilsinglright" unicode="&#x203a;" horiz-adv-x="303" 
d="M266 330q13 -11 13 -47.5t-13 -49.5q-19 -18 -77.5 -58t-90.5 -78q-16 -18 -40.5 -14t-24.5 20q0 35 28.5 90t70.5 90q-46 35 -72.5 90.5t-26.5 108.5q0 15 23.5 20t33.5 -8q18 -25 43.5 -50.5t41 -39t50 -41t41.5 -33.5z" />
    <glyph glyph-name="fraction" unicode="&#x2044;" horiz-adv-x="420" 
d="M-6 0q-14 0 -19 8.5t2 20.5l360 664q9 17 28 17h62q14 0 19 -8.5t-2 -20.5l-358 -664q-8 -17 -28 -17h-64z" />
    <glyph glyph-name="Euro" unicode="&#x20ac;" horiz-adv-x="707" 
d="M612 226q18 14 38 5t20 -34q0 -73 -68 -139t-177 -66q-131 0 -212 79.5t-105 198.5h-57q-26 0 -26 19v28q0 19 26 19h49q-1 7 -1 21q0 17 1 25h-49q-26 0 -26 18v29q0 19 26 19h58q26 118 113 190.5t203 72.5q105 0 175 -36.5t70 -106.5q0 -33 -22.5 -58.5t-61.5 -25.5
q-35 0 -59 15t-37 37t-24.5 44t-31 37t-47.5 15q-42 0 -66 -48t-24 -128v-8h217q26 0 26 -19v-29q0 -18 -26 -18h-213q3 -21 8 -46h176q26 0 26 -19v-28q0 -19 -26 -19h-154q43 -94 127 -94q83 0 154 50z" />
    <glyph glyph-name="trademark" unicode="&#x2122;" horiz-adv-x="793" 
d="M333 611q2 -14 -12 -14h-9q-9 0 -18 14.5t-19.5 29.5t-24.5 15h-16v-214q0 -12 10.5 -24.5t10.5 -18.5v-1q0 -10 -11 -10h-127q-11 0 -11 10v1q0 6 10 18.5t10 24.5v214h-15q-14 0 -24.5 -15t-19.5 -29.5t-18 -14.5h-9q-15 0 -13 14l9 83q1 15 17 15h255q15 0 16 -15z
M739 442q2 -11 10.5 -23.5t8.5 -19.5v-1q0 -10 -11 -10h-124q-11 0 -11 10v1q0 5 9 18t7 25l-24 139l-63 -179q-5 -14 -18 -14q-14 0 -20 14l-64 158l-17 -118q-2 -12 7 -25t9 -18v-1q0 -10 -11 -10h-93q-12 0 -12 10v1q0 7 8.5 19t10.5 24l32 213q2 12 -8 24.5t-10 18.5v2
q0 9 11 9h102q20 0 26 -17l41 -119l37 118q6 18 26 18h108q12 0 12 -9v-2q0 -5 -10.5 -18t-8.5 -25z" />
    <glyph glyph-name="minus" unicode="&#x2212;" 
d="M99 236q-26 0 -26 20v85q0 9 7.5 15t18.5 6h403q11 0 18.5 -6t7.5 -15v-85q0 -20 -26 -20h-403z" />
    <glyph glyph-name="approxequal" unicode="&#x2248;" 
d="M195 490q41 0 112 -28t105 -28q46 0 68 28q12 16 28 16h27q22 0 18 -23q-11 -73 -52 -111t-100 -38q-43 0 -111.5 29.5t-103.5 29.5q-45 0 -63 -29q-5 -8 -7.5 -11t-8 -5.5t-14.5 -2.5h-23q-19 0 -17 25q4 55 39.5 101.5t102.5 46.5zM195 267q41 0 112 -28t105 -28
q46 0 68 28q12 16 28 16h27q22 0 18 -23q-11 -73 -52 -111t-100 -38q-43 0 -111.5 29.5t-103.5 29.5q-45 0 -63 -29q-5 -8 -7.5 -11t-8 -5.5t-14.5 -2.5h-23q-19 0 -17 25q4 55 39.5 101.5t102.5 46.5z" />
    <glyph glyph-name="notequal" unicode="&#x2260;" 
d="M501 326h-127l-37 -71h164q11 0 18.5 -6t7.5 -15v-85q0 -20 -26 -20h-229l-61 -117q-7 -15 -23 -8l-35 16q-17 9 -7 28l42 81h-90q-26 0 -26 20v85q0 9 7.5 15t18.5 6h156l37 71h-193q-26 0 -26 20v85q0 9 7.5 15t18.5 6h258l50 96q11 21 29 12l31 -15q17 -9 7 -27
l-34 -66h62q11 0 18.5 -6t7.5 -15v-85q0 -20 -26 -20z" />
    <glyph glyph-name="uniF8FF" unicode="&#xf8ff;" horiz-adv-x="1451" 
d="M691 583q0 26 17.5 44t43.5 18t44 -18t18 -44t-18 -43.5t-44 -17.5t-43.5 18t-17.5 43zM219 270h-119q0 78 2 156.5t4 117.5l3 40h100q9 -139 10 -314zM694 270q0 92 3 147h-61l3 -65q4 -4 15 -4q6 0 10.5 1t5.5 3l2 1v-74q-10 -15 -66 -15q-84 0 -84 66q0 15 2 50t2 37
h-22v79l119 30l1 -17h178q10 -64 10 -239h-118zM328 265q-92 0 -92 113q0 136 137 136q119 0 121 -117v-127h-83l-8 61q-6 -33 -23.5 -49.5t-51.5 -16.5zM1090 270h-114q0 26 1 56t1 40q0 26 -15 26q-18 0 -18 -26q0 -10 1.5 -40t1.5 -56h-114q0 78 2.5 137.5t5.5 80.5l2 21
h80q6 -45 6 -76q0 9 4.5 25t24.5 36t52 20q41 0 57.5 -24.5t18.5 -81.5zM1351 384q0 -55 -31 -87t-93 -32q-60 0 -90.5 33t-30.5 86q0 130 122 130q70 0 96.5 -34.5t26.5 -95.5zM390 375q0 26 -23 26t-23 -26q0 -30 23 -30t23 30zM1251 375q0 26 -23 26q-21 0 -21 -26
q0 -30 21 -30q23 0 23 30zM428 238h104q10 -60 10 -147q0 -73 -35 -107t-114 -34q-32 0 -54.5 4t-29.5 8l-7 5v83q20 -16 69 -16q24 0 37.5 7t15.5 14l2 7q-13 -11 -49 -11q-90 0 -90 83v13h-55l3 -65q4 -4 15 -4q6 0 10.5 1t5.5 3l2 1v-73q-10 -15 -67 -15q-82 0 -82 64
q0 46 3 88h-18v80l117 29l-1 -17l177 -1v-119q0 -27 14 -27q17 0 17 27v119zM733 243q37 0 58.5 -29t21.5 -83q0 -136 -137 -136q1 -13 1 -39h-119q0 76 2.5 146.5t5.5 103.5l2 32h78q7 -52 7 -76q2 11 6.5 25.5t24 35t49.5 20.5zM1070 129l-3 -37h-124q9 -18 49 -18
q16 0 30 3t20 6l6 3v-75q-20 -16 -78 -16q-69 0 -105 31t-36 86q0 64 32.5 97.5t93.5 33.5q54 0 84.5 -30t30.5 -84zM978 109q3 27 -17 27q-23 0 -23 -27h40zM670 72q4 0 10 1.5t16.5 11t10.5 25.5q0 22 -20 22q-22 0 -22 -32zM1075 13q0 -10 6.5 -16.5t16.5 -6.5
q9 0 15.5 6.5t6.5 16.5t-6.5 16t-15.5 6q-10 0 -16.5 -6t-6.5 -16zM1080 13q0 7 5 12.5t13 5.5q7 0 12 -5.5t5 -12.5t-5 -12.5t-12 -5.5q-8 0 -13 5.5t-5 12.5zM1108 2l-6 9q7 0 7 7t-10 7h-11v-23h5v9h5l4 -9h6zM1099 15h-6v6h5q6 0 6 -2q0 -4 -5 -4z" />
    <glyph glyph-name="uni00A40301" horiz-adv-x="587" 
d="M333 772q-32 -2 -41 23q-13 28 14 44l190 107q24 12 40 5t23 -30l24 -82q6 -22 -3 -37.5t-33 -16.5zM313 590q0 27 -20.5 54.5t-20.5 40.5v4q0 21 25 21h245q25 0 25 -21v-4q0 -13 -23 -40.5t-23 -54.5v-255q0 -182 -65.5 -262.5t-195.5 -82.5q-73 -1 -125.5 17t-78.5 48
t-37.5 60.5t-11.5 62.5q0 44 25 71.5t66 27.5q42 0 66.5 -21.5t33 -52t14.5 -61t18.5 -52t36.5 -21.5q46 0 46 136v385z" />
    <glyph glyph-name="A.ss01" horiz-adv-x="716" 
d="M665 120q12 -28 36.5 -54t24.5 -41v-4q0 -21 -25 -21h-291q-25 0 -25 21v4q0 10 9.5 21t20 19.5t16.5 23t0 31.5l-16 46h-234l-16 -46q-6 -17 0 -31.5t16.5 -23t20 -19.5t9.5 -21v-4q0 -21 -25 -21h-163q-25 0 -25 21v4q0 15 25 40t36 55l178 461q9 24 -14.5 60t-23.5 44
v4q0 21 25 21h148q52 0 74 -52zM211 250h176l-86 253z" />
    <glyph glyph-name="Aacute.ss01" horiz-adv-x="716" 
d="M243 772q-32 -2 -41 23q-13 28 14 44l190 107q24 12 40 5t23 -30l24 -82q6 -22 -3 -37.5t-33 -16.5zM665 120q12 -28 36.5 -54t24.5 -41v-4q0 -21 -25 -21h-291q-25 0 -25 21v4q0 10 9.5 21t20 19.5t16.5 23t0 31.5l-16 46h-234l-16 -46q-6 -17 0 -31.5t16.5 -23
t20 -19.5t9.5 -21v-4q0 -21 -25 -21h-163q-25 0 -25 21v4q0 15 25 40t36 55l178 461q9 24 -14.5 60t-23.5 44v4q0 21 25 21h148q52 0 74 -52zM211 250h176l-86 253z" />
    <glyph glyph-name="Abreve.ss01" horiz-adv-x="716" 
d="M330 755q-75 0 -124 40t-57 100q-3 25 25.5 32.5t39.5 -9.5q13 -21 46 -34.5t70 -13.5q39 0 71 13t45 35q9 14 38 6.5t27 -29.5q-8 -61 -56 -100.5t-125 -39.5zM665 120q12 -28 36.5 -54t24.5 -41v-4q0 -21 -25 -21h-291q-25 0 -25 21v4q0 10 9.5 21t20 19.5t16.5 23
t0 31.5l-16 46h-234l-16 -46q-6 -17 0 -31.5t16.5 -23t20 -19.5t9.5 -21v-4q0 -21 -25 -21h-163q-25 0 -25 21v4q0 15 25 40t36 55l178 461q9 24 -14.5 60t-23.5 44v4q0 21 25 21h148q52 0 74 -52zM211 250h176l-86 253z" />
    <glyph glyph-name="Acircumflex.ss01" horiz-adv-x="716" 
d="M183 758q-23 -12 -44.5 8.5t3.5 48.5l110 117q20 22 52 22h39q31 0 52 -21l124 -118q26 -26 7 -49.5t-53 -7.5l-154 74zM665 120q12 -28 36.5 -54t24.5 -41v-4q0 -21 -25 -21h-291q-25 0 -25 21v4q0 10 9.5 21t20 19.5t16.5 23t0 31.5l-16 46h-234l-16 -46
q-6 -17 0 -31.5t16.5 -23t20 -19.5t9.5 -21v-4q0 -21 -25 -21h-163q-25 0 -25 21v4q0 15 25 40t36 55l178 461q9 24 -14.5 60t-23.5 44v4q0 21 25 21h148q52 0 74 -52zM211 250h176l-86 253z" />
    <glyph glyph-name="Adieresis.ss01" horiz-adv-x="716" 
d="M200 760q-50 0 -82 28.5t-32 71.5t32 71t82 28t81.5 -28t31.5 -71t-31.5 -71.5t-81.5 -28.5zM465 760q-50 0 -81.5 28.5t-31.5 71.5t31.5 71t81.5 28t82 -28t32 -71t-32 -71.5t-82 -28.5zM665 120q12 -28 36.5 -54t24.5 -41v-4q0 -21 -25 -21h-291q-25 0 -25 21v4
q0 10 9.5 21t20 19.5t16.5 23t0 31.5l-16 46h-234l-16 -46q-6 -17 0 -31.5t16.5 -23t20 -19.5t9.5 -21v-4q0 -21 -25 -21h-163q-25 0 -25 21v4q0 15 25 40t36 55l178 461q9 24 -14.5 60t-23.5 44v4q0 21 25 21h148q52 0 74 -52zM211 250h176l-86 253z" />
    <glyph glyph-name="Agrave.ss01" horiz-adv-x="716" 
d="M208 765q-24 0 -34 15t-5 38l20 83q5 22 21.5 30.5t40.5 -2.5l195 -98q11 -6 16 -18.5t1 -25.5q-10 -24 -41 -24zM665 120q12 -28 36.5 -54t24.5 -41v-4q0 -21 -25 -21h-291q-25 0 -25 21v4q0 10 9.5 21t20 19.5t16.5 23t0 31.5l-16 46h-234l-16 -46q-6 -17 0 -31.5
t16.5 -23t20 -19.5t9.5 -21v-4q0 -21 -25 -21h-163q-25 0 -25 21v4q0 15 25 40t36 55l178 461q9 24 -14.5 60t-23.5 44v4q0 21 25 21h148q52 0 74 -52zM211 250h176l-86 253z" />
    <glyph glyph-name="Amacron.ss01" horiz-adv-x="716" 
d="M186 785q-26 0 -26 26v69q0 26 26 26h288q26 0 26 -26v-69q0 -26 -26 -26h-288zM665 120q12 -28 36.5 -54t24.5 -41v-4q0 -21 -25 -21h-291q-25 0 -25 21v4q0 10 9.5 21t20 19.5t16.5 23t0 31.5l-16 46h-234l-16 -46q-6 -17 0 -31.5t16.5 -23t20 -19.5t9.5 -21v-4
q0 -21 -25 -21h-163q-25 0 -25 21v4q0 15 25 40t36 55l178 461q9 24 -14.5 60t-23.5 44v4q0 21 25 21h148q52 0 74 -52zM211 250h176l-86 253z" />
    <glyph glyph-name="Aogonek.ss01" horiz-adv-x="716" 
d="M665 120q12 -28 36.5 -54t24.5 -41v-4q0 -21 -25 -21h-89q-47 -63 -47 -115q-1 -44 26 -44q6 0 15 3q23 8 30 -18q9 -29 -13 -47q-5 -5 -11 -7q-18 -8 -57 -8q-32 0 -59 7.5t-48.5 30.5t-21.5 58q0 80 113 140h-129q-25 0 -25 21v4q0 10 9.5 21t20 19.5t16.5 23t0 31.5
l-16 46h-234l-16 -46q-6 -17 0 -31.5t16.5 -23t20 -19.5t9.5 -21v-4q0 -21 -25 -21h-163q-25 0 -25 21v4q0 15 25 40t36 55l178 461q9 24 -14.5 60t-23.5 44v4q0 21 25 21h148q52 0 74 -52zM211 250h176l-86 253z" />
    <glyph glyph-name="Aring.ss01" horiz-adv-x="716" 
d="M336 734q-67 0 -112 32t-45 79q0 55 43.5 87t114.5 32q68 0 113 -31t45 -79q0 -55 -43 -87.5t-116 -32.5zM337 909q-43 0 -43 -59q0 -29 12.5 -46.5t30.5 -17.5q43 0 43 64q0 29 -12.5 44t-30.5 15zM665 120q12 -28 36.5 -54t24.5 -41v-4q0 -21 -25 -21h-291
q-25 0 -25 21v4q0 10 9.5 21t20 19.5t16.5 23t0 31.5l-16 46h-234l-16 -46q-6 -17 0 -31.5t16.5 -23t20 -19.5t9.5 -21v-4q0 -21 -25 -21h-163q-25 0 -25 21v4q0 15 25 40t36 55l178 461q9 24 -14.5 60t-23.5 44v4q0 21 25 21h148q52 0 74 -52zM211 250h176l-86 253z" />
    <glyph glyph-name="Atilde.ss01" horiz-adv-x="716" 
d="M167 767q-21 0 -17 24q10 50 44 85t80 35q40 0 90.5 -22.5t68.5 -22.5q29 0 44 20q12 15 27 15h7q23 0 18 -25q-11 -50 -43 -86t-78 -36q-34 0 -87 24t-77 24q-20 0 -36 -17q-2 -3 -5 -6.5t-4.5 -5t-4.5 -3.5t-6.5 -2.5t-8.5 -0.5h-12zM665 120q12 -28 36.5 -54t24.5 -41
v-4q0 -21 -25 -21h-291q-25 0 -25 21v4q0 10 9.5 21t20 19.5t16.5 23t0 31.5l-16 46h-234l-16 -46q-6 -17 0 -31.5t16.5 -23t20 -19.5t9.5 -21v-4q0 -21 -25 -21h-163q-25 0 -25 21v4q0 15 25 40t36 55l178 461q9 24 -14.5 60t-23.5 44v4q0 21 25 21h148q52 0 74 -52z
M211 250h176l-86 253z" />
    <glyph glyph-name="G.ss01" horiz-adv-x="713" 
d="M389 -10q-161 0 -264 109.5t-103 255.5q0 110 51 195t127 127t160 42q129 0 214 -51.5t85 -133.5q0 -41 -24.5 -66t-65.5 -25q-48 0 -87 31t-60.5 67.5t-51 67.5t-60.5 31q-42 0 -66 -41.5t-24 -107.5q0 -147 62.5 -254t151.5 -107q18 0 30 3v117q0 27 -26.5 54.5
t-26.5 40.5v4q0 9 8 15t20 6l237 -1q25 0 25 -21v-4q0 -13 -23 -40.5t-23 -54.5v-105q0 -25 -9.5 -43t-36.5 -39q-92 -72 -220 -72z" />
    <glyph glyph-name="Gbreve.ss01" horiz-adv-x="713" 
d="M373 755q-75 0 -124 40t-57 100q-3 25 25.5 32.5t39.5 -9.5q13 -21 46 -34.5t70 -13.5q39 0 71 13t45 35q9 14 38 6.5t27 -29.5q-8 -61 -56 -100.5t-125 -39.5zM389 -10q-161 0 -264 109.5t-103 255.5q0 110 51 195t127 127t160 42q129 0 214 -51.5t85 -133.5
q0 -41 -24.5 -66t-65.5 -25q-48 0 -87 31t-60.5 67.5t-51 67.5t-60.5 31q-42 0 -66 -41.5t-24 -107.5q0 -147 62.5 -254t151.5 -107q18 0 30 3v117q0 27 -26.5 54.5t-26.5 40.5v4q0 9 8 15t20 6l237 -1q25 0 25 -21v-4q0 -13 -23 -40.5t-23 -54.5v-105q0 -25 -9.5 -43
t-36.5 -39q-92 -72 -220 -72z" />
    <glyph glyph-name="uni0122.ss01" horiz-adv-x="713" 
d="M389 -10q-161 0 -264 109.5t-103 255.5q0 110 51 195t127 127t160 42q129 0 214 -51.5t85 -133.5q0 -41 -24.5 -66t-65.5 -25q-48 0 -87 31t-60.5 67.5t-51 67.5t-60.5 31q-42 0 -66 -41.5t-24 -107.5q0 -147 62.5 -254t151.5 -107q18 0 30 3v117q0 27 -26.5 54.5
t-26.5 40.5v4q0 9 8 15t20 6l237 -1q25 0 25 -21v-4q0 -13 -23 -40.5t-23 -54.5v-105q0 -25 -9.5 -43t-36.5 -39q-92 -72 -220 -72zM333 -340q-16 -10 -29.5 4.5t-0.5 27.5q22 22 28.5 29.5t14 20t7.5 24.5q2 20 -12 20q-27 0 -47 25t-20 63q0 46 26 74t71 28q42 0 72 -31
t30 -84q0 -119 -140 -201z" />
    <glyph glyph-name="Gdotaccent.ss01" horiz-adv-x="713" 
d="M382 748q-51 0 -83 28.5t-32 71.5t32 71.5t83 28.5t83 -28.5t32 -71.5t-32 -71.5t-83 -28.5zM389 -10q-161 0 -264 109.5t-103 255.5q0 110 51 195t127 127t160 42q129 0 214 -51.5t85 -133.5q0 -41 -24.5 -66t-65.5 -25q-48 0 -87 31t-60.5 67.5t-51 67.5t-60.5 31
q-42 0 -66 -41.5t-24 -107.5q0 -147 62.5 -254t151.5 -107q18 0 30 3v117q0 27 -26.5 54.5t-26.5 40.5v4q0 9 8 15t20 6l237 -1q25 0 25 -21v-4q0 -13 -23 -40.5t-23 -54.5v-105q0 -25 -9.5 -43t-36.5 -39q-92 -72 -220 -72z" />
    <glyph glyph-name="K.ss01" horiz-adv-x="733" 
d="M684 120q17 -29 45 -54t28 -41v-4q0 -21 -25 -21h-275q-25 0 -25 21v4q0 12 15.5 27.5t23 28t-4.5 39.5l-124 208l-59 -61v-147q0 -27 23 -54.5t23 -40.5v-4q0 -21 -25 -21h-243q-25 0 -25 21v4q0 13 20.5 40.5t20.5 54.5v470q0 27 -20.5 54.5t-20.5 40.5v4q0 21 25 21
h243q25 0 25 -21v-4q0 -13 -23 -40.5t-23 -54.5v-201l193 201q14 14 16 28t-3.5 23t-12 22t-6.5 22v4q0 21 25 21h179q25 0 25 -21v-4q0 -14 -14.5 -26.5t-41.5 -31t-45 -37.5l-117 -119z" />
    <glyph glyph-name="uni0136.ss01" horiz-adv-x="733" 
d="M684 120q17 -29 45 -54t28 -41v-4q0 -21 -25 -21h-275q-25 0 -25 21v4q0 12 15.5 27.5t23 28t-4.5 39.5l-124 208l-59 -61v-147q0 -27 23 -54.5t23 -40.5v-4q0 -21 -25 -21h-243q-25 0 -25 21v4q0 13 20.5 40.5t20.5 54.5v470q0 27 -20.5 54.5t-20.5 40.5v4q0 21 25 21
h243q25 0 25 -21v-4q0 -13 -23 -40.5t-23 -54.5v-201l193 201q14 14 16 28t-3.5 23t-12 22t-6.5 22v4q0 21 25 21h179q25 0 25 -21v-4q0 -14 -14.5 -26.5t-41.5 -31t-45 -37.5l-117 -119zM391 -24q42 0 72 -31t30 -84q0 -119 -140 -201q-16 -10 -29.5 4.5t-0.5 27.5
q22 22 28.5 29.5t14 20t7.5 24.5q2 20 -12 20q-27 0 -47 25t-20 63q0 46 26 74t71 28z" />
    <glyph glyph-name="M.ss01" horiz-adv-x="903" 
d="M854 120q5 -25 23 -52.5t18 -42.5v-4q0 -21 -25 -21h-231q-25 0 -25 21v4q0 12 20 40t16 55l-53 307l-140 -395q-10 -31 -39 -31q-32 0 -45 30l-168 416l-46 -327q-4 -27 16 -55t20 -40v-4q0 -21 -25 -21h-133q-25 0 -25 21v4q0 15 18.5 42t22.5 53l71 470q4 27 -18.5 55
t-22.5 40v4q0 21 25 21h150q44 0 57 -39l132 -386l124 384q14 41 56 41h154q25 0 25 -21v-4q0 -12 -23 -40t-18 -55z" />
    <glyph glyph-name="N.ss01" horiz-adv-x="762" 
d="M711 710q25 0 25 -21v-4q0 -13 -23 -40.5t-23 -54.5v-538q0 -52 -52 -52h-65q-31 0 -58 35l-338 444v-359q0 -27 24 -54.5t24 -40.5v-4q0 -21 -25 -21h-139q-25 0 -25 21v4q0 13 20.5 40.5t20.5 54.5v470q0 27 -20.5 54.5t-20.5 40.5v4q0 21 25 21h170q32 0 58 -35
l301 -418v333q0 27 -22.5 54.5t-22.5 40.5v4q0 21 25 21h141z" />
    <glyph glyph-name="Nacute.ss01" horiz-adv-x="762" 
d="M300 772q-32 -2 -41 23q-13 28 14 44l190 107q24 12 40 5t23 -30l24 -82q6 -22 -3 -37.5t-33 -16.5zM711 710q25 0 25 -21v-4q0 -13 -23 -40.5t-23 -54.5v-538q0 -52 -52 -52h-65q-31 0 -58 35l-338 444v-359q0 -27 24 -54.5t24 -40.5v-4q0 -21 -25 -21h-139
q-25 0 -25 21v4q0 13 20.5 40.5t20.5 54.5v470q0 27 -20.5 54.5t-20.5 40.5v4q0 21 25 21h170q32 0 58 -35l301 -418v333q0 27 -22.5 54.5t-22.5 40.5v4q0 21 25 21h141z" />
    <glyph glyph-name="Ncaron.ss01" horiz-adv-x="762" 
d="M309 769l-105 104q-16 16 2.5 34t36.5 10l146 -67l143 67q19 9 36.5 -11t2.5 -33l-113 -105q-21 -20 -52 -20h-45q-31 0 -52 21zM711 710q25 0 25 -21v-4q0 -13 -23 -40.5t-23 -54.5v-538q0 -52 -52 -52h-65q-31 0 -58 35l-338 444v-359q0 -27 24 -54.5t24 -40.5v-4
q0 -21 -25 -21h-139q-25 0 -25 21v4q0 13 20.5 40.5t20.5 54.5v470q0 27 -20.5 54.5t-20.5 40.5v4q0 21 25 21h170q32 0 58 -35l301 -418v333q0 27 -22.5 54.5t-22.5 40.5v4q0 21 25 21h141z" />
    <glyph glyph-name="uni0145.ss01" horiz-adv-x="762" 
d="M711 710q25 0 25 -21v-4q0 -13 -23 -40.5t-23 -54.5v-538q0 -52 -52 -52h-65q-31 0 -58 35l-338 444v-359q0 -27 24 -54.5t24 -40.5v-4q0 -21 -25 -21h-139q-25 0 -25 21v4q0 13 20.5 40.5t20.5 54.5v470q0 27 -20.5 54.5t-20.5 40.5v4q0 21 25 21h170q32 0 58 -35
l301 -418v333q0 27 -22.5 54.5t-22.5 40.5v4q0 21 25 21h141zM385 -24q42 0 72 -31t30 -84q0 -119 -140 -201q-16 -10 -29.5 4.5t-0.5 27.5q22 22 28.5 29.5t14 20t7.5 24.5q2 20 -12 20q-27 0 -47 25t-20 63q0 46 26 74t71 28z" />
    <glyph glyph-name="Ntilde.ss01" horiz-adv-x="762" 
d="M224 767q-22 0 -17 24q10 50 44 85t80 35q40 0 90.5 -22.5t68.5 -22.5q29 0 44 20q12 15 27 15h7q23 0 18 -25q-11 -50 -43 -86t-78 -36q-34 0 -87 24t-77 24q-20 0 -36 -17q-2 -3 -5 -6.5t-4.5 -5t-4.5 -3.5t-6.5 -2.5t-8.5 -0.5h-12zM711 710q25 0 25 -21v-4
q0 -13 -23 -40.5t-23 -54.5v-538q0 -52 -52 -52h-65q-31 0 -58 35l-338 444v-359q0 -27 24 -54.5t24 -40.5v-4q0 -21 -25 -21h-139q-25 0 -25 21v4q0 13 20.5 40.5t20.5 54.5v470q0 27 -20.5 54.5t-20.5 40.5v4q0 21 25 21h170q32 0 58 -35l301 -418v333q0 27 -22.5 54.5
t-22.5 40.5v4q0 21 25 21h141z" />
    <glyph glyph-name="Q.ss01" horiz-adv-x="754" 
d="M765 -46q15 0 15 -18q0 -51 -57.5 -91.5t-135.5 -40.5q-51 0 -98.5 17.5t-80 38t-81.5 38t-102 17.5q-35 0 -75 -9t-44 -9q-11 0 -16.5 8.5t-4 21.5t8.5 26q33 63 109 81q-82 46 -131 127.5t-49 188.5q0 166 97 268t256 102q144 0 249.5 -104t105.5 -266q0 -148 -86 -244
t-219 -113q37 -19 58.5 -28.5t62.5 -19t84 -9.5q53 0 92 9t42 9zM302 636q-81 0 -81 -115q0 -88 31.5 -193t83 -179.5t100.5 -74.5q83 0 83 112q0 76 -32 181.5t-84 187t-101 81.5z" />
    <glyph glyph-name="R.ss01" horiz-adv-x="717" 
d="M645 120q15 -24 36.5 -42.5t33 -29t11.5 -23.5v-4q0 -21 -25 -21h-272q-25 0 -25 21v4q0 11 12.5 26.5t18 27.5t-4.5 41l-68 144l-77 -2v-142q0 -27 23 -54.5t23 -40.5v-4q0 -21 -25 -21h-245q-25 0 -25 21v4q0 13 20.5 40.5t20.5 54.5v470q0 27 -20.5 54.5t-20.5 40.5v4
q0 21 25 21h286q142 0 222.5 -58.5t80.5 -169.5q0 -54 -29.5 -105t-86.5 -80zM285 426q0 -47 16.5 -66t51.5 -19h20q27 0 45 29.5t18 91.5q0 72 -33.5 121t-71.5 49h-5q-18 0 -29.5 -16t-11.5 -40v-150z" />
    <glyph glyph-name="Racute.ss01" horiz-adv-x="717" 
d="M253 772q-32 -2 -41 23q-13 28 14 44l190 107q24 12 40 5t23 -30l24 -82q6 -22 -3 -37.5t-33 -16.5zM645 120q15 -24 36.5 -42.5t33 -29t11.5 -23.5v-4q0 -21 -25 -21h-272q-25 0 -25 21v4q0 11 12.5 26.5t18 27.5t-4.5 41l-68 144l-77 -2v-142q0 -27 23 -54.5t23 -40.5
v-4q0 -21 -25 -21h-245q-25 0 -25 21v4q0 13 20.5 40.5t20.5 54.5v470q0 27 -20.5 54.5t-20.5 40.5v4q0 21 25 21h286q142 0 222.5 -58.5t80.5 -169.5q0 -54 -29.5 -105t-86.5 -80zM285 426q0 -47 16.5 -66t51.5 -19h20q27 0 45 29.5t18 91.5q0 72 -33.5 121t-71.5 49h-5
q-18 0 -29.5 -16t-11.5 -40v-150z" />
    <glyph glyph-name="Rcaron.ss01" horiz-adv-x="717" 
d="M262 769l-105 104q-16 16 2.5 34t36.5 10l146 -67l143 67q19 9 36.5 -11t2.5 -33l-113 -105q-21 -20 -52 -20h-45q-31 0 -52 21zM645 120q15 -24 36.5 -42.5t33 -29t11.5 -23.5v-4q0 -21 -25 -21h-272q-25 0 -25 21v4q0 11 12.5 26.5t18 27.5t-4.5 41l-68 144l-77 -2
v-142q0 -27 23 -54.5t23 -40.5v-4q0 -21 -25 -21h-245q-25 0 -25 21v4q0 13 20.5 40.5t20.5 54.5v470q0 27 -20.5 54.5t-20.5 40.5v4q0 21 25 21h286q142 0 222.5 -58.5t80.5 -169.5q0 -54 -29.5 -105t-86.5 -80zM285 426q0 -47 16.5 -66t51.5 -19h20q27 0 45 29.5t18 91.5
q0 72 -33.5 121t-71.5 49h-5q-18 0 -29.5 -16t-11.5 -40v-150z" />
    <glyph glyph-name="uni0156.ss01" horiz-adv-x="717" 
d="M645 120q15 -24 36.5 -42.5t33 -29t11.5 -23.5v-4q0 -21 -25 -21h-272q-25 0 -25 21v4q0 11 12.5 26.5t18 27.5t-4.5 41l-68 144l-77 -2v-142q0 -27 23 -54.5t23 -40.5v-4q0 -21 -25 -21h-245q-25 0 -25 21v4q0 13 20.5 40.5t20.5 54.5v470q0 27 -20.5 54.5t-20.5 40.5v4
q0 21 25 21h286q142 0 222.5 -58.5t80.5 -169.5q0 -54 -29.5 -105t-86.5 -80zM285 426q0 -47 16.5 -66t51.5 -19h20q27 0 45 29.5t18 91.5q0 72 -33.5 121t-71.5 49h-5q-18 0 -29.5 -16t-11.5 -40v-150zM363 -4q42 0 72 -31t30 -84q0 -119 -140 -201q-16 -10 -29.5 4.5
t-0.5 27.5q22 22 28.5 29.5t14 20t7.5 24.5q2 20 -12 20q-27 0 -47 25t-20 63q0 46 26 74t71 28z" />
    <glyph glyph-name="U.ss01" horiz-adv-x="722" 
d="M375 -10q-142 0 -226.5 70.5t-84.5 205.5v324q0 27 -20.5 54.5t-20.5 40.5v4q0 21 25 21h245q25 0 25 -21v-4q0 -13 -23 -40.5t-23 -54.5v-324q0 -99 37.5 -145.5t112.5 -46.5q22 0 42.5 7.5t42.5 26.5t35.5 59.5t13.5 98.5v324q0 27 -20.5 54.5t-20.5 40.5v4q0 21 25 21
h137q25 0 25 -21v-4q0 -13 -23 -40.5t-23 -54.5v-326q0 -134 -76 -204t-205 -70z" />
    <glyph glyph-name="Uacute.ss01" horiz-adv-x="722" 
d="M278 772q-32 -2 -41 23q-13 28 14 44l190 107q24 12 40 5t23 -30l24 -82q6 -22 -3 -37.5t-33 -16.5zM375 -10q-142 0 -226.5 70.5t-84.5 205.5v324q0 27 -20.5 54.5t-20.5 40.5v4q0 21 25 21h245q25 0 25 -21v-4q0 -13 -23 -40.5t-23 -54.5v-324q0 -99 37.5 -145.5
t112.5 -46.5q22 0 42.5 7.5t42.5 26.5t35.5 59.5t13.5 98.5v324q0 27 -20.5 54.5t-20.5 40.5v4q0 21 25 21h137q25 0 25 -21v-4q0 -13 -23 -40.5t-23 -54.5v-326q0 -134 -76 -204t-205 -70z" />
    <glyph glyph-name="Ucircumflex.ss01" horiz-adv-x="722" 
d="M218 758q-23 -12 -44.5 8.5t3.5 48.5l110 117q20 22 52 22h39q31 0 52 -21l124 -118q26 -26 7 -49.5t-53 -7.5l-154 74zM677 710q25 0 25 -21v-4q0 -13 -23 -40.5t-23 -54.5v-326q0 -134 -76 -204t-205 -70q-142 0 -226.5 70.5t-84.5 205.5v324q0 27 -20.5 54.5
t-20.5 40.5v4q0 21 25 21h245q25 0 25 -21v-4q0 -13 -23 -40.5t-23 -54.5v-324q0 -99 37.5 -145.5t112.5 -46.5q22 0 42.5 7.5t42.5 26.5t35.5 59.5t13.5 98.5v324q0 27 -20.5 54.5t-20.5 40.5v4q0 21 25 21h137z" />
    <glyph glyph-name="Udieresis.ss01" horiz-adv-x="722" 
d="M235 760q-50 0 -82 28.5t-32 71.5t32 71t82 28t81.5 -28t31.5 -71t-31.5 -71.5t-81.5 -28.5zM500 760q-50 0 -81.5 28.5t-31.5 71.5t31.5 71t81.5 28t82 -28t32 -71t-32 -71.5t-82 -28.5zM375 -10q-142 0 -226.5 70.5t-84.5 205.5v324q0 27 -20.5 54.5t-20.5 40.5v4
q0 21 25 21h245q25 0 25 -21v-4q0 -13 -23 -40.5t-23 -54.5v-324q0 -99 37.5 -145.5t112.5 -46.5q22 0 42.5 7.5t42.5 26.5t35.5 59.5t13.5 98.5v324q0 27 -20.5 54.5t-20.5 40.5v4q0 21 25 21h137q25 0 25 -21v-4q0 -13 -23 -40.5t-23 -54.5v-326q0 -134 -76 -204t-205 -70
z" />
    <glyph glyph-name="Ugrave.ss01" horiz-adv-x="722" 
d="M457 763l-214 2q-24 0 -34 15t-5 38l20 83q5 22 21.5 30.5t40.5 -2.5l195 -98q11 -6 16 -18.5t1 -25.5q-10 -24 -41 -24zM375 -10q-142 0 -226.5 70.5t-84.5 205.5v324q0 27 -20.5 54.5t-20.5 40.5v4q0 21 25 21h245q25 0 25 -21v-4q0 -13 -23 -40.5t-23 -54.5v-324
q0 -99 37.5 -145.5t112.5 -46.5q22 0 42.5 7.5t42.5 26.5t35.5 59.5t13.5 98.5v324q0 27 -20.5 54.5t-20.5 40.5v4q0 21 25 21h137q25 0 25 -21v-4q0 -13 -23 -40.5t-23 -54.5v-326q0 -134 -76 -204t-205 -70z" />
    <glyph glyph-name="Uhungarumlaut.ss01" horiz-adv-x="722" 
d="M205 726q-11 11 2 36l102 181q28 48 65 13l40 -38q19 -17 20 -34.5t-19 -31.5l-175 -123q-21 -14 -35 -3zM428 726q-11 11 2 36l102 181q28 48 65 13l40 -38q41 -38 1 -66l-175 -123q-22 -15 -35 -3zM375 -10q-142 0 -226.5 70.5t-84.5 205.5v324q0 27 -20.5 54.5
t-20.5 40.5v4q0 21 25 21h245q25 0 25 -21v-4q0 -13 -23 -40.5t-23 -54.5v-324q0 -99 37.5 -145.5t112.5 -46.5q22 0 42.5 7.5t42.5 26.5t35.5 59.5t13.5 98.5v324q0 27 -20.5 54.5t-20.5 40.5v4q0 21 25 21h137q25 0 25 -21v-4q0 -13 -23 -40.5t-23 -54.5v-326
q0 -134 -76 -204t-205 -70z" />
    <glyph glyph-name="Umacron.ss01" horiz-adv-x="722" 
d="M221 785q-26 0 -26 26v69q0 26 26 26h288q26 0 26 -26v-69q0 -26 -26 -26h-288zM375 -10q-142 0 -226.5 70.5t-84.5 205.5v324q0 27 -20.5 54.5t-20.5 40.5v4q0 21 25 21h245q25 0 25 -21v-4q0 -13 -23 -40.5t-23 -54.5v-324q0 -99 37.5 -145.5t112.5 -46.5
q22 0 42.5 7.5t42.5 26.5t35.5 59.5t13.5 98.5v324q0 27 -20.5 54.5t-20.5 40.5v4q0 21 25 21h137q25 0 25 -21v-4q0 -13 -23 -40.5t-23 -54.5v-326q0 -134 -76 -204t-205 -70z" />
    <glyph glyph-name="Uogonek.ss01" horiz-adv-x="722" 
d="M677 710q25 0 25 -21v-4q0 -13 -23 -40.5t-23 -54.5v-326q0 -114 -55.5 -182t-154.5 -86q-37 -56 -37 -101q-1 -44 26 -44q6 0 15 3q23 8 30 -18q9 -29 -13 -47q-5 -5 -11 -7q-18 -8 -57 -8q-32 0 -59 7.5t-48.5 30.5t-21.5 58q0 67 80 121q-131 6 -208.5 76t-77.5 199
v324q0 27 -20.5 54.5t-20.5 40.5v4q0 21 25 21h245q25 0 25 -21v-4q0 -13 -23 -40.5t-23 -54.5v-324q0 -99 37.5 -145.5t112.5 -46.5q22 0 42.5 7.5t42.5 26.5t35.5 59.5t13.5 98.5v324q0 27 -20.5 54.5t-20.5 40.5v4q0 21 25 21h137z" />
    <glyph glyph-name="Uring.ss01" horiz-adv-x="722" 
d="M371 734q-67 0 -112 32t-45 79q0 55 43.5 87t114.5 32q68 0 113 -31t45 -79q0 -55 -43 -87.5t-116 -32.5zM372 786q43 0 43 64q0 29 -12.5 44t-30.5 15q-43 0 -43 -59q0 -29 12.5 -46.5t30.5 -17.5zM375 -10q-142 0 -226.5 70.5t-84.5 205.5v324q0 27 -20.5 54.5
t-20.5 40.5v4q0 21 25 21h245q25 0 25 -21v-4q0 -13 -23 -40.5t-23 -54.5v-324q0 -99 37.5 -145.5t112.5 -46.5q22 0 42.5 7.5t42.5 26.5t35.5 59.5t13.5 98.5v324q0 27 -20.5 54.5t-20.5 40.5v4q0 21 25 21h137q25 0 25 -21v-4q0 -13 -23 -40.5t-23 -54.5v-326
q0 -134 -76 -204t-205 -70z" />
    <glyph glyph-name="Utilde.ss01" horiz-adv-x="722" 
d="M309 911q40 0 90.5 -22.5t68.5 -22.5q29 0 44 20q12 15 27 15h7q23 0 18 -25q-11 -50 -43 -86t-78 -36q-34 0 -87 24t-77 24q-20 0 -36 -17q-2 -3 -5 -6.5t-4.5 -5t-4.5 -3.5t-6.5 -2.5t-8.5 -0.5h-12q-22 0 -17 24q10 50 44 85t80 35zM375 -10q-142 0 -226.5 70.5
t-84.5 205.5v324q0 27 -20.5 54.5t-20.5 40.5v4q0 21 25 21h245q25 0 25 -21v-4q0 -13 -23 -40.5t-23 -54.5v-324q0 -99 37.5 -145.5t112.5 -46.5q22 0 42.5 7.5t42.5 26.5t35.5 59.5t13.5 98.5v324q0 27 -20.5 54.5t-20.5 40.5v4q0 21 25 21h137q25 0 25 -21v-4
q0 -13 -23 -40.5t-23 -54.5v-326q0 -134 -76 -204t-205 -70z" />
    <glyph glyph-name="W.ss01" horiz-adv-x="1031" 
d="M1008 710q25 0 25 -21v-4q0 -13 -11.5 -24t-28 -29t-24.5 -42l-186 -534q-20 -56 -75 -56q-58 0 -74 52l-104 325l-104 -321q-18 -56 -67 -56q-30 0 -45.5 12t-27.5 40l-233 538q-12 28 -40 54t-28 41v4q0 21 25 21h274q25 0 25 -21v-4q0 -12 -14 -26t-23.5 -31t-1.5 -38
l125 -339l87 275l-21 64q-7 23 -38.5 51.5t-31.5 43.5v4q0 21 25 21h269q25 0 25 -21v-4q0 -12 -15 -24.5t-27 -29t-5 -41.5l90 -335l108 335q7 21 -3.5 38t-25 31t-14.5 26v4q0 21 25 21h165z" />
    <glyph glyph-name="Wacute.ss01" horiz-adv-x="1031" 
d="M466 772q-32 -2 -41 23q-13 28 14 44l190 107q24 12 40 5t23 -30l24 -82q6 -22 -3 -37.5t-33 -16.5zM1008 710q25 0 25 -21v-4q0 -13 -11.5 -24t-28 -29t-24.5 -42l-186 -534q-20 -56 -75 -56q-58 0 -74 52l-104 325l-104 -321q-18 -56 -67 -56q-30 0 -45.5 12t-27.5 40
l-233 538q-12 28 -40 54t-28 41v4q0 21 25 21h274q25 0 25 -21v-4q0 -12 -14 -26t-23.5 -31t-1.5 -38l125 -339l87 275l-21 64q-7 23 -38.5 51.5t-31.5 43.5v4q0 21 25 21h269q25 0 25 -21v-4q0 -12 -15 -24.5t-27 -29t-5 -41.5l90 -335l108 335q7 21 -3.5 38t-25 31
t-14.5 26v4q0 21 25 21h165z" />
    <glyph glyph-name="Wcircumflex.ss01" horiz-adv-x="1031" 
d="M406 758q-23 -12 -44.5 8.5t3.5 48.5l110 117q20 22 52 22h39q31 0 52 -21l124 -118q26 -26 7 -49.5t-53 -7.5l-154 74zM1008 710q25 0 25 -21v-4q0 -13 -11.5 -24t-28 -29t-24.5 -42l-186 -534q-20 -56 -75 -56q-58 0 -74 52l-104 325l-104 -321q-18 -56 -67 -56
q-30 0 -45.5 12t-27.5 40l-233 538q-12 28 -40 54t-28 41v4q0 21 25 21h274q25 0 25 -21v-4q0 -12 -14 -26t-23.5 -31t-1.5 -38l125 -339l87 275l-21 64q-7 23 -38.5 51.5t-31.5 43.5v4q0 21 25 21h269q25 0 25 -21v-4q0 -12 -15 -24.5t-27 -29t-5 -41.5l90 -335l108 335
q7 21 -3.5 38t-25 31t-14.5 26v4q0 21 25 21h165z" />
    <glyph glyph-name="Wdieresis.ss01" horiz-adv-x="1031" 
d="M423 760q-50 0 -82 28.5t-32 71.5t32 71t82 28t81.5 -28t31.5 -71t-31.5 -71.5t-81.5 -28.5zM688 760q-50 0 -81.5 28.5t-31.5 71.5t31.5 71t81.5 28t82 -28t32 -71t-32 -71.5t-82 -28.5zM1008 710q25 0 25 -21v-4q0 -13 -11.5 -24t-28 -29t-24.5 -42l-186 -534
q-20 -56 -75 -56q-58 0 -74 52l-104 325l-104 -321q-18 -56 -67 -56q-30 0 -45.5 12t-27.5 40l-233 538q-12 28 -40 54t-28 41v4q0 21 25 21h274q25 0 25 -21v-4q0 -12 -14 -26t-23.5 -31t-1.5 -38l125 -339l87 275l-21 64q-7 23 -38.5 51.5t-31.5 43.5v4q0 21 25 21h269
q25 0 25 -21v-4q0 -12 -15 -24.5t-27 -29t-5 -41.5l90 -335l108 335q7 21 -3.5 38t-25 31t-14.5 26v4q0 21 25 21h165z" />
    <glyph glyph-name="Wgrave.ss01" horiz-adv-x="1031" 
d="M431 765q-24 0 -34 15t-5 38l20 83q5 22 21.5 30.5t40.5 -2.5l195 -98q11 -6 16 -18.5t1 -25.5q-10 -24 -41 -24zM1008 710q25 0 25 -21v-4q0 -13 -11.5 -24t-28 -29t-24.5 -42l-186 -534q-20 -56 -75 -56q-58 0 -74 52l-104 325l-104 -321q-18 -56 -67 -56
q-30 0 -45.5 12t-27.5 40l-233 538q-12 28 -40 54t-28 41v4q0 21 25 21h274q25 0 25 -21v-4q0 -12 -14 -26t-23.5 -31t-1.5 -38l125 -339l87 275l-21 64q-7 23 -38.5 51.5t-31.5 43.5v4q0 21 25 21h269q25 0 25 -21v-4q0 -12 -15 -24.5t-27 -29t-5 -41.5l90 -335l108 335
q7 21 -3.5 38t-25 31t-14.5 26v4q0 21 25 21h165z" />
    <glyph glyph-name="i.loclTRK" horiz-adv-x="328" 
d="M169 529q-56 0 -91.5 32t-35.5 79t35.5 78.5t91.5 31.5t91.5 -31.5t35.5 -78.5t-35.5 -79t-91.5 -32zM49 0q-25 0 -25 21v4q0 13 20.5 40.5t20.5 54.5v161q0 27 -20.5 53.5t-20.5 37.5v4q0 13 25 25l171 84q22 10 35.5 2t13.5 -25v-342q0 -27 23 -54.5t23 -40.5v-4
q0 -21 -25 -21h-241z" />
    <glyph glyph-name="uni006A0301" horiz-adv-x="308" 
d="M65 543q-31 -7 -45 15q-16 26 7 46l170 137q21 16 38.5 11.5t27.5 -25.5l37 -77q11 -20 4 -37.5t-30 -22.5zM64 -203q-80 0 -126.5 28t-46.5 86q0 36 24 58.5t60 22.5q39 0 60 -21t25 -45.5t15 -45.5t31 -21q16 0 25.5 11t9.5 28q0 35 -19.5 60.5t-38.5 48.5t-19 50v224
q0 27 -20.5 53.5t-20.5 37.5v4q0 13 25 25l171 84q23 10 36 2t13 -25v-472q0 -86 -45 -131q-32 -32 -68 -47t-91 -15z" />
    <glyph glyph-name="a.ss01" horiz-adv-x="563" 
d="M514 117q3 -25 11.5 -40.5t16.5 -20t14.5 -11t6.5 -15.5q0 -36 -125 -36q-91 0 -103 44q-39 -48 -123 -48t-137 38.5t-53 113.5q0 73 52 113.5t127 40.5q57 0 96 -22q-12 115 -20 136q-11 28 -38 28q-19 0 -31 -21.5t-17.5 -48t-25.5 -48t-53 -21.5q-35 0 -57 20t-22 52
q0 42 31.5 70t76 38.5t98.5 10.5q103 0 171.5 -54.5t80.5 -145.5zM276 46q18 0 28 21t8 44l-4 47q-10 80 -49 80q-15 0 -24.5 -16t-9.5 -41q0 -57 13.5 -96t37.5 -39z" />
    <glyph glyph-name="aacute.ss01" horiz-adv-x="563" 
d="M168 543q-31 -7 -45 15q-16 26 7 46l170 137q21 16 38.5 11.5t27.5 -25.5l37 -77q11 -20 4 -37.5t-30 -22.5zM514 117q3 -25 11.5 -40.5t16.5 -20t14.5 -11t6.5 -15.5q0 -36 -125 -36q-91 0 -103 44q-39 -48 -123 -48t-137 38.5t-53 113.5q0 73 52 113.5t127 40.5
q57 0 96 -22q-12 115 -20 136q-11 28 -38 28q-19 0 -31 -21.5t-17.5 -48t-25.5 -48t-53 -21.5q-35 0 -57 20t-22 52q0 42 31.5 70t76 38.5t98.5 10.5q103 0 171.5 -54.5t80.5 -145.5zM276 46q18 0 28 21t8 44l-4 47q-10 80 -49 80q-15 0 -24.5 -16t-9.5 -41q0 -57 13.5 -96
t37.5 -39z" />
    <glyph glyph-name="abreve.ss01" horiz-adv-x="563" 
d="M258 541q-75 0 -124 40t-57 100q-3 25 25.5 32.5t39.5 -9.5q13 -21 46 -34.5t70 -13.5q39 0 71 13t45 35q9 14 38 6.5t27 -29.5q-8 -61 -56 -100.5t-125 -39.5zM514 117q3 -25 11.5 -40.5t16.5 -20t14.5 -11t6.5 -15.5q0 -36 -125 -36q-91 0 -103 44q-39 -48 -123 -48
t-137 38.5t-53 113.5q0 73 52 113.5t127 40.5q57 0 96 -22q-12 115 -20 136q-11 28 -38 28q-19 0 -31 -21.5t-17.5 -48t-25.5 -48t-53 -21.5q-35 0 -57 20t-22 52q0 42 31.5 70t76 38.5t98.5 10.5q103 0 171.5 -54.5t80.5 -145.5zM276 46q18 0 28 21t8 44l-4 47
q-10 80 -49 80q-15 0 -24.5 -16t-9.5 -41q0 -57 13.5 -96t37.5 -39z" />
    <glyph glyph-name="acircumflex.ss01" horiz-adv-x="563" 
d="M112 540q-23 -12 -44.5 8.5t3.5 48.5l110 117q20 22 52 22h39q31 0 52 -21l124 -118q26 -26 7 -49.5t-53 -7.5l-154 74zM514 117q3 -25 11.5 -40.5t16.5 -20t14.5 -11t6.5 -15.5q0 -36 -125 -36q-91 0 -103 44q-39 -48 -123 -48t-137 38.5t-53 113.5q0 73 52 113.5
t127 40.5q57 0 96 -22q-12 115 -20 136q-11 28 -38 28q-19 0 -31 -21.5t-17.5 -48t-25.5 -48t-53 -21.5q-35 0 -57 20t-22 52q0 42 31.5 70t76 38.5t98.5 10.5q103 0 171.5 -54.5t80.5 -145.5zM276 46q18 0 28 21t8 44l-4 47q-10 80 -49 80q-15 0 -24.5 -16t-9.5 -41
q0 -57 13.5 -96t37.5 -39z" />
    <glyph glyph-name="adieresis.ss01" horiz-adv-x="563" 
d="M126 535q-50 0 -82 28.5t-32 71.5t32 71t82 28t81.5 -28t31.5 -71t-31.5 -71.5t-81.5 -28.5zM391 535q-50 0 -81.5 28.5t-31.5 71.5t31.5 71t81.5 28t82 -28t32 -71t-32 -71.5t-82 -28.5zM514 117q3 -25 11.5 -40.5t16.5 -20t14.5 -11t6.5 -15.5q0 -36 -125 -36
q-91 0 -103 44q-39 -48 -123 -48t-137 38.5t-53 113.5q0 73 52 113.5t127 40.5q57 0 96 -22q-12 115 -20 136q-11 28 -38 28q-19 0 -31 -21.5t-17.5 -48t-25.5 -48t-53 -21.5q-35 0 -57 20t-22 52q0 42 31.5 70t76 38.5t98.5 10.5q103 0 171.5 -54.5t80.5 -145.5zM276 46
q18 0 28 21t8 44l-4 47q-10 80 -49 80q-15 0 -24.5 -16t-9.5 -41q0 -57 13.5 -96t37.5 -39z" />
    <glyph glyph-name="agrave.ss01" horiz-adv-x="563" 
d="M131 583q-23 5 -30 22.5t4 37.5l37 77q10 21 27.5 25.5t38.5 -11.5l170 -137q23 -20 7 -46q-14 -22 -45 -15zM514 117q3 -25 11.5 -40.5t16.5 -20t14.5 -11t6.5 -15.5q0 -36 -125 -36q-91 0 -103 44q-39 -48 -123 -48t-137 38.5t-53 113.5q0 73 52 113.5t127 40.5
q57 0 96 -22q-12 115 -20 136q-11 28 -38 28q-19 0 -31 -21.5t-17.5 -48t-25.5 -48t-53 -21.5q-35 0 -57 20t-22 52q0 42 31.5 70t76 38.5t98.5 10.5q103 0 171.5 -54.5t80.5 -145.5zM276 46q18 0 28 21t8 44l-4 47q-10 80 -49 80q-15 0 -24.5 -16t-9.5 -41q0 -57 13.5 -96
t37.5 -39z" />
    <glyph glyph-name="amacron.ss01" horiz-adv-x="563" 
d="M115 570q-26 0 -26 26v69q0 26 26 26h288q26 0 26 -26v-69q0 -26 -26 -26h-288zM514 117q3 -25 11.5 -40.5t16.5 -20t14.5 -11t6.5 -15.5q0 -36 -125 -36q-91 0 -103 44q-39 -48 -123 -48t-137 38.5t-53 113.5q0 73 52 113.5t127 40.5q57 0 96 -22q-12 115 -20 136
q-11 28 -38 28q-19 0 -31 -21.5t-17.5 -48t-25.5 -48t-53 -21.5q-35 0 -57 20t-22 52q0 42 31.5 70t76 38.5t98.5 10.5q103 0 171.5 -54.5t80.5 -145.5zM276 46q18 0 28 21t8 44l-4 47q-10 80 -49 80q-15 0 -24.5 -16t-9.5 -41q0 -57 13.5 -96t37.5 -39z" />
    <glyph glyph-name="aogonek.ss01" horiz-adv-x="563" 
d="M503 -2q-38 -57 -38 -103q-1 -44 26 -44q6 0 15 3q23 8 30 -18q9 -29 -13 -47q-5 -5 -11 -7q-18 -8 -57 -8q-32 0 -59 7.5t-48.5 30.5t-21.5 58q0 70 86 125q-66 4 -77 43q-39 -48 -123 -48t-137 38.5t-53 113.5q0 73 52 113.5t127 40.5q57 0 96 -22q-12 115 -20 136
q-11 28 -38 28q-19 0 -31 -21.5t-17.5 -48t-25.5 -48t-53 -21.5q-35 0 -57 20t-22 52q0 42 31.5 70t76 38.5t98.5 10.5q103 0 171.5 -54.5t80.5 -145.5l23 -173q3 -25 11.5 -40.5t16.5 -20t14.5 -11t6.5 -15.5q0 -25 -60 -32zM276 46q18 0 28 21t8 44l-4 47q-10 80 -49 80
q-15 0 -24.5 -16t-9.5 -41q0 -57 13.5 -96t37.5 -39z" />
    <glyph glyph-name="aring.ss01" horiz-adv-x="563" 
d="M258 529q-67 0 -112 32t-45 79q0 55 43.5 87t114.5 32q68 0 113 -31t45 -79q0 -55 -43 -87.5t-116 -32.5zM259 704q-43 0 -43 -59q0 -29 12.5 -46.5t30.5 -17.5q43 0 43 64q0 29 -12.5 44t-30.5 15zM514 117q3 -25 11.5 -40.5t16.5 -20t14.5 -11t6.5 -15.5
q0 -36 -125 -36q-91 0 -103 44q-39 -48 -123 -48t-137 38.5t-53 113.5q0 73 52 113.5t127 40.5q57 0 96 -22q-12 115 -20 136q-11 28 -38 28q-19 0 -31 -21.5t-17.5 -48t-25.5 -48t-53 -21.5q-35 0 -57 20t-22 52q0 42 31.5 70t76 38.5t98.5 10.5q103 0 171.5 -54.5
t80.5 -145.5zM276 46q18 0 28 21t8 44l-4 47q-10 80 -49 80q-15 0 -24.5 -16t-9.5 -41q0 -57 13.5 -96t37.5 -39z" />
    <glyph glyph-name="atilde.ss01" horiz-adv-x="563" 
d="M86 581q-22 0 -17 24q10 50 44 85t80 35q40 0 90.5 -22.5t68.5 -22.5q29 0 44 20q12 15 27 15h7q23 0 18 -25q-11 -50 -43 -86t-78 -36q-34 0 -87 24t-77 24q-20 0 -36 -17q-2 -3 -5 -6.5t-4.5 -5t-4.5 -3.5t-6.5 -2.5t-8.5 -0.5h-12zM514 117q3 -25 11.5 -40.5t16.5 -20
t14.5 -11t6.5 -15.5q0 -36 -125 -36q-91 0 -103 44q-39 -48 -123 -48t-137 38.5t-53 113.5q0 73 52 113.5t127 40.5q57 0 96 -22q-12 115 -20 136q-11 28 -38 28q-19 0 -31 -21.5t-17.5 -48t-25.5 -48t-53 -21.5q-35 0 -57 20t-22 52q0 42 31.5 70t76 38.5t98.5 10.5
q103 0 171.5 -54.5t80.5 -145.5zM276 46q18 0 28 21t8 44l-4 47q-10 80 -49 80q-15 0 -24.5 -16t-9.5 -41q0 -57 13.5 -96t37.5 -39z" />
    <glyph glyph-name="e.ss01" horiz-adv-x="487" 
d="M434 162q11 12 25 7t14 -22q0 -50 -56.5 -103.5t-146.5 -53.5q-112 0 -181.5 70t-69.5 183q0 109 73.5 178t174.5 69q92 0 142.5 -41t50.5 -92q0 -37 -34 -59l-181 -118q39 -50 100 -50q57 0 89 32zM251 436q-24 0 -38.5 -24t-14.5 -57q0 -68 18 -119l64 47q26 19 26 55
q0 13 -2 27.5t-7.5 31.5t-17.5 28t-28 11z" />
    <glyph glyph-name="eacute.ss01" horiz-adv-x="487" 
d="M160 543q-31 -7 -45 15q-16 26 7 46l170 137q21 16 38.5 11.5t27.5 -25.5l37 -77q11 -20 4 -37.5t-30 -22.5zM434 162q11 12 25 7t14 -22q0 -50 -56.5 -103.5t-146.5 -53.5q-112 0 -181.5 70t-69.5 183q0 109 73.5 178t174.5 69q92 0 142.5 -41t50.5 -92q0 -37 -34 -59
l-181 -118q39 -50 100 -50q57 0 89 32zM251 436q-24 0 -38.5 -24t-14.5 -57q0 -68 18 -119l64 47q26 19 26 55q0 13 -2 27.5t-7.5 31.5t-17.5 28t-28 11z" />
    <glyph glyph-name="ecaron.ss01" horiz-adv-x="487" 
d="M173 563l-105 112q-16 17 2.5 37t36.5 11l146 -72l143 72q19 10 36.5 -11.5t2.5 -36.5l-113 -113q-21 -21 -52 -21h-45q-31 0 -52 22zM434 162q11 12 25 7t14 -22q0 -50 -56.5 -103.5t-146.5 -53.5q-112 0 -181.5 70t-69.5 183q0 109 73.5 178t174.5 69q92 0 142.5 -41
t50.5 -92q0 -37 -34 -59l-181 -118q39 -50 100 -50q57 0 89 32zM251 436q-24 0 -38.5 -24t-14.5 -57q0 -68 18 -119l64 47q26 19 26 55q0 13 -2 27.5t-7.5 31.5t-17.5 28t-28 11z" />
    <glyph glyph-name="ecircumflex.ss01" horiz-adv-x="487" 
d="M104 540q-23 -12 -44.5 8.5t3.5 48.5l110 117q20 22 52 22h39q31 0 52 -21l124 -118q26 -26 7 -49.5t-53 -7.5l-154 74zM434 162q11 12 25 7t14 -22q0 -50 -56.5 -103.5t-146.5 -53.5q-112 0 -181.5 70t-69.5 183q0 109 73.5 178t174.5 69q92 0 142.5 -41t50.5 -92
q0 -37 -34 -59l-181 -118q39 -50 100 -50q57 0 89 32zM251 436q-24 0 -38.5 -24t-14.5 -57q0 -68 18 -119l64 47q26 19 26 55q0 13 -2 27.5t-7.5 31.5t-17.5 28t-28 11z" />
    <glyph glyph-name="edieresis.ss01" horiz-adv-x="487" 
d="M118 535q-50 0 -82 28.5t-32 71.5t32 71t82 28t81.5 -28t31.5 -71t-31.5 -71.5t-81.5 -28.5zM383 535q-50 0 -81.5 28.5t-31.5 71.5t31.5 71t81.5 28t82 -28t32 -71t-32 -71.5t-82 -28.5zM434 162q11 12 25 7t14 -22q0 -50 -56.5 -103.5t-146.5 -53.5q-112 0 -181.5 70
t-69.5 183q0 109 73.5 178t174.5 69q92 0 142.5 -41t50.5 -92q0 -37 -34 -59l-181 -118q39 -50 100 -50q57 0 89 32zM251 436q-24 0 -38.5 -24t-14.5 -57q0 -68 18 -119l64 47q26 19 26 55q0 13 -2 27.5t-7.5 31.5t-17.5 28t-28 11z" />
    <glyph glyph-name="edotaccent.ss01" horiz-adv-x="487" 
d="M249 529q-56 0 -91.5 32t-35.5 79t35.5 78.5t91.5 31.5t91.5 -31.5t35.5 -78.5t-35.5 -79t-91.5 -32zM434 162q11 12 25 7t14 -22q0 -50 -56.5 -103.5t-146.5 -53.5q-112 0 -181.5 70t-69.5 183q0 109 73.5 178t174.5 69q92 0 142.5 -41t50.5 -92q0 -37 -34 -59
l-181 -118q39 -50 100 -50q57 0 89 32zM251 436q-24 0 -38.5 -24t-14.5 -57q0 -68 18 -119l64 47q26 19 26 55q0 13 -2 27.5t-7.5 31.5t-17.5 28t-28 11z" />
    <glyph glyph-name="egrave.ss01" horiz-adv-x="487" 
d="M123 583q-23 5 -30 22.5t4 37.5l37 77q10 21 27.5 25.5t38.5 -11.5l170 -137q23 -20 7 -46q-14 -22 -45 -15zM434 162q11 12 25 7t14 -22q0 -50 -56.5 -103.5t-146.5 -53.5q-112 0 -181.5 70t-69.5 183q0 109 73.5 178t174.5 69q92 0 142.5 -41t50.5 -92q0 -37 -34 -59
l-181 -118q39 -50 100 -50q57 0 89 32zM251 436q-24 0 -38.5 -24t-14.5 -57q0 -68 18 -119l64 47q26 19 26 55q0 13 -2 27.5t-7.5 31.5t-17.5 28t-28 11z" />
    <glyph glyph-name="emacron.ss01" horiz-adv-x="487" 
d="M107 570q-26 0 -26 26v69q0 26 26 26h288q26 0 26 -26v-69q0 -26 -26 -26h-288zM434 162q11 12 25 7t14 -22q0 -50 -56.5 -103.5t-146.5 -53.5q-112 0 -181.5 70t-69.5 183q0 109 73.5 178t174.5 69q92 0 142.5 -41t50.5 -92q0 -37 -34 -59l-181 -118q39 -50 100 -50
q57 0 89 32zM251 436q-24 0 -38.5 -24t-14.5 -57q0 -68 18 -119l64 47q26 19 26 55q0 13 -2 27.5t-7.5 31.5t-17.5 28t-28 11z" />
    <glyph glyph-name="eogonek.ss01" horiz-adv-x="487" 
d="M387 22q-46 -64 -46 -114q-1 -44 26 -44q6 0 15 3q23 8 30 -18q9 -29 -13 -47q-5 -5 -11 -7q-18 -8 -57 -8q-32 0 -59 7.5t-48.5 30.5t-21.5 58q0 61 61 107q-109 2 -176.5 72t-67.5 181q0 109 73.5 178t174.5 69q92 0 142.5 -41t50.5 -92q0 -37 -34 -59l-181 -118
q39 -50 100 -50q57 0 89 32q11 12 25 7t14 -22q0 -29 -23 -64.5t-63 -60.5zM251 436q-24 0 -38.5 -24t-14.5 -57q0 -68 18 -119l64 47q26 19 26 55q0 13 -2 27.5t-7.5 31.5t-17.5 28t-28 11z" />
    <glyph glyph-name="g.ss01" horiz-adv-x="561" 
d="M549 445q0 -15 -8 -25t-16.5 -13t-25.5 -6.5t-24 -6.5q44 -58 44 -120q0 -113 -104 -170q64 -13 89 -38t25 -64q0 -56 -78 -93t-191 -37q-237 0 -237 125q0 29 20 51.5t57 22.5q33 0 56 -22.5t33.5 -50t28.5 -50.5t42 -24q33 -1 51 20.5t18 56.5q0 59 -24 72
q-24 -2 -35 -2q-110 0 -180 56t-70 147q0 97 70 156.5t180 59.5q29 0 90.5 -5t103.5 -5q53 0 69 -7.5t16 -27.5zM207 366q0 -77 28 -158.5t62 -81.5q35 0 35 70q0 66 -27.5 153t-62.5 87t-35 -70z" />
    <glyph glyph-name="gbreve.ss01" horiz-adv-x="561" 
d="M299 541q-75 0 -124 40t-57 100q-3 25 25.5 32.5t39.5 -9.5q13 -21 46 -34.5t70 -13.5q39 0 71 13t45 35q9 14 38 6.5t27 -29.5q-8 -61 -56 -100.5t-125 -39.5zM549 445q0 -15 -8 -25t-16.5 -13t-25.5 -6.5t-24 -6.5q44 -58 44 -120q0 -113 -104 -170q64 -13 89 -38
t25 -64q0 -56 -78 -93t-191 -37q-237 0 -237 125q0 29 20 51.5t57 22.5q33 0 56 -22.5t33.5 -50t28.5 -50.5t42 -24q33 -1 51 20.5t18 56.5q0 59 -24 72q-24 -2 -35 -2q-110 0 -180 56t-70 147q0 97 70 156.5t180 59.5q29 0 90.5 -5t103.5 -5q53 0 69 -7.5t16 -27.5z
M207 366q0 -77 28 -158.5t62 -81.5q35 0 35 70q0 66 -27.5 153t-62.5 87t-35 -70z" />
    <glyph glyph-name="uni0123.ss01" horiz-adv-x="561" 
d="M283 527q-44 0 -75.5 32.5t-31.5 88.5q0 124 146 211q17 10 31.5 -5t0.5 -29q-42 -43 -48 -59q-4 -9 -4 -18q-2 -22 12 -22q29 0 50 -26t21 -66q0 -48 -27.5 -77.5t-74.5 -29.5zM549 445q0 -15 -8 -25t-16.5 -13t-25.5 -6.5t-24 -6.5q44 -58 44 -120q0 -113 -104 -170
q64 -13 89 -38t25 -64q0 -56 -78 -93t-191 -37q-237 0 -237 125q0 29 20 51.5t57 22.5q33 0 56 -22.5t33.5 -50t28.5 -50.5t42 -24q33 -1 51 20.5t18 56.5q0 59 -24 72q-24 -2 -35 -2q-110 0 -180 56t-70 147q0 97 70 156.5t180 59.5q29 0 90.5 -5t103.5 -5q53 0 69 -7.5
t16 -27.5zM207 366q0 -77 28 -158.5t62 -81.5q35 0 35 70q0 66 -27.5 153t-62.5 87t-35 -70z" />
    <glyph glyph-name="gdotaccent.ss01" horiz-adv-x="561" 
d="M298 529q-56 0 -91.5 32t-35.5 79t35.5 78.5t91.5 31.5t91.5 -31.5t35.5 -78.5t-35.5 -79t-91.5 -32zM549 445q0 -15 -8 -25t-16.5 -13t-25.5 -6.5t-24 -6.5q44 -58 44 -120q0 -113 -104 -170q64 -13 89 -38t25 -64q0 -56 -78 -93t-191 -37q-237 0 -237 125q0 29 20 51.5
t57 22.5q33 0 56 -22.5t33.5 -50t28.5 -50.5t42 -24q33 -1 51 20.5t18 56.5q0 59 -24 72q-24 -2 -35 -2q-110 0 -180 56t-70 147q0 97 70 156.5t180 59.5q29 0 90.5 -5t103.5 -5q53 0 69 -7.5t16 -27.5zM207 366q0 -77 28 -158.5t62 -81.5q35 0 35 70q0 66 -27.5 153
t-62.5 87t-35 -70z" />
    </font>
</defs>
</svg>
